<svg xmlns="http://www.w3.org/2000/svg" width="249.741" height="123.716" viewBox="0 0 249.741 123.716">
  <g id="app" transform="translate(1401.3 -679.996)">
    <rect id="Rectangle_126" data-name="Rectangle 126" width="249.741" height="6.36" rx="1.484" transform="translate(-1401.3 797.352)" fill="#e5e7e8"/>
    <g id="Group_222" data-name="Group 222" transform="translate(-1387.371 679.996)">
      <g id="Group_205" data-name="Group 205" transform="translate(105.049 1.396)">
        <path id="Path_266" data-name="Path 266" d="M1341.649,2483.168H1311.5a3.779,3.779,0,0,0-3.769,3.769v49a3.78,3.78,0,0,0,3.769,3.769h30.15a3.78,3.78,0,0,0,3.769-3.769v-49A3.779,3.779,0,0,0,1341.649,2483.168Z" transform="translate(-1230.468 -2436.056)" fill="#fcd770"/>
        <path id="Path_267" data-name="Path 267" d="M1262.492,2459.359v45.019l12.193,11.513H1334.1v-15.074a3.779,3.779,0,0,1,3.769-3.769h11.307v-37.688Z" transform="translate(-1256.839 -2449.936)" fill="#e6e9ed"/>
        <path id="Path_268" data-name="Path 268" d="M1312.492,2487.93H1335.1v11.306h-22.613Z" transform="translate(-1227.692 -2433.28)" fill="#69d6f4"/>
        <path id="Path_269" data-name="Path 269" d="M1341.051,2468.882v7.538h-45.226v-7.538Z" transform="translate(-1237.408 -2444.384)" fill="#b4dd7f"/>
        <path id="Path_270" data-name="Path 270" d="M1341.051,2464.121v7.536h-45.226v-7.536Z" transform="translate(-1237.408 -2447.16)" fill="#ff826e"/>
        <path id="Path_271" data-name="Path 271" d="M1299.988,2471.657v7.538l-11.305-7.538,11.305-7.536Z" transform="translate(-1241.571 -2447.16)" fill="#f5e0cd"/>
        <path id="Path_272" data-name="Path 272" d="M1335.7,2469.773v3.769a5.645,5.645,0,0,1-5.653,5.653H1324.4v-15.074h5.654A5.645,5.645,0,0,1,1335.7,2469.773Z" transform="translate(-1220.753 -2447.16)" fill="#ffeaa7"/>
        <path id="Path_273" data-name="Path 273" d="M1260.111,2542.082v-56.533l3.769,3.562,12.193,11.513,51.878,49h-67.84Zm11.307-30.3v26.533h28.1Z" transform="translate(-1258.227 -2434.668)" fill="#ffeaa7"/>
        <path id="Path_274" data-name="Path 274" d="M1354.333,2456.481v3.769a1.89,1.89,0,0,1-1.884,1.885H1262a1.891,1.891,0,0,1-1.885-1.885v-3.769A1.891,1.891,0,0,1,1262,2454.6h90.452A1.889,1.889,0,0,1,1354.333,2456.481Z" transform="translate(-1258.227 -2452.712)" fill="#838f9b"/>
        <path id="Path_275" data-name="Path 275" d="M1368.218,2487.327a7.545,7.545,0,0,0,7.536-7.538v-3.769a7.545,7.545,0,0,0-7.536-7.538h-15.076v-3.769a3.773,3.773,0,0,0,3.769-3.77v-3.769a3.773,3.773,0,0,0-3.769-3.769H1262.69a3.773,3.773,0,0,0-3.769,3.769v3.769a3.774,3.774,0,0,0,3.769,3.77v38.761l-3.769-3.56v70.327h74.463l-51.876-49h52.79v32.036a5.662,5.662,0,0,0,5.655,5.653h30.15a5.66,5.66,0,0,0,5.653-5.653v-49a5.661,5.661,0,0,0-5.653-5.654h-16.96v-11.306Zm-7.538-11.307h-41.457v-3.769h41.457Zm-45.226,5.9-6.025-4.017,6.025-4.018Zm3.769-2.132h41.457v3.769h-41.457Zm52.764-3.769v3.769a3.773,3.773,0,0,1-3.769,3.769h-3.769v-11.307h3.769A3.773,3.773,0,0,1,1371.987,2476.02Zm-109.3-18.844h90.453v3.769H1262.69Zm0,109.3V2562.7h3.769v-3.769h-3.769v-3.769h3.769V2551.4h-3.769v-3.769h3.769v-3.769h-3.769v-3.769h3.769v-3.767h-3.769v-3.769h3.769v-3.769h-3.769v-3.769h3.769v-3.769h-3.769v-12.589l61.215,57.815Zm109.3-62.186v49a1.888,1.888,0,0,1-1.885,1.884h-30.15a1.888,1.888,0,0,1-1.885-1.884v-49a1.888,1.888,0,0,1,1.885-1.885h30.15A1.888,1.888,0,0,1,1371.987,2504.286Zm-22.614-5.654h-32.036v3.769h17.308a5.57,5.57,0,0,0-.348,1.885v1.884h-16.96v3.769h16.96v7.538h-56.78l-11.058-10.445v-42.319h82.914v3.769h-32.607l-14.132,9.422,14.132,9.423h32.607Z" transform="translate(-1258.921 -2453.406)"/>
        <path id="Path_276" data-name="Path 276" d="M1294.331,2467.692h-12.956l-3.405,25.528-5.347-6.685h-6.558v3.769h4.749l9.727,12.162,4.133-31.005h9.658Z" transform="translate(-1254.757 -2445.078)"/>
        <path id="Path_277" data-name="Path 277" d="M1298.351,2473.993l-8.089,8.091-8.09-8.091-2.664,2.664,8.089,8.091-8.089,8.088,2.664,2.666,8.09-8.091,8.089,8.091,2.666-2.666-8.09-8.088,8.09-8.091Z" transform="translate(-1246.92 -2441.405)"/>
        <path id="Path_278" data-name="Path 278" d="M1295.825,2477.216h28.266v3.768h-28.266Z" transform="translate(-1237.408 -2439.526)"/>
        <path id="Path_279" data-name="Path 279" d="M1266.064,2499.358v32.789h34.716Zm3.769,8.744,21.47,20.276h-21.47Z" transform="translate(-1254.757 -2426.619)"/>
        <path id="Path_280" data-name="Path 280" d="M1337.684,2486.739H1311.3v15.076h26.383Zm-3.769,11.307H1315.07v-7.538h18.845Z" transform="translate(-1228.386 -2433.975)"/>
        <path id="Path_281" data-name="Path 281" d="M1320.825,2501.025h11.307v3.769h-11.307Z" transform="translate(-1222.834 -2425.647)"/>
        <path id="Path_282" data-name="Path 282" d="M1311.3,2508.167h11.307v3.769H1311.3Z" transform="translate(-1228.386 -2421.483)"/>
        <path id="Path_283" data-name="Path 283" d="M1311.3,2512.929h11.307v3.769H1311.3Z" transform="translate(-1228.386 -2418.707)"/>
        <path id="Path_284" data-name="Path 284" d="M1315.07,2509.951h3.769v-3.769h3.769v-3.769h-3.769v-3.769h-3.769v3.769H1311.3v3.769h3.769Z" transform="translate(-1228.386 -2427.035)"/>
        <path id="Path_285" data-name="Path 285" d="M1328.71,2508.516l-2.436,2.438-2.436-2.437-2.664,2.666,2.436,2.436-2.436,2.436,2.664,2.664,2.436-2.436,2.436,2.436,2.666-2.664-2.436-2.436,2.436-2.436Z" transform="translate(-1222.631 -2421.28)"/>
      </g>
      <g id="Group_216" data-name="Group 216" transform="translate(36.511)">
        <g id="Group_207" data-name="Group 207">
          <path id="Path_286" data-name="Path 286" d="M1274.131,2569.7h-49.755a7.92,7.92,0,0,1-7.919-7.919v-100.5a7.92,7.92,0,0,1,7.919-7.92h49.755a7.92,7.92,0,0,1,7.92,7.92v100.5A7.92,7.92,0,0,1,1274.131,2569.7Z" transform="translate(-1215.137 -2452.038)" fill="#838f9b"/>
          <path id="Path_287" data-name="Path 287" d="M1216.457,2460.514h65.594V2554.2h-65.594Z" transform="translate(-1215.137 -2447.866)" fill="#fff"/>
          <path id="Path_288" data-name="Path 288" d="M1274.618,2571.5h-49.755a9.251,9.251,0,0,1-9.24-9.24v-100.5a9.251,9.251,0,0,1,9.24-9.24h49.755a9.25,9.25,0,0,1,9.24,9.24v100.5a9.25,9.25,0,0,1-9.24,9.24Zm-49.755-116.34a6.606,6.606,0,0,0-6.6,6.6v100.5a6.607,6.607,0,0,0,6.6,6.6h49.755a6.608,6.608,0,0,0,6.6-6.6v-100.5a6.608,6.608,0,0,0-6.6-6.6Z" transform="translate(-1215.623 -2452.524)"/>
          <g id="Group_206" data-name="Group 206" transform="translate(28.181 5.906)">
            <path id="Path_289" data-name="Path 289" d="M1243.978,2458.9h-9.232a1.32,1.32,0,0,1,0-2.641h9.232a1.32,1.32,0,0,1,0,2.641Z" transform="translate(-1233.426 -2456.255)" fill="#b7c5ff"/>
          </g>
          <path id="Path_290" data-name="Path 290" d="M1244.469,2456.254a1.321,1.321,0,1,1-1.32,1.322A1.321,1.321,0,0,1,1244.469,2456.254Z" transform="translate(-1199.577 -2450.349)" fill="#b7c5ff"/>
        </g>
        <path id="Path_291" data-name="Path 291" d="M1271.655,2467.132v22.415a2.64,2.64,0,0,1-2.64,2.64H1223.9a2.641,2.641,0,0,1-2.641-2.64v-22.415a2.641,2.641,0,0,1,2.641-2.639h45.117A2.64,2.64,0,0,1,1271.655,2467.132Z" transform="translate(-1212.339 -2445.546)" fill="#9fb0fe"/>
        <path id="Path_292" data-name="Path 292" d="M1265.971,2470.943v17.387a2.641,2.641,0,0,1-2.64,2.64h-32.177a21.862,21.862,0,0,1,34.817-20.027Z" transform="translate(-1206.655 -2444.329)" fill="#8399fe"/>
        <path id="Path_293" data-name="Path 293" d="M1271.655,2514.05v10.479h-50.4V2514.05a2.641,2.641,0,0,1,2.641-2.641h45.117A2.641,2.641,0,0,1,1271.655,2514.05Z" transform="translate(-1212.339 -2418.197)" fill="#ffeaa7"/>
        <path id="Path_294" data-name="Path 294" d="M1241.984,2517.971a14.446,14.446,0,0,1-1.565,6.558h-19.162V2514.05a2.641,2.641,0,0,1,2.641-2.641h16.521A14.464,14.464,0,0,1,1241.984,2517.971Z" transform="translate(-1212.339 -2418.197)" fill="#fcd770"/>
        <g id="Group_210" data-name="Group 210" transform="translate(8.918 52.883)">
          <g id="Group_208" data-name="Group 208">
            <path id="Path_295" data-name="Path 295" d="M1243.366,2499.063h-20.789a1.32,1.32,0,0,1-1.32-1.319v-10.492a1.321,1.321,0,0,1,1.32-1.321h20.789a1.321,1.321,0,0,1,1.32,1.321v10.492A1.32,1.32,0,0,1,1243.366,2499.063Z" transform="translate(-1221.257 -2485.932)" fill="#fca770" stroke="#323232" stroke-miterlimit="10" stroke-width="0.914"/>
            <path id="Path_296" data-name="Path 296" d="M1260.4,2499.063h-20.787a1.319,1.319,0,0,1-1.32-1.319v-10.492a1.32,1.32,0,0,1,1.32-1.321H1260.4a1.32,1.32,0,0,1,1.32,1.321v10.492A1.319,1.319,0,0,1,1260.4,2499.063Z" transform="translate(-1211.325 -2485.932)" fill="#fcd770" stroke="#323232" stroke-miterlimit="10" stroke-width="0.914"/>
          </g>
          <g id="Group_209" data-name="Group 209" transform="translate(0 16.206)">
            <path id="Path_297" data-name="Path 297" d="M1243.366,2509.3h-20.789a1.32,1.32,0,0,1-1.32-1.32v-10.49a1.32,1.32,0,0,1,1.32-1.32h20.789a1.32,1.32,0,0,1,1.32,1.32v10.49a1.32,1.32,0,0,1-1.32,1.32Z" transform="translate(-1221.257 -2496.17)" fill="#00b8ff" stroke="#323232" stroke-miterlimit="10" stroke-width="0.914"/>
            <path id="Path_298" data-name="Path 298" d="M1260.4,2509.3h-20.787a1.319,1.319,0,0,1-1.32-1.32v-10.49a1.319,1.319,0,0,1,1.32-1.32H1260.4a1.319,1.319,0,0,1,1.32,1.32v10.49a1.319,1.319,0,0,1-1.32,1.32Z" transform="translate(-1211.325 -2496.17)" fill="#fc9f9d" stroke="#323232" stroke-miterlimit="10" stroke-width="0.914"/>
          </g>
        </g>
        <g id="Group_214" data-name="Group 214" transform="translate(14.313 23.16)">
          <g id="Group_211" data-name="Group 211" transform="translate(0 11.291)">
            <path id="Path_299" data-name="Path 299" d="M1243.326,2474.288h-17.341a1.32,1.32,0,1,0,0,2.64h17.341a1.32,1.32,0,1,0,0-2.64Z" transform="translate(-1224.665 -2474.288)" fill="#fff"/>
          </g>
          <g id="Group_212" data-name="Group 212" transform="translate(0 6.163)">
            <path id="Path_300" data-name="Path 300" d="M1243.326,2471.048h-17.341a1.32,1.32,0,1,0,0,2.64h17.341a1.32,1.32,0,1,0,0-2.64Z" transform="translate(-1224.665 -2471.048)" fill="#fff"/>
          </g>
          <g id="Group_213" data-name="Group 213">
            <path id="Path_301" data-name="Path 301" d="M1229.07,2467.155h-3.085a1.32,1.32,0,1,0,0,2.64h3.085a1.32,1.32,0,0,0,0-2.64Z" transform="translate(-1224.665 -2467.155)" fill="#ffc4df"/>
          </g>
        </g>
        <g id="Group_215" data-name="Group 215" transform="translate(8.918 87.819)">
          <path id="Path_302" data-name="Path 302" d="M1233.582,2508h-11a1.32,1.32,0,1,0,0,2.64h11a1.32,1.32,0,1,0,0-2.64Z" transform="translate(-1221.257 -2508.002)" fill="#8399fe"/>
        </g>
        <path id="Path_303" data-name="Path 303" d="M1256.432,2514.05v6.492a9.06,9.06,0,0,1-9.061-9.057v-.075h6.421A2.641,2.641,0,0,1,1256.432,2514.05Z" transform="translate(-1197.116 -2418.197)" fill="#fcd770"/>
      </g>
      <g id="Group_217" data-name="Group 217" transform="translate(4.904 7.09)">
        <path id="Path_304" data-name="Path 304" d="M1213.45,2501.757a1.264,1.264,0,0,0,1.263,1.263h7.905a1.264,1.264,0,0,0,1.265-1.263v-2.452a19.752,19.752,0,0,0,4.745-1.966l1.73,1.73a1.263,1.263,0,0,0,1.787,0l5.588-5.591a1.265,1.265,0,0,0,0-1.789l-1.729-1.729a19.7,19.7,0,0,0,1.966-4.744h2.443a1.264,1.264,0,0,0,1.263-1.265v-7.905a1.263,1.263,0,0,0-1.263-1.263h-2.443a19.8,19.8,0,0,0-1.966-4.745l1.719-1.719a1.265,1.265,0,0,0,0-1.789l-5.593-5.586a1.263,1.263,0,0,0-1.787,0l-1.716,1.717a19.835,19.835,0,0,0-4.745-1.968v-2.428a1.264,1.264,0,0,0-1.265-1.263h-7.905a1.264,1.264,0,0,0-1.263,1.263v2.429a19.736,19.736,0,0,0-4.744,1.966l-1.718-1.717a1.265,1.265,0,0,0-1.788,0l-5.591,5.588a1.263,1.263,0,0,0,0,1.787l1.719,1.719a19.7,19.7,0,0,0-1.966,4.745h-2.437a1.264,1.264,0,0,0-1.265,1.263l0,7.905a1.262,1.262,0,0,0,1.263,1.265h2.442a19.69,19.69,0,0,0,1.966,4.744l-1.729,1.729a1.265,1.265,0,0,0,0,1.789l5.588,5.591a1.259,1.259,0,0,0,.893.37h0a1.257,1.257,0,0,0,.893-.37l1.73-1.73a19.754,19.754,0,0,0,4.745,1.966Z" transform="translate(-1195.656 -2457.003)" fill="#fcd770" stroke="#323232" stroke-miterlimit="10" stroke-width="0.72"/>
        <circle id="Ellipse_20" data-name="Ellipse 20" cx="10.446" cy="10.446" r="10.446" transform="translate(12.564 12.563)" fill="#ff826e" stroke="#323232" stroke-miterlimit="10" stroke-width="1.439"/>
      </g>
      <g id="Group_221" data-name="Group 221" transform="translate(0 58.529)">
        <g id="Group_218" data-name="Group 218" transform="translate(1.649 1.649)">
          <path id="Path_305" data-name="Path 305" d="M1213.208,2507.711v.032H1196.38v-2.75h16.828v2.718Z" transform="translate(-1191.979 -2482.115)" fill="#fff"/>
          <path id="Path_306" data-name="Path 306" d="M1209.637,2495.544a2.695,2.695,0,1,1-2.7,2.7A2.7,2.7,0,0,1,1209.637,2495.544Z" transform="translate(-1185.823 -2487.625)" fill="#fff"/>
          <path id="Path_307" data-name="Path 307" d="M1241.226,2493.236v15.029l-5.782-5.782a4.347,4.347,0,0,0-6.144,0l-12.822,12.822v-2.71a.824.824,0,0,0-.825-.825h-3.177l-2.55-2.55a4.345,4.345,0,0,0-6.145,0l-2.549,2.55h-4.057a.826.826,0,0,0-.826.825v4.057l-2.75,2.75v-26.165a2.7,2.7,0,0,1,2.7-2.7h42.236A2.7,2.7,0,0,1,1241.226,2493.236Zm-16.828,7.92a.824.824,0,0,0-.825-.825h-1.895a4.3,4.3,0,0,0-.666-1.608l1.341-1.339a.826.826,0,0,0-1.168-1.167l-1.339,1.339a4.346,4.346,0,0,0-1.607-.666V2495a.825.825,0,1,0-1.649,0v1.893a4.346,4.346,0,0,0-1.607.666l-1.341-1.339a.825.825,0,0,0-1.167,1.167l1.339,1.339a4.348,4.348,0,0,0-.666,1.608h-1.893a.825.825,0,0,0,0,1.649h1.893a4.353,4.353,0,0,0,.666,1.606l-1.339,1.339a.825.825,0,0,0,0,1.168.826.826,0,0,0,1.167,0l1.341-1.341a4.281,4.281,0,0,0,1.607.666v1.9a.825.825,0,0,0,1.649,0v-1.9a4.281,4.281,0,0,0,1.607-.666l1.341,1.341a.826.826,0,0,0,1.167-1.168l-1.341-1.339a4.331,4.331,0,0,0,.668-1.606h1.893A.825.825,0,0,0,1224.4,2501.156Z" transform="translate(-1193.6 -2490.541)" fill="#fff"/>
        </g>
        <path id="Path_308" data-name="Path 308" d="M1243.483,2493.844v31.677a4.349,4.349,0,0,1-4.344,4.345H1196.9a4.349,4.349,0,0,1-4.345-4.345v-31.677a4.349,4.349,0,0,1,4.345-4.345h42.236A4.349,4.349,0,0,1,1243.483,2493.844Zm-1.649,31.677v-14.314l-6.949-6.948a2.692,2.692,0,0,0-3.81,0l-13.056,13.055,10.9,10.9h10.218A2.7,2.7,0,0,0,1241.833,2525.52Zm0-16.648v-15.029a2.7,2.7,0,0,0-2.694-2.7H1196.9a2.7,2.7,0,0,0-2.7,2.7v26.165l2.75-2.75V2513.2a.826.826,0,0,1,.826-.825h4.057l2.55-2.55a4.343,4.343,0,0,1,6.143,0l2.55,2.55h3.177a.824.824,0,0,1,.825.825v2.71l12.822-12.822a4.345,4.345,0,0,1,6.145,0Zm-44.93,19.344h29.685l-9.906-9.906a.812.812,0,0,1-.421.117h-18.136l-3.918,3.916v3.177A2.7,2.7,0,0,0,1196.9,2528.216Zm18.533-11.44v-2.75h-16.828v2.75Zm-11.263-4.4h6.576l-1.382-1.383a2.7,2.7,0,0,0-3.81,0Z" transform="translate(-1192.558 -2489.499)" fill="#535757"/>
        <g id="Group_219" data-name="Group 219" transform="translate(1.649 13.969)">
          <path id="Path_309" data-name="Path 309" d="M1232.457,2506.062v14.314a2.7,2.7,0,0,1-2.694,2.7h-10.218l-10.9-10.9,13.056-13.054a2.691,2.691,0,0,1,3.81,0Z" transform="translate(-1184.831 -2498.324)" fill="#c2e95d"/>
          <path id="Path_310" data-name="Path 310" d="M1225.981,2517.606H1196.3a2.7,2.7,0,0,1-2.7-2.7v-3.177l3.918-3.917h18.136a.809.809,0,0,0,.421-.117Zm-9.5-7.095a.824.824,0,0,0-.825-.825h-18.478a.825.825,0,1,0,0,1.649h18.478A.824.824,0,0,0,1216.478,2510.511Zm-7.04,3.52a.826.826,0,0,0-.824-.826h-11.438a.826.826,0,1,0,0,1.651h11.438A.825.825,0,0,0,1209.439,2514.031Z" transform="translate(-1193.6 -2492.858)" fill="#c2e95d"/>
        </g>
        <g id="Group_220" data-name="Group 220" transform="translate(4.399 5.279)">
          <path id="Path_311" data-name="Path 311" d="M1217.376,2498.995a.825.825,0,1,1,0,1.649h-1.895a4.287,4.287,0,0,1-.666,1.606l1.341,1.339a.828.828,0,0,1,0,1.168.828.828,0,0,1-1.168,0l-1.339-1.341a4.274,4.274,0,0,1-1.607.667v1.895a.825.825,0,0,1-1.649,0v-1.895a4.291,4.291,0,0,1-1.608-.667l-1.339,1.341a.825.825,0,0,1-1.167-1.168l1.339-1.339a4.34,4.34,0,0,1-.666-1.606h-1.893a.825.825,0,1,1,0-1.649h1.893a4.345,4.345,0,0,1,.666-1.608l-1.339-1.339a.825.825,0,0,1,1.167-1.167l1.339,1.339a4.359,4.359,0,0,1,1.607-.666v-1.893a.826.826,0,1,1,1.651,0v1.893a4.36,4.36,0,0,1,1.607.666l1.339-1.339a.826.826,0,0,1,1.168,1.167l-1.341,1.339a4.345,4.345,0,0,1,.666,1.608Zm-3.465.825a2.695,2.695,0,1,0-2.694,2.694A2.7,2.7,0,0,0,1213.911,2499.82Z" transform="translate(-1190.152 -2492.834)" fill="#535757"/>
          <path id="Path_312" data-name="Path 312" d="M1214.641,2508.955a.825.825,0,0,1,0,1.649h-18.478a.825.825,0,1,1,0-1.649Z" transform="translate(-1195.337 -2483.436)" fill="#535757"/>
        </g>
        <path id="Path_313" data-name="Path 313" d="M1206.472,2504.752H1199.9l1.384-1.384a2.7,2.7,0,0,1,3.81,0Z" transform="translate(-1188.28 -2481.873)" fill="#c2e95d"/>
        <path id="Path_314" data-name="Path 314" d="M1207.6,2511.178a.825.825,0,0,1,0,1.651h-11.438a.825.825,0,1,1,0-1.651Z" transform="translate(-1190.938 -2476.861)" fill="#535757"/>
      </g>
    </g>
  </g>
</svg>
