<svg xmlns="http://www.w3.org/2000/svg" width="239.713" height="200.089" viewBox="0 0 239.713 200.089">
  <g id="software_development" transform="translate(1938.978 -826.955)">
    <g id="Group_194" data-name="Group 194" transform="translate(-1886.714 826.955)">
      <g id="Group_181" data-name="Group 181" transform="translate(0 75.768)">
        <g id="Group_179" data-name="Group 179">
          <path id="Path_149" data-name="Path 149" d="M654.921,2491.332,608.6,2537.141a3.42,3.42,0,0,0,1.577,5.75l.616.153a3.42,3.42,0,0,0,3.247-.9l45.834-45.834a3.421,3.421,0,0,0,0-4.836l-.128-.128A3.421,3.421,0,0,0,654.921,2491.332Z" transform="translate(-607.582 -2471.381)" fill="#bdd0fb"/>
          <path id="Path_150" data-name="Path 150" d="M643.484,2494.354l.074.074a3.419,3.419,0,0,0,4.836,0L658.62,2484.2a3.42,3.42,0,0,0,.543-4.129h0a3.421,3.421,0,0,0-5.362-.724l-10.3,10.15A3.421,3.421,0,0,0,643.484,2494.354Z" transform="translate(-587.238 -2478.365)" fill="#bdd0fb"/>
        </g>
        <g id="Group_180" data-name="Group 180" transform="translate(8.679 19.76)">
          <path id="Path_151" data-name="Path 151" d="M649.324,2503.817l-35.241,34.727a3.42,3.42,0,0,0,1.577,5.75l.616.155a3.421,3.421,0,0,0,3.247-.9l34.754-34.752a3.418,3.418,0,0,0,0-4.835l-.128-.13A3.421,3.421,0,0,0,649.324,2503.817Z" transform="translate(-613.065 -2483.865)" fill="#bdd0fb"/>
          <path id="Path_152" data-name="Path 152" d="M641.967,2506.837l.074.076a3.421,3.421,0,0,0,4.836,0l10.226-10.228a3.419,3.419,0,0,0,.543-4.128h0a3.42,3.42,0,0,0-5.361-.725l-10.3,10.151A3.42,3.42,0,0,0,641.967,2506.837Z" transform="translate(-596.801 -2490.848)" fill="#bdd0fb"/>
        </g>
      </g>
      <g id="Group_184" data-name="Group 184" transform="translate(75.768)">
        <g id="Group_182" data-name="Group 182">
          <path id="Path_153" data-name="Path 153" d="M702.786,2443.468l-46.322,45.809a3.419,3.419,0,0,0,1.577,5.749l.616.154a3.42,3.42,0,0,0,3.247-.9l45.834-45.834a3.418,3.418,0,0,0,0-4.836l-.128-.128A3.42,3.42,0,0,0,702.786,2443.468Z" transform="translate(-655.447 -2423.516)" fill="#bdd0fb"/>
          <path id="Path_154" data-name="Path 154" d="M691.349,2446.489l.074.074a3.421,3.421,0,0,0,4.836,0l10.226-10.226a3.419,3.419,0,0,0,.543-4.13h0a3.42,3.42,0,0,0-5.362-.723l-10.3,10.15A3.421,3.421,0,0,0,691.349,2446.489Z" transform="translate(-635.103 -2430.5)" fill="#bdd0fb"/>
        </g>
        <g id="Group_183" data-name="Group 183" transform="translate(8.681 19.761)">
          <path id="Path_155" data-name="Path 155" d="M697.188,2455.952l-35.24,34.726a3.42,3.42,0,0,0,1.575,5.749l.617.154a3.416,3.416,0,0,0,3.247-.9l34.752-34.753a3.419,3.419,0,0,0,0-4.836l-.128-.128A3.421,3.421,0,0,0,697.188,2455.952Z" transform="translate(-660.931 -2436)" fill="#bdd0fb"/>
          <path id="Path_156" data-name="Path 156" d="M689.832,2458.972l.074.074a3.418,3.418,0,0,0,4.836,0l10.226-10.226a3.419,3.419,0,0,0,.543-4.13h0a3.419,3.419,0,0,0-5.36-.723l-10.3,10.151A3.42,3.42,0,0,0,689.832,2458.972Z" transform="translate(-644.668 -2442.983)" fill="#bdd0fb"/>
        </g>
      </g>
      <g id="Group_187" data-name="Group 187" transform="translate(48.348 63.457)">
        <g id="Group_185" data-name="Group 185">
          <path id="Path_157" data-name="Path 157" d="M685.464,2483.556l-46.322,45.809a3.42,3.42,0,0,0,1.577,5.749l.616.154a3.421,3.421,0,0,0,3.247-.9l45.834-45.834a3.419,3.419,0,0,0,0-4.836l-.128-.13A3.42,3.42,0,0,0,685.464,2483.556Z" transform="translate(-638.125 -2463.604)" fill="#bdd0fb"/>
          <path id="Path_158" data-name="Path 158" d="M674.027,2486.575l.074.076a3.421,3.421,0,0,0,4.836,0l10.226-10.226a3.419,3.419,0,0,0,.543-4.13h0a3.421,3.421,0,0,0-5.361-.725l-10.3,10.151A3.419,3.419,0,0,0,674.027,2486.575Z" transform="translate(-617.781 -2470.587)" fill="#bdd0fb"/>
        </g>
        <g id="Group_186" data-name="Group 186" transform="translate(8.681 19.761)">
          <path id="Path_159" data-name="Path 159" d="M679.866,2496.038l-35.239,34.728a3.42,3.42,0,0,0,1.575,5.75l.617.153a3.421,3.421,0,0,0,3.247-.9l34.752-34.753a3.419,3.419,0,0,0,0-4.836l-.128-.128A3.422,3.422,0,0,0,679.866,2496.038Z" transform="translate(-643.609 -2476.087)" fill="#bdd0fb"/>
          <path id="Path_160" data-name="Path 160" d="M672.51,2499.06l.074.074a3.418,3.418,0,0,0,4.836,0l10.226-10.226a3.419,3.419,0,0,0,.543-4.13h0a3.419,3.419,0,0,0-5.36-.723l-10.3,10.151A3.42,3.42,0,0,0,672.51,2499.06Z" transform="translate(-627.346 -2483.071)" fill="#bdd0fb"/>
        </g>
      </g>
      <g id="Group_190" data-name="Group 190" transform="translate(28.806 119.645)">
        <g id="Group_188" data-name="Group 188">
          <path id="Path_161" data-name="Path 161" d="M673.119,2519.052,626.8,2564.86a3.419,3.419,0,0,0,1.577,5.749l.617.154a3.417,3.417,0,0,0,3.245-.9l45.834-45.834a3.418,3.418,0,0,0,0-4.835l-.128-.129A3.421,3.421,0,0,0,673.119,2519.052Z" transform="translate(-625.78 -2499.1)" fill="#bdd0fb"/>
          <path id="Path_162" data-name="Path 162" d="M661.682,2522.072l.074.076a3.421,3.421,0,0,0,4.836,0l10.226-10.226a3.419,3.419,0,0,0,.543-4.13h0a3.418,3.418,0,0,0-5.36-.723l-10.3,10.15A3.42,3.42,0,0,0,661.682,2522.072Z" transform="translate(-605.435 -2506.084)" fill="#bdd0fb"/>
        </g>
        <g id="Group_189" data-name="Group 189" transform="translate(8.681 19.761)">
          <path id="Path_163" data-name="Path 163" d="M667.523,2531.536l-35.241,34.727a3.419,3.419,0,0,0,1.575,5.749l.617.154a3.422,3.422,0,0,0,3.247-.9l34.752-34.754a3.418,3.418,0,0,0,0-4.835l-.128-.128A3.418,3.418,0,0,0,667.523,2531.536Z" transform="translate(-631.264 -2511.583)" fill="#bdd0fb"/>
          <path id="Path_164" data-name="Path 164" d="M660.165,2534.556l.074.075a3.419,3.419,0,0,0,4.836,0L675.3,2524.4a3.421,3.421,0,0,0,.541-4.13h0a3.42,3.42,0,0,0-5.36-.723l-10.3,10.152A3.419,3.419,0,0,0,660.165,2534.556Z" transform="translate(-615.001 -2518.567)" fill="#bdd0fb"/>
        </g>
      </g>
      <g id="Group_193" data-name="Group 193" transform="translate(103.592 44.077)">
        <g id="Group_191" data-name="Group 191">
          <path id="Path_165" data-name="Path 165" d="M720.364,2471.314l-46.322,45.809a3.419,3.419,0,0,0,1.575,5.748l.617.155a3.422,3.422,0,0,0,3.247-.9l45.834-45.834a3.421,3.421,0,0,0,0-4.836l-.13-.128A3.418,3.418,0,0,0,720.364,2471.314Z" transform="translate(-673.025 -2451.361)" fill="#bdd0fb"/>
          <path id="Path_166" data-name="Path 166" d="M708.926,2474.334l.076.074a3.418,3.418,0,0,0,4.836,0l10.226-10.226a3.418,3.418,0,0,0,.541-4.13h0a3.419,3.419,0,0,0-5.36-.723l-10.3,10.151A3.419,3.419,0,0,0,708.926,2474.334Z" transform="translate(-652.681 -2458.345)" fill="#bdd0fb"/>
        </g>
        <g id="Group_192" data-name="Group 192" transform="translate(8.679 19.761)">
          <path id="Path_167" data-name="Path 167" d="M714.767,2483.8l-35.241,34.729a3.419,3.419,0,0,0,1.576,5.749l.616.154a3.42,3.42,0,0,0,3.247-.9l34.753-34.754a3.421,3.421,0,0,0,0-4.835l-.13-.128A3.419,3.419,0,0,0,714.767,2483.8Z" transform="translate(-678.508 -2463.845)" fill="#bdd0fb"/>
          <path id="Path_168" data-name="Path 168" d="M707.409,2486.818l.076.075a3.418,3.418,0,0,0,4.836,0l10.226-10.226a3.419,3.419,0,0,0,.541-4.13h0a3.418,3.418,0,0,0-5.36-.723l-10.3,10.15A3.42,3.42,0,0,0,707.409,2486.818Z" transform="translate(-662.245 -2470.829)" fill="#bdd0fb"/>
        </g>
      </g>
    </g>
    <g id="Group_196" data-name="Group 196" transform="translate(-1865.236 865.09)">
      <rect id="Rectangle_123" data-name="Rectangle 123" width="142.479" height="99.227" rx="8.264" fill="#331338"/>
      <rect id="Rectangle_124" data-name="Rectangle 124" width="132.646" height="88.714" rx="7.54" transform="translate(4.917 5.257)" fill="#fff"/>
      <g id="Group_195" data-name="Group 195" transform="translate(66.211 1.115)">
        <circle id="Ellipse_14" data-name="Ellipse 14" cx="1.568" cy="1.568" r="1.568" transform="translate(3.495)" fill="#1f3dc4"/>
        <path id="Path_169" data-name="Path 169" d="M664.876,2456.635a.949.949,0,1,1-.95-.948A.951.951,0,0,1,664.876,2456.635Z" transform="translate(-662.978 -2455.068)" fill="#1f3dc4"/>
        <circle id="Ellipse_15" data-name="Ellipse 15" cx="0.949" cy="0.949" r="0.949" transform="translate(8.228 0.619)" fill="#1f3dc4"/>
      </g>
    </g>
    <ellipse id="Ellipse_16" data-name="Ellipse 16" cx="13.577" cy="3.233" rx="13.577" ry="3.233" transform="translate(-1926.496 987.079)" fill="#c48163"/>
    <path id="Path_170" data-name="Path 170" d="M626.682,2533.386c0,2.6-11.666,4.7-26.058,4.7s-26.058-2.1-26.058-4.7,11.666-4.7,26.058-4.7S626.682,2530.792,626.682,2533.386Z" transform="translate(-2513.543 -1546.307)" fill="#d4a189"/>
    <g id="Group_197" data-name="Group 197" transform="translate(-1936.152 983.084)">
      <path id="Path_171" data-name="Path 171" d="M599.583,2537.122c-11.421,0-23.233-1.494-23.233-4s11.812-4,23.233-4,23.233,1.494,23.233,4S611,2537.122,599.583,2537.122Zm0-7.7c-13.724,0-22.942,1.915-22.942,3.7s9.218,3.7,22.942,3.7,22.942-1.916,22.942-3.7S613.307,2529.423,599.583,2529.423Z" transform="translate(-576.35 -2529.132)" fill="#f9f8f6"/>
    </g>
    <path id="Path_172" data-name="Path 172" d="M610.645,2532.689c0,1.55-5.9,2.805-13.186,2.805s-13.186-1.255-13.186-2.805,5.9-2.8,13.186-2.8S610.645,2531.139,610.645,2532.689Z" transform="translate(-2507.884 -1545.609)" fill="#c48163"/>
    <path id="Path_173" data-name="Path 173" d="M596.739,2539.915H595a11.291,11.291,0,0,1-11.225-10.058l-1.059-9.637h26.3l-1.059,9.637A11.291,11.291,0,0,1,596.739,2539.915Z" transform="translate(-2508.79 -1551.243)" fill="#f5cbb8"/>
    <g id="Group_198" data-name="Group 198" transform="translate(-1930.064 970.191)">
      <path id="Path_174" data-name="Path 174" d="M591.576,2533.305h-6.218a5.168,5.168,0,0,1-5.162-5.162v-1.993a5.168,5.168,0,0,1,5.162-5.163h6.218Zm-6.218-9.411a2.257,2.257,0,0,0-2.254,2.256v1.993a2.257,2.257,0,0,0,2.254,2.254h3.308v-6.5Z" transform="translate(-580.196 -2520.987)" fill="#f5cbb8"/>
    </g>
    <ellipse id="Ellipse_17" data-name="Ellipse 17" cx="13.186" cy="1.149" rx="13.186" ry="1.149" transform="translate(-1926.105 967.827)" fill="#ede0da"/>
    <path id="Path_175" data-name="Path 175" d="M788.344,2546.257H613.258a7.561,7.561,0,0,1-7.562-7.562h190.21A7.561,7.561,0,0,1,788.344,2546.257Z" transform="translate(-2495.396 -1540.473)" fill="#7381c6"/>
    <g id="Group_199" data-name="Group 199" transform="translate(-1889.927 964.125)">
      <path id="Path_176" data-name="Path 176" d="M665.022,2552.124a5.3,5.3,0,0,1-.841-.063,3.1,3.1,0,0,1-.652-.169,1.085,1.085,0,0,1-.4-.253.314.314,0,0,1-.085-.309l4.217-14.921a.463.463,0,0,1,.218-.242,1.884,1.884,0,0,1,.47-.2,4.449,4.449,0,0,1,.651-.133,6.231,6.231,0,0,1,.766-.048l63-.013h.01a5.86,5.86,0,0,1,.764.049,4.249,4.249,0,0,1,.649.131,1.916,1.916,0,0,1,.467.2.47.47,0,0,1,.22.241l4.274,14.921a.318.318,0,0,1-.086.307,1.07,1.07,0,0,1-.4.254,3.087,3.087,0,0,1-.652.169,5.29,5.29,0,0,1-.842.063l-71.747.016ZM746.2,2534.44a1.821,1.821,0,0,1-.236-.014,1.5,1.5,0,0,1-.2-.039.687.687,0,0,1-.151-.06.162.162,0,0,1-.074-.071l-.426-1.1a.063.063,0,0,1,.019-.071.246.246,0,0,1,.1-.057.82.82,0,0,1,.171-.039,1.549,1.549,0,0,1,.223-.014h7.991a1.853,1.853,0,0,1,.233.014,1.389,1.389,0,0,1,.2.04.665.665,0,0,1,.152.057.174.174,0,0,1,.079.071l.515,1.105a.063.063,0,0,1-.013.071.262.262,0,0,1-.1.06.9.9,0,0,1-.169.04,1.631,1.631,0,0,1-.226.014Zm10.517,0a1.884,1.884,0,0,1-.236-.014,1.623,1.623,0,0,1-.207-.04.718.718,0,0,1-.155-.06.172.172,0,0,1-.081-.071l-.526-1.105a.06.06,0,0,1,.011-.071.23.23,0,0,1,.1-.057.8.8,0,0,1,.168-.04,1.547,1.547,0,0,1,.222-.014H764a1.877,1.877,0,0,1,.234.014,1.484,1.484,0,0,1,.207.04.713.713,0,0,1,.157.057.193.193,0,0,1,.086.072l.613,1.1a.059.059,0,0,1-.006.073.22.22,0,0,1-.093.06.838.838,0,0,1-.166.04,1.546,1.546,0,0,1-.222.014Zm10.394,0a1.881,1.881,0,0,1-.237-.014,1.523,1.523,0,0,1-.211-.039.785.785,0,0,1-.16-.059.214.214,0,0,1-.089-.073l-.628-1.1a.06.06,0,0,1,.006-.072.205.205,0,0,1,.093-.057.729.729,0,0,1,.163-.04,1.517,1.517,0,0,1,.219-.014h7.991a1.979,1.979,0,0,1,.237.014,1.847,1.847,0,0,1,.211.038.862.862,0,0,1,.161.058.229.229,0,0,1,.09.072l.717,1.1a.059.059,0,0,1,0,.073.206.206,0,0,1-.089.059.756.756,0,0,1-.163.039,1.486,1.486,0,0,1-.22.014l-8.092,0Zm-140.046.027a1.844,1.844,0,0,1-.279-.019.927.927,0,0,1-.2-.049.253.253,0,0,1-.114-.074.076.076,0,0,1,0-.091l1.5-2.346a.285.285,0,0,1,.112-.087,1.107,1.107,0,0,1,.2-.071,2.152,2.152,0,0,1,.261-.046,2.237,2.237,0,0,1,.294-.019l7.573,0a1.783,1.783,0,0,1,.274.019.934.934,0,0,1,.2.048.257.257,0,0,1,.117.07.074.074,0,0,1,.009.087l-1.319,2.346a.248.248,0,0,1-.109.091.9.9,0,0,1-.2.074,2.119,2.119,0,0,1-.264.051,2.276,2.276,0,0,1-.3.019Zm10.383,0a1.813,1.813,0,0,1-.279-.019.925.925,0,0,1-.207-.049.27.27,0,0,1-.119-.074.077.077,0,0,1-.008-.091l1.29-2.346a.237.237,0,0,1,.1-.087.853.853,0,0,1,.193-.07,1.772,1.772,0,0,1,.256-.048,2.157,2.157,0,0,1,.291-.019h7.579a2.1,2.1,0,0,1,.272.015,1.131,1.131,0,0,1,.207.049.285.285,0,0,1,.122.07.076.076,0,0,1,.016.087l-1.1,2.346a.227.227,0,0,1-.1.091.844.844,0,0,1-.195.074,1.724,1.724,0,0,1-.258.049,2.172,2.172,0,0,1-.3.019Zm10.351,0a1.839,1.839,0,0,1-.282-.019,1,1,0,0,1-.214-.049.3.3,0,0,1-.127-.074.079.079,0,0,1-.017-.091l1.081-2.346a.226.226,0,0,1,.1-.087.918.918,0,0,1,.188-.071,1.862,1.862,0,0,1,.255-.048,2.509,2.509,0,0,1,.29-.017h7.574a1.89,1.89,0,0,1,.274.017,1.1,1.1,0,0,1,.212.047.339.339,0,0,1,.127.072.08.08,0,0,1,.024.087l-.894,2.346a.2.2,0,0,1-.092.091.81.81,0,0,1-.187.074,1.808,1.808,0,0,1-.255.049,2.211,2.211,0,0,1-.3.019l-7.76,0Zm10.338,0a1.918,1.918,0,0,1-.282-.019,1.149,1.149,0,0,1-.217-.049.331.331,0,0,1-.13-.074.085.085,0,0,1-.025-.091l.872-2.346a.192.192,0,0,1,.09-.087.814.814,0,0,1,.18-.072,1.7,1.7,0,0,1,.247-.047,2.2,2.2,0,0,1,.29-.017l9.876,0a2.206,2.206,0,0,1,.277.016,1.479,1.479,0,0,1,.217.048.377.377,0,0,1,.135.071.082.082,0,0,1,.033.087l-.638,2.346a.165.165,0,0,1-.082.09.676.676,0,0,1-.179.075,1.5,1.5,0,0,1-.249.051,2.169,2.169,0,0,1-.294.019Zm12.664,0a1.942,1.942,0,0,1-.283-.019,1.2,1.2,0,0,1-.223-.049.378.378,0,0,1-.139-.075.091.091,0,0,1-.033-.09l.616-2.346a.16.16,0,0,1,.081-.087.715.715,0,0,1,.172-.071,2.167,2.167,0,0,1,.242-.048,2.441,2.441,0,0,1,.286-.016l48.677-.011a2.284,2.284,0,0,1,.285.018,1.625,1.625,0,0,1,.241.047.651.651,0,0,1,.168.071.136.136,0,0,1,.073.087l.421,2.346a.1.1,0,0,1-.043.091.469.469,0,0,1-.147.074,1.377,1.377,0,0,1-.228.051,2.273,2.273,0,0,1-.286.018l-49.879.01Zm52.484-.011a2.41,2.41,0,0,1-.291-.018,1.477,1.477,0,0,1-.244-.051.717.717,0,0,1-.174-.073.16.16,0,0,1-.076-.091l-.442-2.346a.089.089,0,0,1,.04-.087.44.44,0,0,1,.143-.071,1.237,1.237,0,0,1,.22-.047,2.126,2.126,0,0,1,.279-.018l9.874,0a2.306,2.306,0,0,1,.286.018,1.78,1.78,0,0,1,.244.047.744.744,0,0,1,.176.072.171.171,0,0,1,.081.087l.677,2.346a.091.091,0,0,1-.033.091.385.385,0,0,1-.136.073,1.161,1.161,0,0,1-.222.051,2.205,2.205,0,0,1-.283.017l-10.118,0Zm12.893,0a2.483,2.483,0,0,1-.294-.017,1.611,1.611,0,0,1-.252-.051.775.775,0,0,1-.182-.073.193.193,0,0,1-.087-.091l-.7-2.346a.078.078,0,0,1,.029-.087.382.382,0,0,1,.133-.072,1.122,1.122,0,0,1,.217-.047,1.867,1.867,0,0,1,.277-.019h7.6a2.132,2.132,0,0,1,.288.019,1.668,1.668,0,0,1,.247.048.779.779,0,0,1,.182.072.19.19,0,0,1,.09.087l.89,2.344a.083.083,0,0,1-.024.092.34.34,0,0,1-.131.073,1.1,1.1,0,0,1-.215.051,2.234,2.234,0,0,1-.283.017l-7.79,0Zm19.833-1.475a1.862,1.862,0,0,1-.236-.014,1.422,1.422,0,0,1-.2-.04.676.676,0,0,1-.152-.057.18.18,0,0,1-.078-.07l-.518-1.078a.059.059,0,0,1,.013-.07.242.242,0,0,1,.1-.055.779.779,0,0,1,.166-.038,1.488,1.488,0,0,1,.217-.014H763.2a1.854,1.854,0,0,1,.233.014,1.486,1.486,0,0,1,.2.038.838.838,0,0,1,.155.056.2.2,0,0,1,.084.069l.6,1.078a.057.057,0,0,1-.006.07.24.24,0,0,1-.1.057.714.714,0,0,1-.163.04,1.606,1.606,0,0,1-.218.014Zm-126.976-1.624a1.931,1.931,0,0,1-.269-.017.965.965,0,0,1-.2-.046.24.24,0,0,1-.109-.071.071.071,0,0,1,0-.085l1.422-2.223a.248.248,0,0,1,.108-.083,1.019,1.019,0,0,1,.193-.068,2.115,2.115,0,0,1,.253-.044,2.427,2.427,0,0,1,.285-.017l19.39,0a1.954,1.954,0,0,1,.268.016,1.117,1.117,0,0,1,.2.046.3.3,0,0,1,.12.068.071.071,0,0,1,.017.082l-1,2.221a.2.2,0,0,1-.1.087,1.021,1.021,0,0,1-.185.07,1.807,1.807,0,0,1-.252.047,2.384,2.384,0,0,1-.29.017l-19.855,0Zm22.793,0a1.984,1.984,0,0,1-.271-.018,1,1,0,0,1-.206-.047.292.292,0,0,1-.122-.07.078.078,0,0,1-.022-.085l.978-2.222a.19.19,0,0,1,.092-.083.808.808,0,0,1,.179-.068,1.945,1.945,0,0,1,.244-.044,2.277,2.277,0,0,1,.282-.016h7.405a1.978,1.978,0,0,1,.269.016,1.037,1.037,0,0,1,.207.046.33.33,0,0,1,.128.066.077.077,0,0,1,.029.083l-.8,2.222a.2.2,0,0,1-.089.087.87.87,0,0,1-.179.07,1.7,1.7,0,0,1-.247.047,2.332,2.332,0,0,1-.287.018h-7.592Zm10.128,0a2.058,2.058,0,0,1-.275-.018,1.234,1.234,0,0,1-.212-.046.353.353,0,0,1-.13-.071.077.077,0,0,1-.025-.085l.773-2.222a.174.174,0,0,1,.084-.083.7.7,0,0,1,.174-.066,1.587,1.587,0,0,1,.241-.046,2.217,2.217,0,0,1,.28-.016h7.41a1.994,1.994,0,0,1,.269.016,1.268,1.268,0,0,1,.212.046.371.371,0,0,1,.131.066.077.077,0,0,1,.033.082l-.6,2.222a.166.166,0,0,1-.081.085.679.679,0,0,1-.172.071,1.8,1.8,0,0,1-.242.046,2.334,2.334,0,0,1-.285.018Zm10.125,0a2.169,2.169,0,0,1-.279-.018,1.35,1.35,0,0,1-.218-.046.407.407,0,0,1-.138-.071.083.083,0,0,1-.035-.085l.581-2.222a.139.139,0,0,1,.074-.082.652.652,0,0,1,.168-.066,1.741,1.741,0,0,1,.236-.046,2.235,2.235,0,0,1,.28-.016l7.4,0a2.033,2.033,0,0,1,.271.016,1.1,1.1,0,0,1,.215.046.429.429,0,0,1,.139.066.085.085,0,0,1,.04.082l-.4,2.222a.137.137,0,0,1-.071.086.639.639,0,0,1-.168.071,1.678,1.678,0,0,1-.237.046,2.048,2.048,0,0,1-.283.017l-7.582,0Zm10.118,0a1.937,1.937,0,0,1-.279-.017,1.4,1.4,0,0,1-.222-.046.453.453,0,0,1-.142-.071.093.093,0,0,1-.041-.086l.377-2.222a.13.13,0,0,1,.068-.082.646.646,0,0,1,.163-.068,1.529,1.529,0,0,1,.231-.046,2.471,2.471,0,0,1,.277-.016l7.405,0a2.34,2.34,0,0,1,.272.016,1.352,1.352,0,0,1,.222.045.5.5,0,0,1,.147.068.094.094,0,0,1,.047.082l-.2,2.222a.121.121,0,0,1-.065.085.612.612,0,0,1-.161.072,1.677,1.677,0,0,1-.234.046,2,2,0,0,1-.28.017l-7.587,0Zm10.123,0a2.217,2.217,0,0,1-.28-.017,1.3,1.3,0,0,1-.228-.048.552.552,0,0,1-.15-.07.1.1,0,0,1-.049-.087l.182-2.221a.109.109,0,0,1,.058-.082.6.6,0,0,1,.157-.068,1.543,1.543,0,0,1,.23-.045,2.441,2.441,0,0,1,.276-.016h7.4a2.457,2.457,0,0,1,.276.016,1.41,1.41,0,0,1,.223.046.516.516,0,0,1,.15.066.112.112,0,0,1,.055.082v2.222a.116.116,0,0,1-.057.087.589.589,0,0,1-.154.07,1.322,1.322,0,0,1-.23.048,2.261,2.261,0,0,1-.282.017Zm10.117,0a2.214,2.214,0,0,1-.28-.017,1.326,1.326,0,0,1-.23-.048.582.582,0,0,1-.155-.07.116.116,0,0,1-.057-.087l-.022-2.222a.108.108,0,0,1,.055-.082.506.506,0,0,1,.149-.066,1.43,1.43,0,0,1,.225-.046,2.427,2.427,0,0,1,.274-.016l7.4,0a2.593,2.593,0,0,1,.277.016,1.569,1.569,0,0,1,.23.046.581.581,0,0,1,.157.066.116.116,0,0,1,.063.082l.2,2.222a.1.1,0,0,1-.049.087.514.514,0,0,1-.147.07,1.285,1.285,0,0,1-.228.047,2.175,2.175,0,0,1-.282.018l-7.582,0Zm10.123,0a2.239,2.239,0,0,1-.283-.018,1.592,1.592,0,0,1-.236-.045.618.618,0,0,1-.163-.072.124.124,0,0,1-.065-.085l-.222-2.222a.1.1,0,0,1,.049-.082.478.478,0,0,1,.146-.066,1.372,1.372,0,0,1,.221-.046,2.458,2.458,0,0,1,.272-.016h7.4a2.624,2.624,0,0,1,.279.016,1.628,1.628,0,0,1,.231.046.665.665,0,0,1,.163.066.143.143,0,0,1,.07.083l.4,2.222a.092.092,0,0,1-.041.085.441.441,0,0,1-.143.071,1.3,1.3,0,0,1-.22.046,1.9,1.9,0,0,1-.279.018Zm10.117,0a2,2,0,0,1-.283-.018,1.649,1.649,0,0,1-.239-.046.662.662,0,0,1-.166-.071.144.144,0,0,1-.073-.085l-.419-2.222a.087.087,0,0,1,.04-.083.427.427,0,0,1,.138-.066,1.311,1.311,0,0,1,.215-.046,2.434,2.434,0,0,1,.272-.016h7.4a2.651,2.651,0,0,1,.279.016,1.769,1.769,0,0,1,.237.046.71.71,0,0,1,.171.066.157.157,0,0,1,.078.083l.6,2.222a.084.084,0,0,1-.035.085.39.39,0,0,1-.138.071,1.3,1.3,0,0,1-.217.046,2.127,2.127,0,0,1-.279.018Zm10.123,0a2.339,2.339,0,0,1-.288-.018,1.881,1.881,0,0,1-.244-.046.7.7,0,0,1-.174-.071.158.158,0,0,1-.081-.085l-.619-2.222a.081.081,0,0,1,.033-.083.382.382,0,0,1,.133-.068,1.165,1.165,0,0,1,.214-.045,2.072,2.072,0,0,1,.271-.017h7.411a2.3,2.3,0,0,1,.279.017,1.594,1.594,0,0,1,.236.045.83.83,0,0,1,.172.066.181.181,0,0,1,.084.082l.795,2.223a.077.077,0,0,1-.025.085.344.344,0,0,1-.13.071,1.2,1.2,0,0,1-.212.046,2.039,2.039,0,0,1-.274.017l-7.581,0Zm10.115,0a2.332,2.332,0,0,1-.287-.017,1.7,1.7,0,0,1-.247-.048.736.736,0,0,1-.18-.07.187.187,0,0,1-.087-.085l-.817-2.223a.073.073,0,0,1,.025-.082.334.334,0,0,1,.125-.068,1.047,1.047,0,0,1,.207-.045,1.965,1.965,0,0,1,.269-.018h7.4a2.3,2.3,0,0,1,.283.018,1.771,1.771,0,0,1,.245.044.949.949,0,0,1,.182.068.213.213,0,0,1,.093.082l.992,2.221a.074.074,0,0,1-.019.087.329.329,0,0,1-.123.07,1.04,1.04,0,0,1-.211.047,2.017,2.017,0,0,1-.274.017l-7.581,0Zm10.121,0a2.4,2.4,0,0,1-.29-.017,1.735,1.735,0,0,1-.252-.047,1,1,0,0,1-.189-.07.222.222,0,0,1-.1-.087l-1.016-2.223a.07.07,0,0,1,.019-.082.306.306,0,0,1,.122-.067,1.05,1.05,0,0,1,.2-.044,1.963,1.963,0,0,1,.269-.018l19.548,0a2.421,2.421,0,0,1,.287.017,1.747,1.747,0,0,1,.253.044.975.975,0,0,1,.2.067.273.273,0,0,1,.109.082l1.437,2.222a.072.072,0,0,1,0,.086.258.258,0,0,1-.111.071,1.08,1.08,0,0,1-.2.046,2.075,2.075,0,0,1-.271.017l-20.018,0Zm-122.129-2.933a1.821,1.821,0,0,1-.263-.017.854.854,0,0,1-.195-.044.232.232,0,0,1-.108-.066.062.062,0,0,1,0-.081l1.349-2.11a.258.258,0,0,1,.1-.079.949.949,0,0,1,.188-.063,2.023,2.023,0,0,1,.245-.045,2.771,2.771,0,0,1,.279-.016l14.1,0a2.08,2.08,0,0,1,.259.016,1.186,1.186,0,0,1,.2.043.292.292,0,0,1,.115.065.063.063,0,0,1,.014.077l-1.045,2.11a.215.215,0,0,1-.1.081.855.855,0,0,1-.184.066,1.724,1.724,0,0,1-.245.045,2.275,2.275,0,0,1-.282.017l-14.432,0Zm16.744,0a1.919,1.919,0,0,1-.266-.017,1,1,0,0,1-.2-.045.3.3,0,0,1-.12-.066.066.066,0,0,1-.016-.081l1.027-2.11a.211.211,0,0,1,.093-.079.846.846,0,0,1,.18-.063,1.6,1.6,0,0,1,.241-.043,2.175,2.175,0,0,1,.275-.016h7.216a1.834,1.834,0,0,1,.26.016,1.093,1.093,0,0,1,.2.043.325.325,0,0,1,.12.065.067.067,0,0,1,.022.078l-.859,2.11a.19.19,0,0,1-.089.081.8.8,0,0,1-.177.066,1.626,1.626,0,0,1-.241.044,2.349,2.349,0,0,1-.282.017l-7.384,0Zm9.855,0a2,2,0,0,1-.267-.017,1.219,1.219,0,0,1-.206-.044.324.324,0,0,1-.122-.068.07.07,0,0,1-.024-.081l.839-2.109a.173.173,0,0,1,.085-.078.761.761,0,0,1,.173-.065,1.7,1.7,0,0,1,.234-.043,2.149,2.149,0,0,1,.274-.016l7.215,0a1.9,1.9,0,0,1,.264.016,1.165,1.165,0,0,1,.206.042.378.378,0,0,1,.128.065.071.071,0,0,1,.029.078l-.67,2.109a.162.162,0,0,1-.082.081.732.732,0,0,1-.172.068,1.6,1.6,0,0,1-.239.044,2.293,2.293,0,0,1-.28.018Zm9.859,0a2.02,2.02,0,0,1-.269-.018,1.13,1.13,0,0,1-.211-.044.377.377,0,0,1-.131-.068.073.073,0,0,1-.03-.081l.649-2.11a.162.162,0,0,1,.079-.078.706.706,0,0,1,.168-.063,1.427,1.427,0,0,1,.234-.042,2.107,2.107,0,0,1,.272-.016h7.215a1.92,1.92,0,0,1,.264.016,1.064,1.064,0,0,1,.207.042.385.385,0,0,1,.133.063.08.08,0,0,1,.036.078l-.483,2.11a.139.139,0,0,1-.073.081.682.682,0,0,1-.166.068,1.54,1.54,0,0,1-.233.044,2.227,2.227,0,0,1-.279.018Zm9.855,0a2.4,2.4,0,0,1-.271-.016,1.319,1.319,0,0,1-.214-.046.4.4,0,0,1-.135-.067.082.082,0,0,1-.038-.081l.462-2.11a.132.132,0,0,1,.07-.078.656.656,0,0,1,.161-.063,1.369,1.369,0,0,1,.228-.042,2.066,2.066,0,0,1,.271-.016l7.215,0a1.957,1.957,0,0,1,.266.016,1.162,1.162,0,0,1,.214.042.441.441,0,0,1,.139.063.089.089,0,0,1,.044.077l-.293,2.11a.13.13,0,0,1-.068.081.638.638,0,0,1-.162.067,1.581,1.581,0,0,1-.231.046,2.51,2.51,0,0,1-.277.016l-7.383,0Zm9.859,0a2.376,2.376,0,0,1-.272-.016,1.379,1.379,0,0,1-.22-.046.45.45,0,0,1-.142-.067.09.09,0,0,1-.046-.081l.272-2.11a.127.127,0,0,1,.065-.077.6.6,0,0,1,.158-.063,1.326,1.326,0,0,1,.225-.042,2.065,2.065,0,0,1,.271-.016H694.6a2.277,2.277,0,0,1,.268.016,1.3,1.3,0,0,1,.215.042.475.475,0,0,1,.144.063.1.1,0,0,1,.049.079l-.1,2.109a.112.112,0,0,1-.058.082.546.546,0,0,1-.154.065,1.469,1.469,0,0,1-.225.046,2.421,2.421,0,0,1-.275.016Zm9.852,0a2.363,2.363,0,0,1-.272-.016,1.387,1.387,0,0,1-.222-.046.494.494,0,0,1-.147-.065.106.106,0,0,1-.052-.082l.084-2.109a.111.111,0,0,1,.057-.079.589.589,0,0,1,.15-.065,1.59,1.59,0,0,1,.22-.043,2.4,2.4,0,0,1,.268-.016h7.215a2.394,2.394,0,0,1,.268.016,1.428,1.428,0,0,1,.222.045.54.54,0,0,1,.152.063.11.11,0,0,1,.057.079l.084,2.109a.1.1,0,0,1-.052.082.509.509,0,0,1-.149.064,1.377,1.377,0,0,1-.223.046,2.393,2.393,0,0,1-.274.016Zm9.859,0a2.445,2.445,0,0,1-.276-.016,1.421,1.421,0,0,1-.226-.046.553.553,0,0,1-.155-.066.115.115,0,0,1-.06-.083l-.1-2.107a.1.1,0,0,1,.051-.079.476.476,0,0,1,.146-.063,1.353,1.353,0,0,1,.217-.045,2.391,2.391,0,0,1,.268-.016l7.215,0a2.384,2.384,0,0,1,.269.016,1.508,1.508,0,0,1,.223.044.573.573,0,0,1,.155.064.116.116,0,0,1,.063.079l.274,2.107a.093.093,0,0,1-.044.082.455.455,0,0,1-.142.067,1.285,1.285,0,0,1-.217.046,2.379,2.379,0,0,1-.272.016l-7.383,0Zm9.852,0a2.5,2.5,0,0,1-.276-.016,1.537,1.537,0,0,1-.23-.046.61.61,0,0,1-.16-.067.123.123,0,0,1-.065-.082l-.295-2.109a.087.087,0,0,1,.044-.077.41.41,0,0,1,.138-.064,1.31,1.31,0,0,1,.212-.044,2.258,2.258,0,0,1,.264-.016l7.215,0a2.411,2.411,0,0,1,.271.016,1.915,1.915,0,0,1,.23.043.694.694,0,0,1,.161.063c.041.025.067.051.071.079l.462,2.109a.081.081,0,0,1-.038.082.413.413,0,0,1-.136.067,1.34,1.34,0,0,1-.215.046,2.38,2.38,0,0,1-.272.016Zm9.858,0a2.5,2.5,0,0,1-.278-.016,1.75,1.75,0,0,1-.236-.044.662.662,0,0,1-.166-.067.144.144,0,0,1-.074-.082l-.483-2.109a.081.081,0,0,1,.038-.079.413.413,0,0,1,.133-.063,1.479,1.479,0,0,1,.211-.043,2.255,2.255,0,0,1,.264-.016h7.214a2.443,2.443,0,0,1,.272.016,1.946,1.946,0,0,1,.231.043.671.671,0,0,1,.166.065.146.146,0,0,1,.078.077l.651,2.109a.077.077,0,0,1-.029.082.375.375,0,0,1-.13.067,1.274,1.274,0,0,1-.211.046,2.234,2.234,0,0,1-.268.016Zm9.851,0a2.208,2.208,0,0,1-.279-.016,1.827,1.827,0,0,1-.237-.044.759.759,0,0,1-.171-.067.165.165,0,0,1-.081-.082l-.671-2.109a.073.073,0,0,1,.03-.077.346.346,0,0,1,.127-.065,1.333,1.333,0,0,1,.2-.043,2.21,2.21,0,0,1,.263-.016h7.213a2.492,2.492,0,0,1,.274.016,2.13,2.13,0,0,1,.237.043.836.836,0,0,1,.173.065.167.167,0,0,1,.086.077l.841,2.109a.074.074,0,0,1-.024.082.342.342,0,0,1-.127.067,1.16,1.16,0,0,1-.206.044,2.018,2.018,0,0,1-.269.016l-7.383,0Zm9.857,0a2.3,2.3,0,0,1-.28-.016,1.948,1.948,0,0,1-.244-.044.806.806,0,0,1-.179-.067.187.187,0,0,1-.089-.082l-.859-2.109a.067.067,0,0,1,.024-.077.3.3,0,0,1,.122-.065,1.16,1.16,0,0,1,.2-.043,1.859,1.859,0,0,1,.261-.016h7.223a2.126,2.126,0,0,1,.272.016,1.573,1.573,0,0,1,.236.043.839.839,0,0,1,.176.063.2.2,0,0,1,.09.078l1.027,2.109a.07.07,0,0,1-.014.082.3.3,0,0,1-.119.066,1.071,1.071,0,0,1-.2.045,2.014,2.014,0,0,1-.266.016l-7.383,0Zm10.034,0a2.4,2.4,0,0,1-.283-.016,2,2,0,0,1-.247-.045.914.914,0,0,1-.185-.068.215.215,0,0,1-.1-.081l-1.051-2.109a.066.066,0,0,1,.016-.078.3.3,0,0,1,.117-.065,1.037,1.037,0,0,1,.2-.043,1.857,1.857,0,0,1,.261-.016l14.579,0a2.309,2.309,0,0,1,.278.016,2.114,2.114,0,0,1,.247.042,1.128,1.128,0,0,1,.19.065.253.253,0,0,1,.1.078l1.36,2.11a.065.065,0,0,1,0,.081.242.242,0,0,1-.108.066.918.918,0,0,1-.2.044,1.892,1.892,0,0,1-.263.017Zm-123.59-2.783a1.788,1.788,0,0,1-.256-.016.963.963,0,0,1-.19-.043.236.236,0,0,1-.1-.063.062.062,0,0,1,0-.077l1.281-2a.247.247,0,0,1,.1-.074.872.872,0,0,1,.182-.06,1.626,1.626,0,0,1,.239-.041,2.1,2.1,0,0,1,.271-.016h11.516a1.728,1.728,0,0,1,.253.016,1.028,1.028,0,0,1,.192.039.291.291,0,0,1,.112.06.061.061,0,0,1,.013.074l-1.035,2.006a.217.217,0,0,1-.093.077.936.936,0,0,1-.179.063,1.958,1.958,0,0,1-.241.042,2.318,2.318,0,0,1-.274.016l-11.782,0Zm14.365,0a1.956,1.956,0,0,1-.26-.016,1.114,1.114,0,0,1-.2-.042.318.318,0,0,1-.116-.063.067.067,0,0,1-.017-.077l1.019-2.006a.2.2,0,0,1,.09-.074.875.875,0,0,1,.174-.06,1.777,1.777,0,0,1,.233-.041,2.49,2.49,0,0,1,.269-.016l7.036,0a2.116,2.116,0,0,1,.255.016,1.118,1.118,0,0,1,.2.041.326.326,0,0,1,.119.06.064.064,0,0,1,.021.076l-.858,2a.18.18,0,0,1-.085.077.882.882,0,0,1-.174.063,2.088,2.088,0,0,1-.236.043,2.635,2.635,0,0,1-.274.014Zm9.6,0a1.909,1.909,0,0,1-.26-.016.957.957,0,0,1-.2-.043.3.3,0,0,1-.12-.063.064.064,0,0,1-.021-.077l.833-2a.175.175,0,0,1,.084-.076.839.839,0,0,1,.168-.06,1.745,1.745,0,0,1,.231-.041,2.428,2.428,0,0,1,.266-.016h7.041a2.148,2.148,0,0,1,.256.016,1.115,1.115,0,0,1,.2.042.342.342,0,0,1,.123.062.069.069,0,0,1,.027.074l-.674,2a.157.157,0,0,1-.079.078.722.722,0,0,1-.168.063,1.742,1.742,0,0,1-.233.044,2.522,2.522,0,0,1-.272.016Zm9.608,0a2.258,2.258,0,0,1-.263-.016,1.178,1.178,0,0,1-.2-.044.348.348,0,0,1-.127-.063.073.073,0,0,1-.032-.078l.66-2a.143.143,0,0,1,.076-.075.621.621,0,0,1,.163-.06,1.625,1.625,0,0,1,.226-.042,2.407,2.407,0,0,1,.266-.016h7.036a2.185,2.185,0,0,1,.256.014,1.222,1.222,0,0,1,.2.041.425.425,0,0,1,.13.06.074.074,0,0,1,.035.075l-.5,2a.145.145,0,0,1-.073.078.7.7,0,0,1-.163.063,1.709,1.709,0,0,1-.228.044,2.474,2.474,0,0,1-.271.016Zm9.6,0a2.257,2.257,0,0,1-.264-.016,1.211,1.211,0,0,1-.206-.042.385.385,0,0,1-.131-.063.076.076,0,0,1-.036-.078l.477-2a.13.13,0,0,1,.07-.075.725.725,0,0,1,.158-.06,1.549,1.549,0,0,1,.222-.041,2.389,2.389,0,0,1,.264-.014h7.041a2.181,2.181,0,0,1,.258.014,1.19,1.19,0,0,1,.206.042.442.442,0,0,1,.133.06c.032.024.046.048.041.075l-.315,2a.127.127,0,0,1-.067.078.613.613,0,0,1-.155.063,1.555,1.555,0,0,1-.225.043,2.385,2.385,0,0,1-.269.016Zm9.607,0a2.256,2.256,0,0,1-.264-.016,1.313,1.313,0,0,1-.214-.043.438.438,0,0,1-.138-.063c-.032-.024-.047-.049-.043-.078l.3-2c0-.027.025-.051.063-.075a.622.622,0,0,1,.152-.06,1.472,1.472,0,0,1,.218-.042,2.3,2.3,0,0,1,.263-.014h7.036a2.156,2.156,0,0,1,.26.014,1.365,1.365,0,0,1,.212.041.529.529,0,0,1,.141.06.094.094,0,0,1,.048.074l-.141,2a.108.108,0,0,1-.059.078.567.567,0,0,1-.152.063,1.261,1.261,0,0,1-.22.042,2.28,2.28,0,0,1-.267.016Zm9.6,0a2.268,2.268,0,0,1-.266-.016,1.185,1.185,0,0,1-.214-.042.476.476,0,0,1-.142-.063.094.094,0,0,1-.049-.078l.116-2a.11.11,0,0,1,.057-.074.551.551,0,0,1,.147-.06,1.453,1.453,0,0,1,.215-.041,1.921,1.921,0,0,1,.261-.016h7.049a1.858,1.858,0,0,1,.258.016,1.4,1.4,0,0,1,.211.04.491.491,0,0,1,.143.062.1.1,0,0,1,.054.073l.043,2.006a.1.1,0,0,1-.052.076.494.494,0,0,1-.146.064,1.226,1.226,0,0,1-.215.042,2.283,2.283,0,0,1-.268.016Zm9.608,0a2.31,2.31,0,0,1-.269-.016,1.484,1.484,0,0,1-.22-.042.551.551,0,0,1-.15-.064c-.035-.024-.055-.049-.055-.076l-.059-2.006a.1.1,0,0,1,.051-.074.523.523,0,0,1,.141-.06,1.312,1.312,0,0,1,.212-.041,2.145,2.145,0,0,1,.26-.016h7.035a2.2,2.2,0,0,1,.263.016,1.416,1.416,0,0,1,.217.041.634.634,0,0,1,.15.06.116.116,0,0,1,.06.074l.223,2a.094.094,0,0,1-.046.078.442.442,0,0,1-.139.063,1.3,1.3,0,0,1-.212.043,1.979,1.979,0,0,1-.266.016l-7.194,0Zm9.6,0a2.021,2.021,0,0,1-.268-.016,1.5,1.5,0,0,1-.223-.043.586.586,0,0,1-.154-.063.119.119,0,0,1-.063-.078l-.242-2.006a.082.082,0,0,1,.044-.073.485.485,0,0,1,.136-.06,1.249,1.249,0,0,1,.207-.041,2.121,2.121,0,0,1,.26-.016h7.039a2.281,2.281,0,0,1,.261.014,1.522,1.522,0,0,1,.221.041.549.549,0,0,1,.155.06.12.12,0,0,1,.068.074l.4,2a.079.079,0,0,1-.038.078.407.407,0,0,1-.135.063,1.218,1.218,0,0,1-.209.043,1.9,1.9,0,0,1-.263.016Zm9.607,0a2.025,2.025,0,0,1-.271-.016,1.655,1.655,0,0,1-.228-.041.7.7,0,0,1-.161-.063.133.133,0,0,1-.07-.078l-.416-2c-.008-.027.006-.052.035-.074a.352.352,0,0,1,.13-.06,1.231,1.231,0,0,1,.206-.041,2.181,2.181,0,0,1,.258-.014h7.035a2.306,2.306,0,0,1,.266.014,1.552,1.552,0,0,1,.223.041.752.752,0,0,1,.161.06.142.142,0,0,1,.073.074l.581,2a.074.074,0,0,1-.03.077.385.385,0,0,1-.128.063,1.08,1.08,0,0,1-.206.043,1.849,1.849,0,0,1-.261.016Zm9.6,0a2.474,2.474,0,0,1-.272-.015,1.915,1.915,0,0,1-.23-.043.726.726,0,0,1-.165-.063.152.152,0,0,1-.078-.077l-.6-2a.069.069,0,0,1,.03-.074.376.376,0,0,1,.125-.06,1.137,1.137,0,0,1,.2-.041,2.04,2.04,0,0,1,.255-.014l7.039,0a2.394,2.394,0,0,1,.264.014,1.657,1.657,0,0,1,.228.042.776.776,0,0,1,.168.06.152.152,0,0,1,.081.074l.762,2a.07.07,0,0,1-.025.077.353.353,0,0,1-.123.063,1.312,1.312,0,0,1-.2.043,2.223,2.223,0,0,1-.263.014l-7.194,0Zm9.605,0a2.528,2.528,0,0,1-.274-.014,2.173,2.173,0,0,1-.236-.043.88.88,0,0,1-.173-.063.176.176,0,0,1-.084-.077l-.779-2a.062.062,0,0,1,.024-.074.318.318,0,0,1,.122-.062,1.085,1.085,0,0,1,.2-.042,2.195,2.195,0,0,1,.255-.014h7.044a2.475,2.475,0,0,1,.264.014,1.657,1.657,0,0,1,.228.042.846.846,0,0,1,.169.06.2.2,0,0,1,.087.075l.94,2a.066.066,0,0,1-.018.077.332.332,0,0,1-.117.063,1.265,1.265,0,0,1-.2.043,2.181,2.181,0,0,1-.26.016Zm9.6,0a2.581,2.581,0,0,1-.274-.016,2.179,2.179,0,0,1-.237-.043.908.908,0,0,1-.177-.063.2.2,0,0,1-.09-.077l-.959-2a.063.063,0,0,1,.017-.075.32.32,0,0,1,.114-.061,1.318,1.318,0,0,1,.193-.042,2.162,2.162,0,0,1,.253-.014h7.035a2.583,2.583,0,0,1,.269.016,1.908,1.908,0,0,1,.237.042.987.987,0,0,1,.179.06.228.228,0,0,1,.094.074l1.119,2a.061.061,0,0,1-.011.078.258.258,0,0,1-.111.063,1.031,1.031,0,0,1-.195.044,2.134,2.134,0,0,1-.261.016Zm9.507,0a2.6,2.6,0,0,1-.277-.016,1.972,1.972,0,0,1-.242-.044.891.891,0,0,1-.184-.063.2.2,0,0,1-.1-.078l-1.137-2a.061.061,0,0,1,.011-.074.285.285,0,0,1,.111-.06.986.986,0,0,1,.19-.042,2.146,2.146,0,0,1,.253-.016l7.035,0a2.516,2.516,0,0,1,.269.016,2.2,2.2,0,0,1,.239.04,1.01,1.01,0,0,1,.182.06.232.232,0,0,1,.1.076l1.3,2a.064.064,0,0,1,0,.079.254.254,0,0,1-.1.063,1.107,1.107,0,0,1-.19.042,2.011,2.011,0,0,1-.256.016l-7.195,0Zm-127.832-2.644a1.927,1.927,0,0,1-.25-.014,1.056,1.056,0,0,1-.187-.039.25.25,0,0,1-.1-.06.057.057,0,0,1,0-.074l1.219-1.907a.232.232,0,0,1,.1-.071.9.9,0,0,1,.177-.057,1.888,1.888,0,0,1,.233-.039,2.3,2.3,0,0,1,.264-.014l6.865,0a1.891,1.891,0,0,1,.247.014.973.973,0,0,1,.187.039.286.286,0,0,1,.109.057.056.056,0,0,1,.011.071l-1.065,1.907a.218.218,0,0,1-.1.073,1,1,0,0,1-.179.06,1.83,1.83,0,0,1-.236.041,2.393,2.393,0,0,1-.269.016Zm9.371,0a1.956,1.956,0,0,1-.253-.016,1.041,1.041,0,0,1-.192-.041.3.3,0,0,1-.111-.06.057.057,0,0,1-.013-.073l1.048-1.907a.2.2,0,0,1,.092-.071.914.914,0,0,1,.174-.059,1.981,1.981,0,0,1,.23-.038,2.285,2.285,0,0,1,.263-.014h6.865a1.964,1.964,0,0,1,.248.014.981.981,0,0,1,.188.04.276.276,0,0,1,.112.057.059.059,0,0,1,.019.071l-.9,1.907a.182.182,0,0,1-.087.073.738.738,0,0,1-.171.06,1.753,1.753,0,0,1-.231.041,2.378,2.378,0,0,1-.268.016l-7.017,0Zm9.357,0a1.928,1.928,0,0,1-.25-.016,1,1,0,0,1-.19-.039.319.319,0,0,1-.114-.06.063.063,0,0,1-.017-.073l.879-1.907a.175.175,0,0,1,.084-.071.839.839,0,0,1,.166-.059,1.947,1.947,0,0,1,.225-.038,2.293,2.293,0,0,1,.261-.014h6.865a2.027,2.027,0,0,1,.25.014,1.069,1.069,0,0,1,.193.04.319.319,0,0,1,.12.057.062.062,0,0,1,.025.071l-.727,1.907a.161.161,0,0,1-.081.073.747.747,0,0,1-.168.06,1.738,1.738,0,0,1-.23.041,2.315,2.315,0,0,1-.266.016h-7.027Zm9.379,0a2.065,2.065,0,0,1-.256-.014,1.114,1.114,0,0,1-.2-.041.358.358,0,0,1-.122-.06.065.065,0,0,1-.025-.073l.708-1.907a.149.149,0,0,1,.078-.071.669.669,0,0,1,.163-.057,1.6,1.6,0,0,1,.223-.04,2.278,2.278,0,0,1,.261-.014h6.864a1.991,1.991,0,0,1,.252.014,1.117,1.117,0,0,1,.195.039.351.351,0,0,1,.123.057.066.066,0,0,1,.03.072l-.556,1.907a.14.14,0,0,1-.073.073.688.688,0,0,1-.16.06,1.574,1.574,0,0,1-.225.042,2.274,2.274,0,0,1-.264.014Zm9.365,0a2.062,2.062,0,0,1-.256-.014,1.11,1.11,0,0,1-.2-.042.356.356,0,0,1-.125-.06.07.07,0,0,1-.032-.073l.537-1.907a.139.139,0,0,1,.071-.072.641.641,0,0,1,.157-.057,1.522,1.522,0,0,1,.218-.039,2.168,2.168,0,0,1,.258-.014H679.3a2.005,2.005,0,0,1,.252.014,1.18,1.18,0,0,1,.2.038.43.43,0,0,1,.13.057.076.076,0,0,1,.038.072l-.385,1.907a.137.137,0,0,1-.068.075.641.641,0,0,1-.157.058,1.558,1.558,0,0,1-.222.041,2.389,2.389,0,0,1-.264.014l-7.017,0Zm9.369,0a2.192,2.192,0,0,1-.258-.014,1.22,1.22,0,0,1-.206-.041.408.408,0,0,1-.133-.058c-.03-.024-.044-.048-.04-.075l.367-1.907a.12.12,0,0,1,.065-.072.62.62,0,0,1,.154-.057,1.471,1.471,0,0,1,.215-.04,2.218,2.218,0,0,1,.258-.014h6.865a2.209,2.209,0,0,1,.253.014,1.274,1.274,0,0,1,.2.04.468.468,0,0,1,.133.057c.03.022.046.046.043.072l-.214,1.907c0,.027-.024.051-.06.074a.569.569,0,0,1-.15.059,1.473,1.473,0,0,1-.217.041,2.307,2.307,0,0,1-.261.014Zm9.365,0a2.244,2.244,0,0,1-.26-.014,1.3,1.3,0,0,1-.207-.041.464.464,0,0,1-.136-.06c-.032-.024-.047-.047-.044-.074l.195-1.906a.111.111,0,0,1,.059-.072.6.6,0,0,1,.146-.057,1.414,1.414,0,0,1,.212-.04,2.257,2.257,0,0,1,.255-.014l6.865,0a2.255,2.255,0,0,1,.255.014,1.343,1.343,0,0,1,.207.04.53.53,0,0,1,.141.057c.032.022.051.046.049.07l-.043,1.907c0,.027-.021.052-.055.075a.575.575,0,0,1-.146.06,1.47,1.47,0,0,1-.214.041,2.245,2.245,0,0,1-.263.016Zm9.36,0a2.165,2.165,0,0,1-.258-.016,1.6,1.6,0,0,1-.211-.04.533.533,0,0,1-.141-.06c-.033-.024-.052-.048-.051-.075l.024-1.907c0-.023.019-.047.054-.07a.552.552,0,0,1,.141-.058,1.663,1.663,0,0,1,.211-.038,2.254,2.254,0,0,1,.255-.014l6.865,0a2.2,2.2,0,0,1,.255.014,1.315,1.315,0,0,1,.209.04.535.535,0,0,1,.144.057.1.1,0,0,1,.055.071l.128,1.907a.089.089,0,0,1-.047.073.483.483,0,0,1-.139.06,1.293,1.293,0,0,1-.209.041,2.193,2.193,0,0,1-.26.016h-7.025Zm9.373,0a2.251,2.251,0,0,1-.263-.016,1.451,1.451,0,0,1-.214-.04.57.57,0,0,1-.147-.06.107.107,0,0,1-.059-.073l-.146-1.907a.085.085,0,0,1,.046-.071.451.451,0,0,1,.136-.057,1.216,1.216,0,0,1,.2-.04,2.145,2.145,0,0,1,.253-.014h6.864c.09,0,.177.007.258.014a1.8,1.8,0,0,1,.215.039.648.648,0,0,1,.149.057c.038.022.06.046.063.071l.3,1.907a.078.078,0,0,1-.041.073.466.466,0,0,1-.135.06,1.311,1.311,0,0,1-.207.041,2.191,2.191,0,0,1-.26.014Zm9.368,0a2.313,2.313,0,0,1-.264-.014,1.576,1.576,0,0,1-.22-.041.656.656,0,0,1-.154-.06.12.12,0,0,1-.065-.073l-.317-1.907c0-.025.011-.049.04-.071a.478.478,0,0,1,.133-.057,1.425,1.425,0,0,1,.2-.039,2.455,2.455,0,0,1,.252-.014h6.865c.09,0,.177.005.258.013a1.748,1.748,0,0,1,.215.04.659.659,0,0,1,.153.057.13.13,0,0,1,.07.071l.469,1.908a.072.072,0,0,1-.035.073.373.373,0,0,1-.128.06,1.174,1.174,0,0,1-.2.041,2.113,2.113,0,0,1-.256.014Zm9.363,0a2.333,2.333,0,0,1-.264-.014,1.552,1.552,0,0,1-.221-.041.635.635,0,0,1-.158-.06.142.142,0,0,1-.071-.073l-.486-1.908a.068.068,0,0,1,.033-.071.384.384,0,0,1,.125-.057,1.13,1.13,0,0,1,.2-.04,2.054,2.054,0,0,1,.252-.014h6.864a2.212,2.212,0,0,1,.26.014,1.614,1.614,0,0,1,.222.04.764.764,0,0,1,.161.057.149.149,0,0,1,.074.071l.639,1.908a.066.066,0,0,1-.029.074.353.353,0,0,1-.124.059,1.132,1.132,0,0,1-.2.041,2.117,2.117,0,0,1-.257.014Zm9.368,0a2.379,2.379,0,0,1-.266-.014,1.624,1.624,0,0,1-.228-.041.754.754,0,0,1-.165-.06.157.157,0,0,1-.079-.074l-.657-1.906a.064.064,0,0,1,.029-.071.347.347,0,0,1,.12-.057,1.1,1.1,0,0,1,.2-.04,1.96,1.96,0,0,1,.25-.014l6.864,0a2.214,2.214,0,0,1,.26.014,1.884,1.884,0,0,1,.225.039.7.7,0,0,1,.163.059.17.17,0,0,1,.082.069l.809,1.906a.063.063,0,0,1-.021.074.344.344,0,0,1-.117.06,1.035,1.035,0,0,1-.2.041,1.992,1.992,0,0,1-.253.014l-7.016,0Zm9.363,0a2.333,2.333,0,0,1-.268-.014,1.61,1.61,0,0,1-.229-.041.853.853,0,0,1-.169-.06.178.178,0,0,1-.084-.074l-.828-1.906a.059.059,0,0,1,.021-.071.3.3,0,0,1,.116-.057.989.989,0,0,1,.19-.039,1.933,1.933,0,0,1,.248-.014H752.6a2.239,2.239,0,0,1,.261.014,1.663,1.663,0,0,1,.23.039.8.8,0,0,1,.171.057.186.186,0,0,1,.087.071l.981,1.908a.059.059,0,0,1-.016.073.3.3,0,0,1-.112.06,1.019,1.019,0,0,1-.193.041,2.045,2.045,0,0,1-.253.016Zm9.145,0a2.424,2.424,0,0,1-.268-.016,2.144,2.144,0,0,1-.233-.04.914.914,0,0,1-.174-.06.209.209,0,0,1-.09-.073l-.994-1.908a.055.055,0,0,1,.014-.071.257.257,0,0,1,.109-.057.953.953,0,0,1,.187-.039,1.911,1.911,0,0,1,.247-.014H766.2a2.343,2.343,0,0,1,.263.014,1.753,1.753,0,0,1,.233.04.915.915,0,0,1,.177.057.227.227,0,0,1,.1.072l1.233,1.906a.058.058,0,0,1,0,.073.241.241,0,0,1-.1.062,1.078,1.078,0,0,1-.185.039,1.97,1.97,0,0,1-.25.016l-11.777,0Zm-120.294-2.484a1.846,1.846,0,0,1-.242-.014,1.023,1.023,0,0,1-.179-.038.248.248,0,0,1-.1-.058.054.054,0,0,1,0-.07l.621-.969a.228.228,0,0,1,.1-.07,1.015,1.015,0,0,1,.176-.055,2.016,2.016,0,0,1,.231-.038,2.23,2.23,0,0,1,.26-.015h7.46a1.906,1.906,0,0,1,.242.014,1.055,1.055,0,0,1,.184.038.27.27,0,0,1,.106.055.054.054,0,0,1,.013.068l-.538.972a.205.205,0,0,1-.089.07.965.965,0,0,1-.173.057,2,2,0,0,1-.228.038,2.3,2.3,0,0,1-.261.014h-7.571Zm9.792,0a1.778,1.778,0,0,1-.241-.016.927.927,0,0,1-.182-.038.248.248,0,0,1-.1-.057.055.055,0,0,1-.013-.068l.529-.972a.2.2,0,0,1,.089-.068.913.913,0,0,1,.169-.055,2.072,2.072,0,0,1,.228-.038,2.293,2.293,0,0,1,.258-.014h7.46a2.275,2.275,0,0,1,.244.014,1.164,1.164,0,0,1,.187.038.327.327,0,0,1,.112.055.056.056,0,0,1,.017.07l-.443.97a.186.186,0,0,1-.084.07.81.81,0,0,1-.168.057,1.66,1.66,0,0,1-.226.038,2.239,2.239,0,0,1-.261.014h-7.571Zm9.811,0a1.936,1.936,0,0,1-.249-.014,1,1,0,0,1-.188-.038.3.3,0,0,1-.114-.057.057.057,0,0,1-.019-.07l.435-.97a.166.166,0,0,1,.081-.07.868.868,0,0,1,.163-.055,1.934,1.934,0,0,1,.222-.038c.081-.008.168-.014.256-.014h7.464a2.3,2.3,0,0,1,.247.012,1.214,1.214,0,0,1,.19.038.358.358,0,0,1,.117.055.06.06,0,0,1,.025.07l-.351.969a.135.135,0,0,1-.078.07.735.735,0,0,1-.161.059,1.6,1.6,0,0,1-.223.038,2.2,2.2,0,0,1-.26.014l-7.557,0Zm9.8,0a1.981,1.981,0,0,1-.25-.014,1.126,1.126,0,0,1-.195-.038.351.351,0,0,1-.12-.059.062.062,0,0,1-.027-.07l.347-.969a.151.151,0,0,1,.076-.07.765.765,0,0,1,.157-.055,1.574,1.574,0,0,1,.219-.038,2.162,2.162,0,0,1,.255-.014h7.464a2.007,2.007,0,0,1,.247.014,1.311,1.311,0,0,1,.195.038.385.385,0,0,1,.122.055.068.068,0,0,1,.032.07l-.263.969c0,.026-.028.049-.067.071a.7.7,0,0,1-.155.057,1.826,1.826,0,0,1-.22.039c-.081.008-.168.014-.258.014Zm9.8,0a2.072,2.072,0,0,1-.252-.014,1.36,1.36,0,0,1-.2-.038.449.449,0,0,1-.127-.057.07.07,0,0,1-.033-.071l.255-.969a.135.135,0,0,1,.068-.07.7.7,0,0,1,.152-.055,1.723,1.723,0,0,1,.214-.038,2.218,2.218,0,0,1,.255-.014l7.459,0a2.064,2.064,0,0,1,.249.014,1.387,1.387,0,0,1,.2.038.458.458,0,0,1,.13.055.076.076,0,0,1,.04.068l-.171.97c0,.025-.025.049-.063.071a.637.637,0,0,1-.149.057,1.686,1.686,0,0,1-.214.038,2.116,2.116,0,0,1-.256.015Zm9.8,0a2.047,2.047,0,0,1-.253-.015,1.389,1.389,0,0,1-.2-.038.44.44,0,0,1-.131-.057.08.08,0,0,1-.041-.071l.161-.97c0-.024.025-.048.062-.068a.607.607,0,0,1,.147-.055,1.62,1.62,0,0,1,.211-.038,2.139,2.139,0,0,1,.252-.014h7.459a2.469,2.469,0,0,1,.25.013,1.557,1.557,0,0,1,.2.038.507.507,0,0,1,.136.056c.03.022.048.045.044.068l-.076.972c0,.024-.022.048-.057.07a.56.56,0,0,1-.143.057,1.375,1.375,0,0,1-.211.038,2.141,2.141,0,0,1-.255.015Zm9.8,0a2.1,2.1,0,0,1-.253-.015,1.5,1.5,0,0,1-.206-.038.559.559,0,0,1-.136-.057c-.032-.022-.049-.046-.047-.07l.068-.972c0-.024.021-.046.055-.068a.579.579,0,0,1,.141-.056,1.7,1.7,0,0,1,.207-.038,2.5,2.5,0,0,1,.252-.013h7.457a2.435,2.435,0,0,1,.252.013,1.5,1.5,0,0,1,.207.038.56.56,0,0,1,.139.056c.033.022.052.044.052.07l.017.969a.088.088,0,0,1-.051.07.507.507,0,0,1-.138.059,1.349,1.349,0,0,1-.207.038,2.093,2.093,0,0,1-.253.014l-7.557,0Zm9.792,0a2.143,2.143,0,0,1-.255-.014,1.39,1.39,0,0,1-.207-.038.536.536,0,0,1-.141-.059.1.1,0,0,1-.054-.07l-.028-.969c0-.026.016-.048.049-.07a.522.522,0,0,1,.138-.056,1.265,1.265,0,0,1,.2-.038,2.066,2.066,0,0,1,.252-.015h7.457a2.1,2.1,0,0,1,.253.014,1.619,1.619,0,0,1,.211.038.606.606,0,0,1,.146.056c.035.022.055.044.059.07l.109.969a.077.077,0,0,1-.043.07.464.464,0,0,1-.133.058,1.486,1.486,0,0,1-.2.038c-.077.009-.163.014-.253.016Zm9.8,0c-.09,0-.177-.006-.256-.014a1.662,1.662,0,0,1-.211-.038.61.61,0,0,1-.147-.058.1.1,0,0,1-.058-.07l-.124-.97c0-.024.013-.047.043-.068a.457.457,0,0,1,.133-.056,1.24,1.24,0,0,1,.2-.038,2.026,2.026,0,0,1,.25-.014h7.457a2.14,2.14,0,0,1,.253.014,1.44,1.44,0,0,1,.212.038.62.62,0,0,1,.149.056.114.114,0,0,1,.065.068l.207.97a.074.074,0,0,1-.036.071.465.465,0,0,1-.127.057,1.356,1.356,0,0,1-.2.038,2.053,2.053,0,0,1-.252.014l-7.56,0Zm9.8,0a2.173,2.173,0,0,1-.256-.014,1.663,1.663,0,0,1-.215-.038.752.752,0,0,1-.152-.057c-.038-.022-.062-.046-.066-.071l-.215-.97c-.006-.024.008-.047.035-.068a.425.425,0,0,1,.128-.056,1.171,1.171,0,0,1,.2-.038,1.975,1.975,0,0,1,.247-.014h7.459c.089,0,.174.006.255.014a1.768,1.768,0,0,1,.215.038.692.692,0,0,1,.154.055.143.143,0,0,1,.073.07l.3.97c.008.024,0,.047-.03.068a.393.393,0,0,1-.123.059,1.337,1.337,0,0,1-.2.038,2.009,2.009,0,0,1-.25.014Zm9.8,0a2.222,2.222,0,0,1-.258-.014,1.583,1.583,0,0,1-.22-.04.666.666,0,0,1-.157-.057.146.146,0,0,1-.073-.07l-.309-.969a.065.065,0,0,1,.029-.07.394.394,0,0,1,.12-.057,1.178,1.178,0,0,1,.192-.038,2.257,2.257,0,0,1,.247-.013l7.462,0a2.158,2.158,0,0,1,.256.014,1.5,1.5,0,0,1,.219.038.766.766,0,0,1,.16.055.168.168,0,0,1,.079.07l.393.968a.061.061,0,0,1-.024.07.345.345,0,0,1-.119.059,1.192,1.192,0,0,1-.193.038,1.981,1.981,0,0,1-.249.014l-7.555,0Zm9.794,0c-.09,0-.177,0-.26-.013a1.645,1.645,0,0,1-.223-.039.715.715,0,0,1-.163-.057.16.16,0,0,1-.082-.07l-.4-.968a.061.061,0,0,1,.022-.07.338.338,0,0,1,.114-.055,1.027,1.027,0,0,1,.188-.038,1.9,1.9,0,0,1,.245-.014h7.462a2.26,2.26,0,0,1,.258.014,1.967,1.967,0,0,1,.223.038.856.856,0,0,1,.165.055.176.176,0,0,1,.084.068l.481.97a.053.053,0,0,1-.014.07.273.273,0,0,1-.111.057.972.972,0,0,1-.189.04,1.977,1.977,0,0,1-.248.014Zm9.8,0a2.3,2.3,0,0,1-.261-.014,1.617,1.617,0,0,1-.226-.04.724.724,0,0,1-.168-.057.179.179,0,0,1-.087-.07l-.5-.97a.058.058,0,0,1,.016-.068.279.279,0,0,1,.109-.055,1,1,0,0,1,.185-.038,1.906,1.906,0,0,1,.244-.014h7.462a2.288,2.288,0,0,1,.26.014,2.106,2.106,0,0,1,.226.038.933.933,0,0,1,.169.055.2.2,0,0,1,.092.068l.579.97a.054.054,0,0,1-.011.07.267.267,0,0,1-.106.059,1.061,1.061,0,0,1-.187.038,1.864,1.864,0,0,1-.245.015Zm9.442,0c-.073,0-.144,0-.211-.011a1.7,1.7,0,0,1-.185-.031.743.743,0,0,1-.141-.046.171.171,0,0,1-.074-.056l-.624-1.042a.044.044,0,0,1,.008-.055.211.211,0,0,1,.084-.044.882.882,0,0,1,.146-.03,1.8,1.8,0,0,1,.192-.011h3.555a1.811,1.811,0,0,1,.209.012,1.193,1.193,0,0,1,.182.03.682.682,0,0,1,.139.044.174.174,0,0,1,.078.054l.671,1.042a.042.042,0,0,1,0,.057.2.2,0,0,1-.082.046.846.846,0,0,1-.146.03,1.431,1.431,0,0,1-.195.011l-3.6,0Zm4.89-3.236-133.312.021a16,16,0,0,0-1.683.089,13.221,13.221,0,0,0-1.494.24,6.556,6.556,0,0,0-1.151.358,1.571,1.571,0,0,0-.646.443l-23.459,32.87a.759.759,0,0,0-.119.788,1.509,1.509,0,0,0,.749.649,5.677,5.677,0,0,0,1.49.443,12.509,12.509,0,0,0,2.1.161h.011l181.852-.039a12.53,12.53,0,0,0,2.1-.163,5.7,5.7,0,0,0,1.493-.442,1.506,1.506,0,0,0,.747-.651.756.756,0,0,0-.122-.788l-23.575-32.853a1.566,1.566,0,0,0-.646-.442,6.376,6.376,0,0,0-1.152-.357,13.215,13.215,0,0,0-1.494-.241,16.176,16.176,0,0,0-1.683-.087Z" transform="translate(-605.552 -2517.155)" fill="#c3cbf1"/>
      <path id="Path_177" data-name="Path 177" d="M711.205,2528.919h-.01l-63,.013a6.232,6.232,0,0,0-.766.047,4.511,4.511,0,0,0-.651.133,1.875,1.875,0,0,0-.47.2.462.462,0,0,0-.218.243l-4.217,14.92a.314.314,0,0,0,.086.309,1.075,1.075,0,0,0,.4.253,3.1,3.1,0,0,0,.652.169,5.267,5.267,0,0,0,.841.063l71.747-.016a5.32,5.32,0,0,0,.842-.063,3.057,3.057,0,0,0,.652-.169,1.067,1.067,0,0,0,.4-.253.318.318,0,0,0,.085-.307l-4.274-14.921a.471.471,0,0,0-.22-.241,1.926,1.926,0,0,0-.467-.2,4.278,4.278,0,0,0-.649-.131,5.905,5.905,0,0,0-.764-.049Z" transform="translate(-584.384 -2510.297)" fill="#fff"/>
      <path id="Path_178" data-name="Path 178" d="M699.927,2518.362h-7.462a1.9,1.9,0,0,0-.245.014,1.068,1.068,0,0,0-.188.038.338.338,0,0,0-.114.055.062.062,0,0,0-.022.07l.4.968a.16.16,0,0,0,.082.07.751.751,0,0,0,.163.057,1.61,1.61,0,0,0,.223.039c.082.008.169.013.26.013h7.555a1.98,1.98,0,0,0,.248-.014.952.952,0,0,0,.189-.04.27.27,0,0,0,.111-.057.053.053,0,0,0,.014-.07l-.481-.97a.177.177,0,0,0-.084-.068.874.874,0,0,0-.165-.055,1.967,1.967,0,0,0-.223-.038,2.205,2.205,0,0,0-.258-.014Z" transform="translate(-555.221 -2516.451)" fill="#331338"/>
      <path id="Path_179" data-name="Path 179" d="M693.826,2518.363l-7.462,0a2.257,2.257,0,0,0-.247.013,1.2,1.2,0,0,0-.192.038.4.4,0,0,0-.12.056.065.065,0,0,0-.029.07l.309.968a.145.145,0,0,0,.073.07.688.688,0,0,0,.157.057,1.58,1.58,0,0,0,.22.04,2.279,2.279,0,0,0,.258.014l7.555,0a1.938,1.938,0,0,0,.249-.014,1.166,1.166,0,0,0,.193-.038.354.354,0,0,0,.119-.059.061.061,0,0,0,.024-.07l-.393-.968a.169.169,0,0,0-.079-.07.767.767,0,0,0-.16-.055,1.536,1.536,0,0,0-.219-.038,2.158,2.158,0,0,0-.256-.014Z" transform="translate(-558.787 -2516.45)" fill="#331338"/>
      <path id="Path_180" data-name="Path 180" d="M687.725,2518.364h-7.459a1.976,1.976,0,0,0-.247.014,1.217,1.217,0,0,0-.2.038.42.42,0,0,0-.128.056c-.027.021-.041.044-.035.068l.215.97c0,.025.029.049.066.071a.784.784,0,0,0,.152.057,1.7,1.7,0,0,0,.215.038,2.286,2.286,0,0,0,.256.014h7.555a2.062,2.062,0,0,0,.25-.014,1.334,1.334,0,0,0,.2-.038.4.4,0,0,0,.123-.059c.027-.021.038-.044.03-.068l-.3-.97c-.008-.025-.033-.047-.073-.07a.693.693,0,0,0-.154-.055,1.864,1.864,0,0,0-.215-.038c-.081-.008-.166-.014-.255-.014Z" transform="translate(-562.353 -2516.45)" fill="#331338"/>
      <path id="Path_181" data-name="Path 181" d="M681.623,2518.365h-7.457a2.027,2.027,0,0,0-.25.014,1.265,1.265,0,0,0-.2.038.45.45,0,0,0-.133.055c-.03.021-.046.044-.043.068l.124.97a.1.1,0,0,0,.058.07.641.641,0,0,0,.147.058,1.662,1.662,0,0,0,.211.038c.079.008.166.014.256.014l7.56,0a2.105,2.105,0,0,0,.252-.014,1.359,1.359,0,0,0,.2-.038.48.48,0,0,0,.127-.057.074.074,0,0,0,.036-.071l-.207-.97a.114.114,0,0,0-.065-.068.61.61,0,0,0-.149-.056,1.471,1.471,0,0,0-.212-.038,2.14,2.14,0,0,0-.253-.014Z" transform="translate(-565.919 -2516.449)" fill="#331338"/>
      <path id="Path_182" data-name="Path 182" d="M675.521,2518.366h-7.457a2.017,2.017,0,0,0-.252.015,1.237,1.237,0,0,0-.2.038.507.507,0,0,0-.138.055c-.033.022-.051.044-.049.07l.029.969a.1.1,0,0,0,.054.07.526.526,0,0,0,.141.059,1.357,1.357,0,0,0,.207.038,2.255,2.255,0,0,0,.255.014h7.56c.09,0,.176-.007.253-.016a1.482,1.482,0,0,0,.2-.038.486.486,0,0,0,.133-.058.077.077,0,0,0,.043-.07l-.109-.969c0-.025-.024-.047-.059-.07a.6.6,0,0,0-.146-.055,1.614,1.614,0,0,0-.211-.038,2.1,2.1,0,0,0-.253-.014Z" transform="translate(-569.486 -2516.449)" fill="#331338"/>
      <path id="Path_183" data-name="Path 183" d="M669.443,2518.368l-7.457,0a2.433,2.433,0,0,0-.252.013,1.609,1.609,0,0,0-.207.038.577.577,0,0,0-.141.056c-.035.022-.054.044-.055.068l-.068.972c0,.024.016.048.047.07a.549.549,0,0,0,.136.057,1.586,1.586,0,0,0,.206.038,2.149,2.149,0,0,0,.253.014h7.557a2.145,2.145,0,0,0,.253-.014,1.351,1.351,0,0,0,.207-.038.508.508,0,0,0,.138-.058.088.088,0,0,0,.051-.07l-.017-.969c0-.026-.019-.048-.052-.07a.544.544,0,0,0-.139-.056,1.53,1.53,0,0,0-.207-.038,2.505,2.505,0,0,0-.252-.013Z" transform="translate(-573.076 -2516.448)" fill="#331338"/>
      <path id="Path_184" data-name="Path 184" d="M663.376,2518.369h-7.459a2.086,2.086,0,0,0-.252.015,1.62,1.62,0,0,0-.211.038.631.631,0,0,0-.147.055c-.036.021-.058.045-.062.068l-.161.97a.079.079,0,0,0,.041.071.44.44,0,0,0,.131.057,1.455,1.455,0,0,0,.2.038,2.047,2.047,0,0,0,.253.014h7.557a2.2,2.2,0,0,0,.255-.014,1.437,1.437,0,0,0,.211-.038.551.551,0,0,0,.143-.057c.035-.022.055-.046.057-.07l.076-.972c0-.024-.014-.046-.044-.068a.5.5,0,0,0-.136-.056,1.478,1.478,0,0,0-.2-.038,2.4,2.4,0,0,0-.25-.013Z" transform="translate(-576.678 -2516.447)" fill="#331338"/>
      <path id="Path_185" data-name="Path 185" d="M657.309,2518.369l-7.459,0a2.218,2.218,0,0,0-.255.014,1.774,1.774,0,0,0-.214.038.706.706,0,0,0-.152.055.134.134,0,0,0-.068.07l-.255.969a.07.07,0,0,0,.033.071.456.456,0,0,0,.127.057,1.3,1.3,0,0,0,.2.038,2.022,2.022,0,0,0,.252.014l7.557,0a2.119,2.119,0,0,0,.256-.014,1.782,1.782,0,0,0,.214-.038.64.64,0,0,0,.149-.057c.038-.022.06-.046.063-.071l.171-.97a.076.076,0,0,0-.04-.068.472.472,0,0,0-.13-.055,1.392,1.392,0,0,0-.2-.038,2.013,2.013,0,0,0-.248-.015Z" transform="translate(-580.28 -2516.447)" fill="#331338"/>
      <path id="Path_186" data-name="Path 186" d="M651.245,2518.37h-7.464a2.278,2.278,0,0,0-.255.014,1.65,1.65,0,0,0-.218.038.746.746,0,0,0-.157.056.148.148,0,0,0-.076.07l-.347.969a.063.063,0,0,0,.027.07.351.351,0,0,0,.12.058,1.148,1.148,0,0,0,.195.038,2.028,2.028,0,0,0,.25.014h7.557c.09,0,.177-.006.258-.014a1.822,1.822,0,0,0,.22-.04.71.71,0,0,0,.155-.057c.038-.022.062-.046.066-.071l.263-.969a.068.068,0,0,0-.032-.07.39.39,0,0,0-.122-.055,1.348,1.348,0,0,0-.195-.038,2.008,2.008,0,0,0-.247-.014Z" transform="translate(-583.881 -2516.447)" fill="#331338"/>
      <path id="Path_187" data-name="Path 187" d="M630.95,2519.211h0Zm8.227,0h0Z" transform="translate(-591.118 -2515.957)" fill="#331338"/>
      <path id="Path_188" data-name="Path 188" d="M633.042,2518.373h-7.46a2.231,2.231,0,0,0-.26.015,2.016,2.016,0,0,0-.231.038,1.039,1.039,0,0,0-.176.055.226.226,0,0,0-.1.07l-.621.969a.053.053,0,0,0,0,.07.247.247,0,0,0,.1.058,1.021,1.021,0,0,0,.179.038,1.805,1.805,0,0,0,.242.014H632.3a2.294,2.294,0,0,0,.261-.014,2.06,2.06,0,0,0,.228-.038.965.965,0,0,0,.173-.057.205.205,0,0,0,.089-.07l.538-.972a.054.054,0,0,0-.013-.068.269.269,0,0,0-.106-.055,1.055,1.055,0,0,0-.184-.038,1.906,1.906,0,0,0-.242-.014Z" transform="translate(-594.688 -2516.445)" fill="#331338"/>
      <path id="Path_189" data-name="Path 189" d="M701.189,2519.342h-6.864a1.981,1.981,0,0,0-.248.014,1.006,1.006,0,0,0-.19.04.3.3,0,0,0-.115.057.059.059,0,0,0-.021.071l.828,1.906a.18.18,0,0,0,.084.074.853.853,0,0,0,.169.06,1.646,1.646,0,0,0,.229.041,2.389,2.389,0,0,0,.267.014h7.016a2.046,2.046,0,0,0,.253-.016,1.017,1.017,0,0,0,.193-.041.307.307,0,0,0,.112-.06.059.059,0,0,0,.016-.073l-.981-1.908a.186.186,0,0,0-.087-.071.771.771,0,0,0-.171-.057,1.7,1.7,0,0,0-.23-.04,2.3,2.3,0,0,0-.261-.014Z" transform="translate(-554.14 -2515.88)" fill="#331338"/>
      <path id="Path_190" data-name="Path 190" d="M711.493,2519.341H699.972a1.959,1.959,0,0,0-.247.014.97.97,0,0,0-.187.04.255.255,0,0,0-.109.057.055.055,0,0,0-.014.071l.994,1.908a.21.21,0,0,0,.09.073.911.911,0,0,0,.174.06,2.085,2.085,0,0,0,.233.039,2.365,2.365,0,0,0,.268.016l11.777,0a1.97,1.97,0,0,0,.25-.016,1.078,1.078,0,0,0,.185-.039.241.241,0,0,0,.1-.062.058.058,0,0,0,0-.073l-1.233-1.906a.227.227,0,0,0-.1-.072.9.9,0,0,0-.177-.057,1.753,1.753,0,0,0-.233-.04,2.287,2.287,0,0,0-.263-.014Z" transform="translate(-550.84 -2515.881)" fill="#331338"/>
      <path id="Path_191" data-name="Path 191" d="M695.41,2519.343h-6.864a1.959,1.959,0,0,0-.25.014,1.107,1.107,0,0,0-.2.04.348.348,0,0,0-.12.057.064.064,0,0,0-.029.071l.657,1.906a.156.156,0,0,0,.079.074.754.754,0,0,0,.165.06,1.553,1.553,0,0,0,.228.041,2.323,2.323,0,0,0,.266.014h7.016a2.041,2.041,0,0,0,.253-.014,1.034,1.034,0,0,0,.2-.041.348.348,0,0,0,.117-.06.063.063,0,0,0,.021-.074l-.809-1.906a.169.169,0,0,0-.082-.07.7.7,0,0,0-.163-.059,1.879,1.879,0,0,0-.225-.04,2.268,2.268,0,0,0-.26-.014Z" transform="translate(-557.52 -2515.879)" fill="#331338"/>
      <path id="Path_192" data-name="Path 192" d="M689.625,2519.344h-6.864a2,2,0,0,0-.252.014,1.108,1.108,0,0,0-.2.04.389.389,0,0,0-.125.057.068.068,0,0,0-.033.071l.486,1.907a.138.138,0,0,0,.071.073.644.644,0,0,0,.158.061,1.489,1.489,0,0,0,.221.041,2.279,2.279,0,0,0,.264.014h7.016a2.118,2.118,0,0,0,.257-.014,1.088,1.088,0,0,0,.2-.041.353.353,0,0,0,.124-.059.066.066,0,0,0,.028-.074l-.639-1.907a.149.149,0,0,0-.074-.071.779.779,0,0,0-.161-.057,1.613,1.613,0,0,0-.222-.04,2.211,2.211,0,0,0-.26-.014Z" transform="translate(-560.898 -2515.879)" fill="#331338"/>
      <path id="Path_193" data-name="Path 193" d="M683.846,2519.346h-6.865c-.09,0-.176.007-.252.014a1.426,1.426,0,0,0-.2.04.465.465,0,0,0-.133.057c-.028.022-.044.046-.04.071l.317,1.907a.118.118,0,0,0,.065.073.656.656,0,0,0,.154.061,1.507,1.507,0,0,0,.22.041,2.256,2.256,0,0,0,.264.014l7.016,0a2.066,2.066,0,0,0,.256-.014,1.156,1.156,0,0,0,.2-.041.377.377,0,0,0,.128-.061.071.071,0,0,0,.035-.073l-.469-1.907a.13.13,0,0,0-.07-.071.672.672,0,0,0-.153-.057,1.747,1.747,0,0,0-.215-.04c-.081-.008-.168-.013-.258-.013Z" transform="translate(-564.279 -2515.877)" fill="#331338"/>
      <path id="Path_194" data-name="Path 194" d="M678.06,2519.346H671.2a2.2,2.2,0,0,0-.253.014,1.214,1.214,0,0,0-.2.04.446.446,0,0,0-.136.056.086.086,0,0,0-.046.071l.146,1.907a.107.107,0,0,0,.059.073.588.588,0,0,0,.147.061,1.392,1.392,0,0,0,.214.039,2.2,2.2,0,0,0,.263.016H678.4a2.138,2.138,0,0,0,.26-.014,1.258,1.258,0,0,0,.207-.041.466.466,0,0,0,.135-.061.077.077,0,0,0,.041-.073l-.3-1.907c0-.025-.025-.049-.063-.071a.626.626,0,0,0-.149-.057,1.8,1.8,0,0,0-.215-.04c-.081-.008-.168-.014-.258-.014Z" transform="translate(-567.658 -2515.877)" fill="#331338"/>
      <path id="Path_195" data-name="Path 195" d="M672.291,2519.347h-6.865a2.254,2.254,0,0,0-.255.014,1.615,1.615,0,0,0-.211.039.561.561,0,0,0-.141.058c-.035.022-.054.046-.054.07l-.024,1.907c0,.027.017.051.051.075a.541.541,0,0,0,.141.06,1.567,1.567,0,0,0,.211.04,2.222,2.222,0,0,0,.258.016h7.025a2.246,2.246,0,0,0,.26-.016,1.293,1.293,0,0,0,.209-.041.488.488,0,0,0,.139-.061.089.089,0,0,0,.047-.073l-.128-1.907a.1.1,0,0,0-.055-.071.526.526,0,0,0-.144-.056,1.31,1.31,0,0,0-.209-.04,2.254,2.254,0,0,0-.255-.014Z" transform="translate(-571.048 -2515.877)" fill="#331338"/>
      <path id="Path_196" data-name="Path 196" d="M666.568,2519.348l-6.865,0a2.258,2.258,0,0,0-.255.014,1.412,1.412,0,0,0-.212.04.608.608,0,0,0-.146.056.111.111,0,0,0-.059.072l-.195,1.906c0,.027.013.051.044.075a.478.478,0,0,0,.136.06,1.3,1.3,0,0,0,.207.041,2.3,2.3,0,0,0,.26.014H666.5a2.361,2.361,0,0,0,.263-.016,1.469,1.469,0,0,0,.214-.041.582.582,0,0,0,.146-.06c.035-.022.055-.048.055-.075l.043-1.907c0-.023-.017-.047-.049-.07a.531.531,0,0,0-.141-.056,1.344,1.344,0,0,0-.207-.04,2.253,2.253,0,0,0-.255-.014Z" transform="translate(-574.49 -2515.876)" fill="#331338"/>
      <path id="Path_197" data-name="Path 197" d="M660.852,2519.349h-6.865a2.275,2.275,0,0,0-.258.014,1.471,1.471,0,0,0-.215.04.609.609,0,0,0-.154.057.118.118,0,0,0-.065.071l-.367,1.907c0,.027.01.051.04.075a.408.408,0,0,0,.133.058,1.2,1.2,0,0,0,.206.041,2.089,2.089,0,0,0,.258.015h7.017a2.25,2.25,0,0,0,.261-.015,1.473,1.473,0,0,0,.217-.041.56.56,0,0,0,.15-.059c.036-.024.057-.047.06-.074l.214-1.907c0-.025-.013-.049-.043-.071a.475.475,0,0,0-.133-.057,1.278,1.278,0,0,0-.2-.04,2.209,2.209,0,0,0-.253-.014Z" transform="translate(-577.935 -2515.876)" fill="#331338"/>
      <path id="Path_198" data-name="Path 198" d="M655.13,2519.351h-6.865a2.167,2.167,0,0,0-.258.014,1.461,1.461,0,0,0-.218.039.64.64,0,0,0-.157.057.139.139,0,0,0-.071.071l-.537,1.907a.07.07,0,0,0,.032.073.357.357,0,0,0,.125.06,1.1,1.1,0,0,0,.2.042,2.066,2.066,0,0,0,.256.014h7.017a2.331,2.331,0,0,0,.264-.015,1.522,1.522,0,0,0,.222-.041.635.635,0,0,0,.157-.058.137.137,0,0,0,.068-.075l.385-1.907c0-.025-.01-.049-.038-.071a.429.429,0,0,0-.13-.057,1.134,1.134,0,0,0-.2-.038,2,2,0,0,0-.252-.014Z" transform="translate(-581.378 -2515.875)" fill="#331338"/>
      <path id="Path_199" data-name="Path 199" d="M649.413,2519.351l-6.864,0a2.224,2.224,0,0,0-.261.014,1.6,1.6,0,0,0-.223.039.678.678,0,0,0-.163.058.146.146,0,0,0-.077.071l-.708,1.907a.065.065,0,0,0,.025.073.354.354,0,0,0,.122.06,1.137,1.137,0,0,0,.2.041,2.064,2.064,0,0,0,.256.014l7.017,0a2.274,2.274,0,0,0,.264-.014,1.579,1.579,0,0,0,.225-.042.692.692,0,0,0,.16-.06.14.14,0,0,0,.073-.073l.556-1.907a.065.065,0,0,0-.03-.071.351.351,0,0,0-.123-.057,1.075,1.075,0,0,0-.195-.039,1.987,1.987,0,0,0-.252-.014Z" transform="translate(-584.822 -2515.875)" fill="#331338"/>
      <path id="Path_200" data-name="Path 200" d="M643.691,2519.352h-6.865a2.3,2.3,0,0,0-.261.014,1.953,1.953,0,0,0-.225.038.835.835,0,0,0-.166.059.172.172,0,0,0-.084.071l-.879,1.907a.063.063,0,0,0,.017.073.319.319,0,0,0,.114.06,1,1,0,0,0,.19.04,1.928,1.928,0,0,0,.25.016h7.027a2.315,2.315,0,0,0,.266-.016,1.734,1.734,0,0,0,.23-.041.738.738,0,0,0,.168-.06.163.163,0,0,0,.081-.073l.727-1.907a.062.062,0,0,0-.025-.071.323.323,0,0,0-.12-.058,1.05,1.05,0,0,0-.193-.039,1.98,1.98,0,0,0-.25-.014Z" transform="translate(-588.266 -2515.874)" fill="#331338"/>
      <path id="Path_201" data-name="Path 201" d="M637.974,2519.353h-6.865a2.346,2.346,0,0,0-.263.014,1.976,1.976,0,0,0-.229.038.951.951,0,0,0-.174.059.2.2,0,0,0-.092.071l-1.048,1.907a.057.057,0,0,0,.013.073.3.3,0,0,0,.111.06,1.057,1.057,0,0,0,.192.041,2.006,2.006,0,0,0,.253.016h7.017a2.322,2.322,0,0,0,.267-.016,1.752,1.752,0,0,0,.231-.041.729.729,0,0,0,.171-.06.184.184,0,0,0,.087-.073l.9-1.907a.059.059,0,0,0-.019-.071.272.272,0,0,0-.112-.057.965.965,0,0,0-.188-.039,1.965,1.965,0,0,0-.249-.014Z" transform="translate(-591.711 -2515.874)" fill="#331338"/>
      <path id="Path_202" data-name="Path 202" d="M705.006,2520.951h-7.035a2.161,2.161,0,0,0-.253.014,1.285,1.285,0,0,0-.193.042.32.32,0,0,0-.114.061.063.063,0,0,0-.017.075l.959,2a.194.194,0,0,0,.09.077.922.922,0,0,0,.177.064,2.123,2.123,0,0,0,.237.043,2.651,2.651,0,0,0,.274.016h7.195a2.188,2.188,0,0,0,.261-.016,1.029,1.029,0,0,0,.195-.044.263.263,0,0,0,.111-.063.061.061,0,0,0,.011-.078l-1.119-2a.229.229,0,0,0-.094-.075.989.989,0,0,0-.179-.06,1.861,1.861,0,0,0-.237-.042,2.581,2.581,0,0,0-.269-.016Z" transform="translate(-552.017 -2514.942)" fill="#331338"/>
      <path id="Path_203" data-name="Path 203" d="M710.874,2520.95h-7.035a2.2,2.2,0,0,0-.253.016.948.948,0,0,0-.19.042.282.282,0,0,0-.111.06.062.062,0,0,0-.011.075l1.137,2a.2.2,0,0,0,.1.078.939.939,0,0,0,.184.063,2.067,2.067,0,0,0,.242.044c.089.009.182.016.277.016l7.195,0a2.009,2.009,0,0,0,.256-.016,1.11,1.11,0,0,0,.19-.042.261.261,0,0,0,.1-.063.065.065,0,0,0,0-.08l-1.3-2a.228.228,0,0,0-.1-.076,1.013,1.013,0,0,0-.182-.06,2.076,2.076,0,0,0-.239-.041,2.65,2.65,0,0,0-.269-.016Z" transform="translate(-548.59 -2514.942)" fill="#331338"/>
      <path id="Path_204" data-name="Path 204" d="M699.092,2520.953h-7.044a2.2,2.2,0,0,0-.255.014,1.062,1.062,0,0,0-.2.042.318.318,0,0,0-.122.062.063.063,0,0,0-.024.074l.779,2a.174.174,0,0,0,.084.077.9.9,0,0,0,.173.064,2.175,2.175,0,0,0,.236.043,2.661,2.661,0,0,0,.274.014h7.195a2.236,2.236,0,0,0,.26-.016,1.232,1.232,0,0,0,.2-.043.331.331,0,0,0,.117-.063.066.066,0,0,0,.018-.077l-.94-2a.2.2,0,0,0-.087-.075.832.832,0,0,0-.169-.06,1.619,1.619,0,0,0-.228-.042,2.474,2.474,0,0,0-.264-.014Z" transform="translate(-555.481 -2514.941)" fill="#331338"/>
      <path id="Path_205" data-name="Path 205" d="M693.158,2520.954h-7.039a2.038,2.038,0,0,0-.255.014,1.115,1.115,0,0,0-.2.041.372.372,0,0,0-.125.06.069.069,0,0,0-.03.074l.6,2a.15.15,0,0,0,.078.077.726.726,0,0,0,.165.063,1.915,1.915,0,0,0,.23.043,2.538,2.538,0,0,0,.272.014h7.194a2.276,2.276,0,0,0,.263-.014,1.341,1.341,0,0,0,.2-.043.357.357,0,0,0,.124-.063.071.071,0,0,0,.025-.077l-.762-2a.153.153,0,0,0-.081-.074.8.8,0,0,0-.168-.06,1.7,1.7,0,0,0-.228-.042,2.457,2.457,0,0,0-.264-.014Z" transform="translate(-558.944 -2514.94)" fill="#331338"/>
      <path id="Path_206" data-name="Path 206" d="M687.23,2520.955l-7.034,0a2.132,2.132,0,0,0-.258.014,1.2,1.2,0,0,0-.206.041.348.348,0,0,0-.13.06.07.07,0,0,0-.035.074l.416,2a.133.133,0,0,0,.07.078.7.7,0,0,0,.161.063,1.692,1.692,0,0,0,.228.041,2.025,2.025,0,0,0,.271.016h7.2a1.85,1.85,0,0,0,.261-.016,1.1,1.1,0,0,0,.206-.043.385.385,0,0,0,.128-.063.074.074,0,0,0,.03-.077l-.581-2a.142.142,0,0,0-.073-.074.763.763,0,0,0-.161-.06,1.554,1.554,0,0,0-.223-.041,2.3,2.3,0,0,0-.266-.014Z" transform="translate(-562.407 -2514.94)" fill="#331338"/>
      <path id="Path_207" data-name="Path 207" d="M681.308,2520.956h-7.039a2.176,2.176,0,0,0-.26.016,1.248,1.248,0,0,0-.207.041.472.472,0,0,0-.136.061.081.081,0,0,0-.044.073l.242,2.006a.119.119,0,0,0,.063.077.582.582,0,0,0,.154.063,1.467,1.467,0,0,0,.223.043,2.016,2.016,0,0,0,.268.016h7.2a1.9,1.9,0,0,0,.263-.016,1.24,1.24,0,0,0,.209-.043.406.406,0,0,0,.135-.063.078.078,0,0,0,.038-.077l-.4-2a.118.118,0,0,0-.068-.074.542.542,0,0,0-.155-.061,1.491,1.491,0,0,0-.221-.041,2.226,2.226,0,0,0-.261-.014Z" transform="translate(-565.872 -2514.939)" fill="#331338"/>
      <path id="Path_208" data-name="Path 208" d="M675.378,2520.956h-7.035a2.2,2.2,0,0,0-.26.016,1.313,1.313,0,0,0-.212.041.539.539,0,0,0-.141.061.1.1,0,0,0-.051.074l.059,2.006c0,.027.021.052.055.076a.535.535,0,0,0,.15.064,1.548,1.548,0,0,0,.22.043,2.366,2.366,0,0,0,.269.016h7.194a1.978,1.978,0,0,0,.266-.016,1.273,1.273,0,0,0,.212-.043.437.437,0,0,0,.139-.063.094.094,0,0,0,.046-.077l-.223-2a.115.115,0,0,0-.06-.074.611.611,0,0,0-.15-.061,1.416,1.416,0,0,0-.217-.041,2.249,2.249,0,0,0-.263-.016Z" transform="translate(-569.335 -2514.939)" fill="#331338"/>
      <path id="Path_209" data-name="Path 209" d="M669.507,2520.958h-7.049a1.962,1.962,0,0,0-.261.016,1.455,1.455,0,0,0-.215.041.576.576,0,0,0-.147.061.11.11,0,0,0-.057.074l-.116,2a.094.094,0,0,0,.049.078.47.47,0,0,0,.143.063,1.224,1.224,0,0,0,.214.043,2.325,2.325,0,0,0,.266.016h7.2a2.279,2.279,0,0,0,.268-.016,1.224,1.224,0,0,0,.215-.043.481.481,0,0,0,.146-.063.1.1,0,0,0,.052-.076l-.043-2.006a.1.1,0,0,0-.054-.073.5.5,0,0,0-.143-.062,1.4,1.4,0,0,0-.211-.039,1.9,1.9,0,0,0-.258-.016Z" transform="translate(-572.843 -2514.938)" fill="#331338"/>
      <path id="Path_210" data-name="Path 210" d="M663.638,2520.959H656.6a2.248,2.248,0,0,0-.263.014,1.476,1.476,0,0,0-.218.041.634.634,0,0,0-.152.06c-.038.024-.06.047-.063.075l-.3,2c0,.029.011.053.043.078a.437.437,0,0,0,.138.063,1.341,1.341,0,0,0,.214.043,2.257,2.257,0,0,0,.264.016h7.2a2.334,2.334,0,0,0,.267-.016,1.309,1.309,0,0,0,.22-.043.561.561,0,0,0,.152-.063.109.109,0,0,0,.059-.078l.141-2a.094.094,0,0,0-.048-.074.536.536,0,0,0-.141-.061,1.367,1.367,0,0,0-.212-.041,2.208,2.208,0,0,0-.26-.014Z" transform="translate(-576.375 -2514.938)" fill="#331338"/>
      <path id="Path_211" data-name="Path 211" d="M657.78,2520.96h-7.041a2.389,2.389,0,0,0-.264.014,1.519,1.519,0,0,0-.222.041.7.7,0,0,0-.158.06.128.128,0,0,0-.07.075l-.476,2a.077.077,0,0,0,.036.078.384.384,0,0,0,.131.063,1.23,1.23,0,0,0,.206.043,2.205,2.205,0,0,0,.264.016l7.2,0a2.386,2.386,0,0,0,.269-.016,1.585,1.585,0,0,0,.225-.043.612.612,0,0,0,.155-.063.128.128,0,0,0,.067-.078l.315-2c0-.028-.009-.051-.041-.075a.447.447,0,0,0-.133-.06,1.174,1.174,0,0,0-.206-.041,2.128,2.128,0,0,0-.258-.014Z" transform="translate(-579.905 -2514.937)" fill="#331338"/>
      <path id="Path_212" data-name="Path 212" d="M651.919,2520.961h-7.036a2.408,2.408,0,0,0-.266.016,1.667,1.667,0,0,0-.226.041.624.624,0,0,0-.163.06.143.143,0,0,0-.076.075l-.66,2a.073.073,0,0,0,.032.078.344.344,0,0,0,.127.063,1.151,1.151,0,0,0,.2.045,2.256,2.256,0,0,0,.263.016h7.2a2.473,2.473,0,0,0,.271-.016,1.743,1.743,0,0,0,.228-.045.683.683,0,0,0,.163-.063.147.147,0,0,0,.073-.078l.5-2a.073.073,0,0,0-.035-.075.419.419,0,0,0-.13-.06,1.2,1.2,0,0,0-.2-.041,2.184,2.184,0,0,0-.256-.014Z" transform="translate(-583.437 -2514.936)" fill="#331338"/>
      <path id="Path_213" data-name="Path 213" d="M646.059,2520.961l-7.041,0a2.493,2.493,0,0,0-.266.016,1.745,1.745,0,0,0-.231.041.855.855,0,0,0-.168.06.174.174,0,0,0-.084.076l-.833,2a.064.064,0,0,0,.021.077.3.3,0,0,0,.12.063.956.956,0,0,0,.2.043,1.91,1.91,0,0,0,.26.016h7.2a2.523,2.523,0,0,0,.272-.016,1.7,1.7,0,0,0,.233-.045.711.711,0,0,0,.168-.063.158.158,0,0,0,.079-.078l.674-2a.07.07,0,0,0-.027-.075.347.347,0,0,0-.123-.062,1.139,1.139,0,0,0-.2-.041,2.148,2.148,0,0,0-.256-.016Z" transform="translate(-586.968 -2514.936)" fill="#331338"/>
      <path id="Path_214" data-name="Path 214" d="M640.2,2520.962h-7.036a2.555,2.555,0,0,0-.269.016,1.778,1.778,0,0,0-.233.041.891.891,0,0,0-.174.061.2.2,0,0,0-.09.074l-1.019,2.006a.067.067,0,0,0,.017.077.318.318,0,0,0,.116.063,1.115,1.115,0,0,0,.2.042,1.955,1.955,0,0,0,.26.016h7.2a2.633,2.633,0,0,0,.274-.014,2.142,2.142,0,0,0,.236-.043.9.9,0,0,0,.174-.063.183.183,0,0,0,.086-.077l.858-2a.064.064,0,0,0-.02-.076.33.33,0,0,0-.119-.06,1.116,1.116,0,0,0-.2-.041,2.175,2.175,0,0,0-.255-.016Z" transform="translate(-590.501 -2514.936)" fill="#331338"/>
      <path id="Path_215" data-name="Path 215" d="M635.915,2520.964H624.4a2.1,2.1,0,0,0-.271.016,1.625,1.625,0,0,0-.239.041.848.848,0,0,0-.182.06.252.252,0,0,0-.1.074l-1.281,2a.061.061,0,0,0,0,.077.235.235,0,0,0,.1.064,1,1,0,0,0,.19.043,1.789,1.789,0,0,0,.256.016l11.782,0a2.265,2.265,0,0,0,.274-.016,1.958,1.958,0,0,0,.241-.041.952.952,0,0,0,.179-.064.214.214,0,0,0,.094-.077l1.035-2.006a.061.061,0,0,0-.013-.074.288.288,0,0,0-.112-.06,1.07,1.07,0,0,0-.192-.04,1.765,1.765,0,0,0-.253-.016Z" transform="translate(-595.781 -2514.934)" fill="#331338"/>
      <path id="Path_216" data-name="Path 216" d="M701.2,2522.646h-7.223a1.858,1.858,0,0,0-.261.016,1.136,1.136,0,0,0-.2.043.3.3,0,0,0-.122.065.067.067,0,0,0-.024.077l.859,2.109a.188.188,0,0,0,.089.082.818.818,0,0,0,.179.067,1.949,1.949,0,0,0,.244.044,2.3,2.3,0,0,0,.28.016l7.383,0a1.97,1.97,0,0,0,.266-.016,1.074,1.074,0,0,0,.2-.044.3.3,0,0,0,.119-.066.07.07,0,0,0,.014-.082l-1.027-2.109a.2.2,0,0,0-.09-.078.839.839,0,0,0-.176-.063,1.544,1.544,0,0,0-.236-.043,2.126,2.126,0,0,0-.272-.016Z" transform="translate(-554.363 -2513.954)" fill="#331338"/>
      <path id="Path_217" data-name="Path 217" d="M714.744,2522.643l-14.579,0a1.857,1.857,0,0,0-.261.016,1,1,0,0,0-.2.043.3.3,0,0,0-.117.065.066.066,0,0,0-.016.078l1.051,2.109a.215.215,0,0,0,.1.081.929.929,0,0,0,.185.068,1.909,1.909,0,0,0,.247.045,2.4,2.4,0,0,0,.283.016h14.921a1.93,1.93,0,0,0,.263-.017.9.9,0,0,0,.2-.045.247.247,0,0,0,.108-.066.065.065,0,0,0,0-.081l-1.36-2.11a.251.251,0,0,0-.1-.078,1.174,1.174,0,0,0-.19-.065,2.018,2.018,0,0,0-.247-.042,2.309,2.309,0,0,0-.278-.016Z" transform="translate(-550.747 -2513.956)" fill="#331338"/>
      <path id="Path_218" data-name="Path 218" d="M695.111,2522.646H687.9a2.206,2.206,0,0,0-.263.016,1.332,1.332,0,0,0-.2.043.346.346,0,0,0-.127.065.073.073,0,0,0-.03.077l.671,2.109a.165.165,0,0,0,.081.082.747.747,0,0,0,.171.067,1.824,1.824,0,0,0,.237.044,2.257,2.257,0,0,0,.279.016H696.1a2.017,2.017,0,0,0,.269-.016,1.164,1.164,0,0,0,.206-.044.346.346,0,0,0,.127-.067.074.074,0,0,0,.024-.082l-.841-2.109a.168.168,0,0,0-.086-.077.836.836,0,0,0-.173-.065,2.131,2.131,0,0,0-.237-.043,2.433,2.433,0,0,0-.274-.016Z" transform="translate(-557.914 -2513.954)" fill="#331338"/>
      <path id="Path_219" data-name="Path 219" d="M689.037,2522.647l-7.214,0a2.312,2.312,0,0,0-.264.016,1.479,1.479,0,0,0-.211.043.414.414,0,0,0-.133.063.08.08,0,0,0-.038.079l.483,2.109a.144.144,0,0,0,.074.082.67.67,0,0,0,.166.067,1.75,1.75,0,0,0,.236.044,2.557,2.557,0,0,0,.278.016H689.8a2.289,2.289,0,0,0,.268-.016,1.272,1.272,0,0,0,.211-.046.375.375,0,0,0,.13-.067.076.076,0,0,0,.028-.082l-.651-2.109a.146.146,0,0,0-.078-.077.672.672,0,0,0-.166-.065,1.949,1.949,0,0,0-.231-.043,2.384,2.384,0,0,0-.272-.016Z" transform="translate(-561.467 -2513.953)" fill="#331338"/>
      <path id="Path_220" data-name="Path 220" d="M682.958,2522.648l-7.215,0a2.313,2.313,0,0,0-.264.016,1.307,1.307,0,0,0-.212.044.41.41,0,0,0-.138.063.086.086,0,0,0-.044.077l.295,2.109a.123.123,0,0,0,.065.082.608.608,0,0,0,.16.067,1.539,1.539,0,0,0,.23.046,2.442,2.442,0,0,0,.276.016h7.383a2.322,2.322,0,0,0,.272-.016,1.314,1.314,0,0,0,.215-.046.408.408,0,0,0,.136-.067.081.081,0,0,0,.038-.082l-.462-2.109c0-.028-.03-.054-.071-.079a.694.694,0,0,0-.161-.063,1.916,1.916,0,0,0-.23-.043,2.474,2.474,0,0,0-.271-.016Z" transform="translate(-565.019 -2513.953)" fill="#331338"/>
      <path id="Path_221" data-name="Path 221" d="M676.884,2522.649h-7.215a2.334,2.334,0,0,0-.268.016,1.356,1.356,0,0,0-.217.044.482.482,0,0,0-.146.063.1.1,0,0,0-.051.079l.1,2.107a.115.115,0,0,0,.06.083.553.553,0,0,0,.155.066,1.421,1.421,0,0,0,.226.046,2.445,2.445,0,0,0,.276.016h7.383a2.321,2.321,0,0,0,.272-.016,1.286,1.286,0,0,0,.217-.046.461.461,0,0,0,.142-.067.094.094,0,0,0,.044-.082l-.274-2.107a.117.117,0,0,0-.063-.079.573.573,0,0,0-.155-.063,1.505,1.505,0,0,0-.223-.044,2.443,2.443,0,0,0-.269-.016Z" transform="translate(-568.572 -2513.952)" fill="#331338"/>
      <path id="Path_222" data-name="Path 222" d="M670.835,2522.65H663.62a2.333,2.333,0,0,0-.268.016,1.6,1.6,0,0,0-.22.043.585.585,0,0,0-.15.065.109.109,0,0,0-.057.079l-.084,2.109a.107.107,0,0,0,.052.082.5.5,0,0,0,.147.065,1.414,1.414,0,0,0,.222.046,2.424,2.424,0,0,0,.272.016h7.384a2.392,2.392,0,0,0,.274-.016,1.383,1.383,0,0,0,.223-.046.513.513,0,0,0,.149-.065.1.1,0,0,0,.052-.082l-.084-2.109a.11.11,0,0,0-.057-.079.549.549,0,0,0-.152-.063,1.424,1.424,0,0,0-.222-.044,2.336,2.336,0,0,0-.268-.016Z" transform="translate(-572.156 -2513.952)" fill="#331338"/>
      <path id="Path_223" data-name="Path 223" d="M664.829,2522.652l-7.213,0a2.065,2.065,0,0,0-.271.016,1.352,1.352,0,0,0-.225.042.6.6,0,0,0-.158.064.127.127,0,0,0-.065.077l-.272,2.111a.09.09,0,0,0,.046.08.439.439,0,0,0,.142.067,1.4,1.4,0,0,0,.22.046,2.376,2.376,0,0,0,.272.016h7.383a2.42,2.42,0,0,0,.275-.016,1.531,1.531,0,0,0,.225-.046.539.539,0,0,0,.154-.065.113.113,0,0,0,.059-.082l.1-2.109a.094.094,0,0,0-.049-.079.468.468,0,0,0-.144-.063,1.323,1.323,0,0,0-.215-.042,2.274,2.274,0,0,0-.268-.016Z" transform="translate(-575.779 -2513.95)" fill="#331338"/>
      <path id="Path_224" data-name="Path 224" d="M658.82,2522.653l-7.215,0a2.065,2.065,0,0,0-.271.016,1.373,1.373,0,0,0-.228.042.661.661,0,0,0-.161.063.133.133,0,0,0-.07.078l-.462,2.11a.082.082,0,0,0,.038.081.4.4,0,0,0,.135.067,1.319,1.319,0,0,0,.214.046,2.4,2.4,0,0,0,.271.016l7.383,0a2.513,2.513,0,0,0,.277-.016,1.587,1.587,0,0,0,.231-.046.637.637,0,0,0,.161-.067.129.129,0,0,0,.068-.081l.293-2.11a.089.089,0,0,0-.044-.077.441.441,0,0,0-.139-.063,1.162,1.162,0,0,0-.214-.042,1.959,1.959,0,0,0-.266-.016Z" transform="translate(-579.402 -2513.95)" fill="#331338"/>
      <path id="Path_225" data-name="Path 225" d="M652.815,2522.654H645.6a2.153,2.153,0,0,0-.272.016,1.454,1.454,0,0,0-.234.043.705.705,0,0,0-.168.063.162.162,0,0,0-.079.078l-.649,2.11a.073.073,0,0,0,.03.081.372.372,0,0,0,.131.068,1.15,1.15,0,0,0,.211.044,2.019,2.019,0,0,0,.269.018h7.384a2.228,2.228,0,0,0,.279-.018,1.51,1.51,0,0,0,.233-.044.673.673,0,0,0,.166-.068.139.139,0,0,0,.073-.081l.483-2.11a.08.08,0,0,0-.036-.078.385.385,0,0,0-.133-.063,1.064,1.064,0,0,0-.207-.042,1.921,1.921,0,0,0-.264-.016Z" transform="translate(-583.026 -2513.949)" fill="#331338"/>
      <path id="Path_226" data-name="Path 226" d="M646.8,2522.655l-7.215,0a2.149,2.149,0,0,0-.274.016,1.708,1.708,0,0,0-.234.043.771.771,0,0,0-.173.064.173.173,0,0,0-.085.078l-.839,2.108a.07.07,0,0,0,.024.081.324.324,0,0,0,.122.068,1.242,1.242,0,0,0,.206.044,2,2,0,0,0,.267.017h7.385a2.294,2.294,0,0,0,.28-.018,1.633,1.633,0,0,0,.239-.044.732.732,0,0,0,.172-.068.162.162,0,0,0,.082-.081l.67-2.109a.071.071,0,0,0-.028-.078.383.383,0,0,0-.128-.065,1.211,1.211,0,0,0-.206-.042,1.944,1.944,0,0,0-.264-.016Z" transform="translate(-586.649 -2513.949)" fill="#331338"/>
      <path id="Path_227" data-name="Path 227" d="M640.8,2522.656h-7.217a2.178,2.178,0,0,0-.276.016,1.573,1.573,0,0,0-.241.043.846.846,0,0,0-.18.063.212.212,0,0,0-.093.079l-1.027,2.11a.067.067,0,0,0,.016.081.3.3,0,0,0,.12.066.987.987,0,0,0,.2.044,1.915,1.915,0,0,0,.266.017h7.385a2.351,2.351,0,0,0,.282-.017,1.626,1.626,0,0,0,.241-.044.805.805,0,0,0,.177-.066.189.189,0,0,0,.089-.081l.86-2.11a.067.067,0,0,0-.022-.078.328.328,0,0,0-.12-.064,1.1,1.1,0,0,0-.2-.043,1.835,1.835,0,0,0-.26-.016Z" transform="translate(-590.274 -2513.948)" fill="#331338"/>
      <path id="Path_228" data-name="Path 228" d="M717.722,2524.425l-19.548,0a1.961,1.961,0,0,0-.269.018,1.032,1.032,0,0,0-.2.044.3.3,0,0,0-.122.067.069.069,0,0,0-.019.082l1.016,2.223a.228.228,0,0,0,.1.087.982.982,0,0,0,.189.069,1.7,1.7,0,0,0,.252.048,2.4,2.4,0,0,0,.29.017l20.018,0a2.033,2.033,0,0,0,.271-.017,1.061,1.061,0,0,0,.2-.046.256.256,0,0,0,.111-.071.071.071,0,0,0,0-.085l-1.437-2.222a.27.27,0,0,0-.109-.082.946.946,0,0,0-.2-.067,1.716,1.716,0,0,0-.253-.044,2.369,2.369,0,0,0-.287-.018Z" transform="translate(-551.92 -2512.917)" fill="#331338"/>
      <path id="Path_229" data-name="Path 229" d="M699.336,2524.427h-7.4a1.965,1.965,0,0,0-.269.018,1.048,1.048,0,0,0-.207.044.334.334,0,0,0-.125.068.073.073,0,0,0-.025.082l.817,2.223a.188.188,0,0,0,.087.085.747.747,0,0,0,.18.069,1.664,1.664,0,0,0,.247.048,2.332,2.332,0,0,0,.287.017h7.581a2.017,2.017,0,0,0,.274-.017,1.039,1.039,0,0,0,.211-.048.325.325,0,0,0,.123-.069.075.075,0,0,0,.019-.087l-.992-2.221a.211.211,0,0,0-.093-.082.933.933,0,0,0-.182-.068,1.768,1.768,0,0,0-.245-.044,2.349,2.349,0,0,0-.283-.017Z" transform="translate(-555.564 -2512.916)" fill="#331338"/>
      <path id="Path_230" data-name="Path 230" d="M693.113,2524.429H685.7a2.029,2.029,0,0,0-.271.017,1.146,1.146,0,0,0-.214.044.382.382,0,0,0-.133.068.082.082,0,0,0-.033.083l.619,2.222a.157.157,0,0,0,.081.085.705.705,0,0,0,.174.071,1.882,1.882,0,0,0,.244.046,2.34,2.34,0,0,0,.288.018l7.581,0a2.04,2.04,0,0,0,.274-.017,1.18,1.18,0,0,0,.212-.046.348.348,0,0,0,.13-.071.077.077,0,0,0,.025-.085l-.795-2.223a.181.181,0,0,0-.084-.082.83.83,0,0,0-.172-.066,1.564,1.564,0,0,0-.236-.044,2.249,2.249,0,0,0-.279-.017Z" transform="translate(-559.21 -2512.915)" fill="#331338"/>
      <path id="Path_231" data-name="Path 231" d="M686.866,2524.43h-7.4a2.434,2.434,0,0,0-.272.016,1.285,1.285,0,0,0-.215.046.421.421,0,0,0-.138.066.087.087,0,0,0-.04.082l.419,2.222a.145.145,0,0,0,.073.085.644.644,0,0,0,.166.071,1.647,1.647,0,0,0,.239.046,2,2,0,0,0,.283.017h7.581a2.125,2.125,0,0,0,.279-.018,1.3,1.3,0,0,0,.217-.046.4.4,0,0,0,.138-.071.083.083,0,0,0,.035-.085l-.6-2.222a.158.158,0,0,0-.078-.083.71.71,0,0,0-.171-.066,1.772,1.772,0,0,0-.237-.046,2.586,2.586,0,0,0-.279-.016Z" transform="translate(-562.855 -2512.914)" fill="#331338"/>
      <path id="Path_232" data-name="Path 232" d="M680.632,2524.431l-7.4,0a2.522,2.522,0,0,0-.272.016,1.4,1.4,0,0,0-.221.046.484.484,0,0,0-.146.066.1.1,0,0,0-.049.082l.222,2.222a.124.124,0,0,0,.065.085.61.61,0,0,0,.163.072,1.62,1.62,0,0,0,.236.046,2.239,2.239,0,0,0,.283.018l7.581,0a1.868,1.868,0,0,0,.279-.018,1.279,1.279,0,0,0,.22-.046.437.437,0,0,0,.143-.071.092.092,0,0,0,.041-.085l-.4-2.222a.144.144,0,0,0-.07-.083.666.666,0,0,0-.163-.066,1.592,1.592,0,0,0-.231-.046,2.622,2.622,0,0,0-.279-.016Z" transform="translate(-566.502 -2512.914)" fill="#331338"/>
      <path id="Path_233" data-name="Path 233" d="M674.393,2524.432l-7.4,0a2.491,2.491,0,0,0-.274.016,1.426,1.426,0,0,0-.225.046.516.516,0,0,0-.149.066.107.107,0,0,0-.055.082l.022,2.223a.115.115,0,0,0,.057.087.584.584,0,0,0,.155.07,1.345,1.345,0,0,0,.23.047,2.172,2.172,0,0,0,.28.017h7.582a2.174,2.174,0,0,0,.282-.018,1.326,1.326,0,0,0,.228-.047.519.519,0,0,0,.147-.07.1.1,0,0,0,.049-.087l-.2-2.223a.117.117,0,0,0-.063-.082.59.59,0,0,0-.157-.066,1.535,1.535,0,0,0-.229-.046,2.733,2.733,0,0,0-.277-.016Z" transform="translate(-570.147 -2512.913)" fill="#331338"/>
      <path id="Path_234" data-name="Path 234" d="M668.225,2524.433h-7.4a2.44,2.44,0,0,0-.275.016,1.54,1.54,0,0,0-.23.045.6.6,0,0,0-.157.068c-.036.025-.059.052-.059.082l-.182,2.221a.1.1,0,0,0,.049.087.554.554,0,0,0,.15.07,1.3,1.3,0,0,0,.228.048,2.216,2.216,0,0,0,.28.017h7.581a2.261,2.261,0,0,0,.282-.017,1.322,1.322,0,0,0,.23-.048.588.588,0,0,0,.154-.07.116.116,0,0,0,.057-.087v-2.222a.112.112,0,0,0-.055-.082.517.517,0,0,0-.15-.066,1.412,1.412,0,0,0-.223-.046,2.457,2.457,0,0,0-.275-.016Z" transform="translate(-573.859 -2512.912)" fill="#331338"/>
      <path id="Path_235" data-name="Path 235" d="M662.06,2524.434l-7.4,0a2.471,2.471,0,0,0-.277.016,1.5,1.5,0,0,0-.231.046.645.645,0,0,0-.163.068.13.13,0,0,0-.068.082l-.377,2.222a.092.092,0,0,0,.041.086.453.453,0,0,0,.143.071,1.373,1.373,0,0,0,.221.046,1.9,1.9,0,0,0,.279.018l7.587,0a2,2,0,0,0,.28-.017,1.677,1.677,0,0,0,.234-.046.611.611,0,0,0,.161-.072.121.121,0,0,0,.065-.085l.2-2.222a.094.094,0,0,0-.047-.082.5.5,0,0,0-.147-.068,1.377,1.377,0,0,0-.222-.046,2.4,2.4,0,0,0-.272-.016Z" transform="translate(-577.579 -2512.912)" fill="#331338"/>
      <path id="Path_236" data-name="Path 236" d="M655.9,2524.436h-7.4a2.235,2.235,0,0,0-.28.016,1.705,1.705,0,0,0-.236.046.642.642,0,0,0-.168.066.138.138,0,0,0-.074.082l-.581,2.222a.083.083,0,0,0,.035.085.407.407,0,0,0,.138.071,1.356,1.356,0,0,0,.218.046,2.216,2.216,0,0,0,.279.017h7.582a2.048,2.048,0,0,0,.283-.018,1.68,1.68,0,0,0,.237-.046.658.658,0,0,0,.168-.071.137.137,0,0,0,.071-.086l.4-2.222a.086.086,0,0,0-.04-.083.439.439,0,0,0-.139-.066,1.117,1.117,0,0,0-.215-.046,2.033,2.033,0,0,0-.271-.016Z" transform="translate(-581.3 -2512.911)" fill="#331338"/>
      <path id="Path_237" data-name="Path 237" d="M649.74,2524.437l-7.41,0a2.219,2.219,0,0,0-.28.016,1.583,1.583,0,0,0-.241.046.7.7,0,0,0-.174.066.173.173,0,0,0-.084.082l-.772,2.222a.077.077,0,0,0,.025.085.349.349,0,0,0,.13.071,1.258,1.258,0,0,0,.212.046,2.062,2.062,0,0,0,.276.018l7.589,0a2.333,2.333,0,0,0,.285-.018,1.768,1.768,0,0,0,.242-.046.682.682,0,0,0,.173-.071.165.165,0,0,0,.081-.085l.6-2.222a.077.077,0,0,0-.033-.082.367.367,0,0,0-.132-.066,1.241,1.241,0,0,0-.212-.046,1.99,1.99,0,0,0-.269-.016Z" transform="translate(-585.02 -2512.91)" fill="#331338"/>
      <path id="Path_238" data-name="Path 238" d="M643.574,2524.438h-7.405a2.327,2.327,0,0,0-.282.016,1.989,1.989,0,0,0-.244.044.805.805,0,0,0-.179.068.187.187,0,0,0-.092.083l-.978,2.222a.079.079,0,0,0,.022.086.294.294,0,0,0,.122.07,1.022,1.022,0,0,0,.206.047,1.987,1.987,0,0,0,.271.017h7.592a2.334,2.334,0,0,0,.287-.017,1.739,1.739,0,0,0,.247-.047.9.9,0,0,0,.179-.07.2.2,0,0,0,.089-.087l.8-2.222a.076.076,0,0,0-.029-.082.327.327,0,0,0-.128-.067,1.056,1.056,0,0,0-.207-.046,1.981,1.981,0,0,0-.269-.016Z" transform="translate(-588.741 -2512.91)" fill="#331338"/>
      <path id="Path_239" data-name="Path 239" d="M637.48,2522.657h-14.1a2.7,2.7,0,0,0-.279.016,2.03,2.03,0,0,0-.246.044.948.948,0,0,0-.188.063.257.257,0,0,0-.1.079l-1.349,2.11a.063.063,0,0,0,0,.081.231.231,0,0,0,.108.066.851.851,0,0,0,.195.045,1.82,1.82,0,0,0,.263.017l14.432,0a2.273,2.273,0,0,0,.282-.017,1.689,1.689,0,0,0,.245-.044.873.873,0,0,0,.184-.066.215.215,0,0,0,.095-.081l1.045-2.11a.063.063,0,0,0-.014-.077.291.291,0,0,0-.116-.065,1.185,1.185,0,0,0-.2-.043,2.083,2.083,0,0,0-.26-.016Z" transform="translate(-596.429 -2513.948)" fill="#331338"/>
      <path id="Path_240" data-name="Path 240" d="M641.675,2524.439l-19.39,0a2.427,2.427,0,0,0-.285.017,2.167,2.167,0,0,0-.253.044,1.017,1.017,0,0,0-.193.068.247.247,0,0,0-.108.082l-1.421,2.222a.071.071,0,0,0,0,.085.242.242,0,0,0,.109.071.965.965,0,0,0,.2.046,1.97,1.97,0,0,0,.269.017l19.855,0a2.383,2.383,0,0,0,.29-.017,1.774,1.774,0,0,0,.252-.047,1.026,1.026,0,0,0,.185-.07.2.2,0,0,0,.095-.087l1-2.221a.071.071,0,0,0-.017-.083.3.3,0,0,0-.12-.068,1.135,1.135,0,0,0-.2-.046,1.958,1.958,0,0,0-.268-.016Z" transform="translate(-597.123 -2512.909)" fill="#331338"/>
      <path id="Path_241" data-name="Path 241" d="M628.713,2526.318H621.14a2.239,2.239,0,0,0-.294.019,2.2,2.2,0,0,0-.261.046,1.071,1.071,0,0,0-.2.071.285.285,0,0,0-.112.087l-1.5,2.346a.076.076,0,0,0,0,.091.248.248,0,0,0,.114.074.912.912,0,0,0,.2.049,1.844,1.844,0,0,0,.279.019h7.76a2.273,2.273,0,0,0,.3-.019,2.069,2.069,0,0,0,.264-.051.891.891,0,0,0,.2-.074.25.25,0,0,0,.109-.091l1.319-2.346a.074.074,0,0,0-.01-.087.259.259,0,0,0-.117-.069.92.92,0,0,0-.2-.048,1.782,1.782,0,0,0-.274-.019Z" transform="translate(-597.855 -2511.813)" fill="#331338"/>
      <path id="Path_242" data-name="Path 242" d="M635.033,2526.318h-7.579a2.155,2.155,0,0,0-.291.019,1.738,1.738,0,0,0-.256.048.864.864,0,0,0-.193.069.239.239,0,0,0-.1.087l-1.29,2.346a.077.077,0,0,0,.008.091.268.268,0,0,0,.119.074.9.9,0,0,0,.207.049,1.812,1.812,0,0,0,.279.019H633.7a2.211,2.211,0,0,0,.3-.019,1.789,1.789,0,0,0,.258-.049.855.855,0,0,0,.195-.074.228.228,0,0,0,.1-.091l1.1-2.346a.076.076,0,0,0-.016-.087.285.285,0,0,0-.122-.07,1.129,1.129,0,0,0-.207-.049,2.144,2.144,0,0,0-.272-.015Z" transform="translate(-594.036 -2511.813)" fill="#331338"/>
      <path id="Path_243" data-name="Path 243" d="M641.325,2526.316h-7.574a2.505,2.505,0,0,0-.29.017,1.859,1.859,0,0,0-.255.047.915.915,0,0,0-.188.072.224.224,0,0,0-.1.087l-1.081,2.345a.079.079,0,0,0,.017.091.3.3,0,0,0,.127.074,1.028,1.028,0,0,0,.214.049,1.838,1.838,0,0,0,.282.019h7.76a2.206,2.206,0,0,0,.3-.019,1.842,1.842,0,0,0,.255-.049.8.8,0,0,0,.187-.074.2.2,0,0,0,.092-.091l.894-2.346a.079.079,0,0,0-.024-.087.338.338,0,0,0-.127-.072,1.121,1.121,0,0,0-.212-.047,1.89,1.89,0,0,0-.274-.017Z" transform="translate(-590.233 -2511.815)" fill="#331338"/>
      <path id="Path_244" data-name="Path 244" d="M649.915,2526.315l-9.876,0a2.2,2.2,0,0,0-.29.017,1.7,1.7,0,0,0-.247.047.812.812,0,0,0-.18.072.191.191,0,0,0-.09.087l-.872,2.345a.085.085,0,0,0,.025.091.328.328,0,0,0,.13.074,1.17,1.17,0,0,0,.217.049,1.915,1.915,0,0,0,.282.019h10.121a2.166,2.166,0,0,0,.294-.019,1.5,1.5,0,0,0,.249-.051.669.669,0,0,0,.179-.075.164.164,0,0,0,.082-.09l.638-2.345a.082.082,0,0,0-.033-.087.384.384,0,0,0-.135-.071,1.48,1.48,0,0,0-.217-.047,2.206,2.206,0,0,0-.277-.016Z" transform="translate(-586.43 -2511.815)" fill="#331338"/>
      <path id="Path_245" data-name="Path 245" d="M689.708,2526.307l-9.874,0a2.128,2.128,0,0,0-.279.017,1.256,1.256,0,0,0-.22.048.431.431,0,0,0-.143.071.089.089,0,0,0-.04.087l.442,2.346a.16.16,0,0,0,.076.091.7.7,0,0,0,.174.072,1.449,1.449,0,0,0,.244.051,2.41,2.41,0,0,0,.291.017l10.118,0a2.205,2.205,0,0,0,.283-.017,1.161,1.161,0,0,0,.222-.051.385.385,0,0,0,.136-.072.091.091,0,0,0,.033-.091l-.677-2.346a.173.173,0,0,0-.081-.087.745.745,0,0,0-.176-.071,1.778,1.778,0,0,0-.244-.047,2.306,2.306,0,0,0-.286-.018Z" transform="translate(-562.648 -2511.82)" fill="#331338"/>
      <path id="Path_246" data-name="Path 246" d="M695.377,2526.3h-7.6a1.868,1.868,0,0,0-.277.019,1.123,1.123,0,0,0-.217.047.382.382,0,0,0-.133.072.078.078,0,0,0-.029.087l.7,2.346a.193.193,0,0,0,.087.091.774.774,0,0,0,.182.073,1.612,1.612,0,0,0,.252.051,2.539,2.539,0,0,0,.294.017h7.79a2.188,2.188,0,0,0,.283-.017,1.079,1.079,0,0,0,.215-.051.344.344,0,0,0,.131-.073.083.083,0,0,0,.024-.092l-.89-2.344a.191.191,0,0,0-.09-.087.791.791,0,0,0-.182-.071,1.666,1.666,0,0,0-.247-.048,2.13,2.13,0,0,0-.288-.019Z" transform="translate(-558.006 -2511.821)" fill="#331338"/>
      <path id="Path_247" data-name="Path 247" d="M696.418,2526.308l-48.677.011a2.439,2.439,0,0,0-.286.016,2.167,2.167,0,0,0-.242.047.737.737,0,0,0-.173.071.161.161,0,0,0-.081.087l-.616,2.346a.092.092,0,0,0,.033.09.377.377,0,0,0,.139.074,1.2,1.2,0,0,0,.223.049,1.943,1.943,0,0,0,.283.019l49.879-.01a2.273,2.273,0,0,0,.286-.018,1.352,1.352,0,0,0,.228-.051.459.459,0,0,0,.147-.074.1.1,0,0,0,.043-.091l-.421-2.346a.136.136,0,0,0-.073-.087.634.634,0,0,0-.168-.071,1.656,1.656,0,0,0-.24-.048,2.286,2.286,0,0,0-.285-.018Z" transform="translate(-581.775 -2511.819)" fill="#331338"/>
      <path id="Path_248" data-name="Path 248" d="M632.253,2519.354h-6.865a2.3,2.3,0,0,0-.264.014,1.846,1.846,0,0,0-.233.039.933.933,0,0,0-.177.057.232.232,0,0,0-.1.071l-1.219,1.907a.057.057,0,0,0,0,.074.248.248,0,0,0,.1.06,1.074,1.074,0,0,0,.187.04,1.975,1.975,0,0,0,.25.014h7.019a2.453,2.453,0,0,0,.269-.016,1.875,1.875,0,0,0,.236-.041.986.986,0,0,0,.179-.06.223.223,0,0,0,.1-.073l1.065-1.907a.056.056,0,0,0-.011-.071.29.29,0,0,0-.109-.057.974.974,0,0,0-.187-.039,1.938,1.938,0,0,0-.247-.014Z" transform="translate(-595.155 -2515.873)" fill="#331338"/>
      <path id="Path_249" data-name="Path 249" d="M706.029,2518.361h-7.462a1.86,1.86,0,0,0-.244.014,1,1,0,0,0-.185.038.283.283,0,0,0-.109.055.058.058,0,0,0-.016.068l.5.97a.175.175,0,0,0,.087.07.712.712,0,0,0,.168.057,1.58,1.58,0,0,0,.226.04,2.241,2.241,0,0,0,.261.014h7.555a1.913,1.913,0,0,0,.245-.014,1.058,1.058,0,0,0,.187-.038.267.267,0,0,0,.106-.058.054.054,0,0,0,.011-.07l-.579-.97a.206.206,0,0,0-.092-.068.917.917,0,0,0-.169-.055,2.1,2.1,0,0,0-.226-.038,2.288,2.288,0,0,0-.26-.014Z" transform="translate(-551.656 -2516.452)" fill="#331338"/>
      <path id="Path_250" data-name="Path 250" d="M645.176,2518.372h-7.464c-.089,0-.176.006-.256.014a1.834,1.834,0,0,0-.222.038.869.869,0,0,0-.163.055.163.163,0,0,0-.081.07l-.435.97a.057.057,0,0,0,.019.07.287.287,0,0,0,.114.057,1.037,1.037,0,0,0,.188.038,1.983,1.983,0,0,0,.249.014h7.557a2.2,2.2,0,0,0,.26-.014,1.6,1.6,0,0,0,.223-.038.724.724,0,0,0,.161-.059.137.137,0,0,0,.078-.07l.351-.969a.06.06,0,0,0-.025-.07.358.358,0,0,0-.117-.055,1.275,1.275,0,0,0-.19-.038,2.442,2.442,0,0,0-.247-.012Z" transform="translate(-587.482 -2516.446)" fill="#331338"/>
      <path id="Path_251" data-name="Path 251" d="M639.11,2518.372h-7.46a2.184,2.184,0,0,0-.258.014,1.966,1.966,0,0,0-.228.038.994.994,0,0,0-.169.055.2.2,0,0,0-.089.068l-.529.972a.054.054,0,0,0,.013.068.24.24,0,0,0,.1.057.962.962,0,0,0,.182.038,1.82,1.82,0,0,0,.241.016h7.571a2.3,2.3,0,0,0,.261-.014,1.74,1.74,0,0,0,.226-.038.768.768,0,0,0,.168-.057.186.186,0,0,0,.084-.07l.443-.97a.055.055,0,0,0-.017-.07.329.329,0,0,0-.112-.055,1.114,1.114,0,0,0-.187-.038,2.212,2.212,0,0,0-.244-.014Z" transform="translate(-591.085 -2516.446)" fill="#331338"/>
      <path id="Path_252" data-name="Path 252" d="M707.965,2518.36h-3.555a1.8,1.8,0,0,0-.192.011.9.9,0,0,0-.146.031.218.218,0,0,0-.084.044.044.044,0,0,0-.008.055l.624,1.042a.167.167,0,0,0,.074.056.762.762,0,0,0,.141.046,1.641,1.641,0,0,0,.185.031c.066.007.138.011.211.011h3.6a1.427,1.427,0,0,0,.195-.011.8.8,0,0,0,.146-.03.2.2,0,0,0,.082-.046.042.042,0,0,0,0-.057l-.671-1.042a.172.172,0,0,0-.078-.054.7.7,0,0,0-.139-.044,1.223,1.223,0,0,0-.182-.031,1.867,1.867,0,0,0-.209-.012Z" transform="translate(-548.178 -2516.452)" fill="#331338"/>
      <path id="Path_253" data-name="Path 253" d="M702.223,2527.144h-7.991a1.547,1.547,0,0,0-.223.014.805.805,0,0,0-.171.039.246.246,0,0,0-.1.058.063.063,0,0,0-.019.071l.426,1.1a.161.161,0,0,0,.074.071.664.664,0,0,0,.151.06,1.461,1.461,0,0,0,.2.04,1.821,1.821,0,0,0,.236.014H702.9a1.631,1.631,0,0,0,.226-.014.9.9,0,0,0,.169-.04.262.262,0,0,0,.1-.06.063.063,0,0,0,.013-.071l-.515-1.1a.174.174,0,0,0-.079-.071.652.652,0,0,0-.152-.057,1.359,1.359,0,0,0-.2-.039,1.854,1.854,0,0,0-.233-.014Z" transform="translate(-554.159 -2511.332)" fill="#331338"/>
      <path id="Path_254" data-name="Path 254" d="M708.777,2527.143h-7.991a1.547,1.547,0,0,0-.222.014.787.787,0,0,0-.168.039.229.229,0,0,0-.1.057.06.06,0,0,0-.011.071l.526,1.105a.173.173,0,0,0,.081.071.717.717,0,0,0,.155.06,1.621,1.621,0,0,0,.207.04,1.885,1.885,0,0,0,.236.014h8.092a1.545,1.545,0,0,0,.222-.014.836.836,0,0,0,.166-.04.223.223,0,0,0,.093-.06.06.06,0,0,0,.006-.073l-.613-1.1a.192.192,0,0,0-.085-.071.713.713,0,0,0-.157-.057,1.45,1.45,0,0,0-.207-.039,1.877,1.877,0,0,0-.234-.014Z" transform="translate(-550.329 -2511.333)" fill="#331338"/>
      <path id="Path_255" data-name="Path 255" d="M708.235,2526.236h-7.889a1.486,1.486,0,0,0-.217.015.779.779,0,0,0-.166.038.237.237,0,0,0-.1.055.059.059,0,0,0-.013.07l.518,1.078a.177.177,0,0,0,.078.07.677.677,0,0,0,.152.057,1.423,1.423,0,0,0,.2.039,1.862,1.862,0,0,0,.236.014h7.991a1.606,1.606,0,0,0,.218-.014.715.715,0,0,0,.163-.04.243.243,0,0,0,.1-.057.057.057,0,0,0,.006-.07l-.6-1.078a.206.206,0,0,0-.084-.069.8.8,0,0,0-.155-.056,1.562,1.562,0,0,0-.2-.038,1.854,1.854,0,0,0-.233-.014Z" transform="translate(-550.583 -2511.861)" fill="#331338"/>
      <path id="Path_256" data-name="Path 256" d="M715.252,2527.142h-7.991a1.517,1.517,0,0,0-.219.014.715.715,0,0,0-.163.039.207.207,0,0,0-.094.057.06.06,0,0,0-.006.071l.628,1.1a.214.214,0,0,0,.089.073.8.8,0,0,0,.16.059,1.525,1.525,0,0,0,.211.04,1.882,1.882,0,0,0,.237.014l8.092,0a1.487,1.487,0,0,0,.22-.014.741.741,0,0,0,.163-.04.205.205,0,0,0,.089-.059.059.059,0,0,0,0-.073l-.717-1.1a.228.228,0,0,0-.09-.071.859.859,0,0,0-.161-.059,1.9,1.9,0,0,0-.211-.038,1.978,1.978,0,0,0-.237-.014Z" transform="translate(-546.547 -2511.333)" fill="#331338"/>
    </g>
    <path id="Path_257" data-name="Path 257" d="M756.961,2462.663v2.268H624.154v-2.268a4.661,4.661,0,0,1,4.969-4.811h122.87C755.3,2457.852,756.961,2459.514,756.961,2462.663Z" transform="translate(-2484.635 -1587.6)" fill="#7381c6"/>
    <circle id="Ellipse_18" data-name="Ellipse 18" cx="1.339" cy="1.339" r="1.339" transform="translate(-1745.994 872.452)" fill="#a1c8b1"/>
    <path id="Path_258" data-name="Path 258" d="M702.2,2460.581a1.339,1.339,0,1,1-1.339-1.339A1.34,1.34,0,0,1,702.2,2460.581Z" transform="translate(-2440.703 -1586.79)" fill="#fedea3"/>
    <path id="Path_259" data-name="Path 259" d="M705.232,2460.581a1.339,1.339,0,1,1-1.339-1.339A1.339,1.339,0,0,1,705.232,2460.581Z" transform="translate(-2438.933 -1586.79)" fill="#e45b7e"/>
    <g id="Group_200" data-name="Group 200" transform="translate(-1824.841 886.028)">
      <path id="Path_260" data-name="Path 260" d="M648.478,2516.306h18.463a1.809,1.809,0,0,0,1.809-1.81v-2.016a11.056,11.056,0,0,0-5.775-9.7,7.238,7.238,0,1,0-10.531,0,11.054,11.054,0,0,0-5.776,9.7v2.016A1.809,1.809,0,0,0,648.478,2516.306Zm5.613-18.485a3.619,3.619,0,1,1,3.619,3.618A3.623,3.623,0,0,1,654.091,2497.82Zm3.619,7.237a7.43,7.43,0,0,1,7.422,7.63H650.288A7.433,7.433,0,0,1,657.71,2505.057Z" transform="translate(-646.669 -2454.548)" fill="#b7d8f7"/>
      <path id="Path_261" data-name="Path 261" d="M688.04,2502.776a7.238,7.238,0,1,0-10.531,0,11.054,11.054,0,0,0-5.776,9.7v2.016a1.81,1.81,0,0,0,1.809,1.81h18.465a1.81,1.81,0,0,0,1.809-1.81v-2.016A11.054,11.054,0,0,0,688.04,2502.776Zm-8.885-4.956a3.619,3.619,0,1,1,3.619,3.618A3.623,3.623,0,0,1,679.155,2497.82Zm11.043,14.867H675.352a7.426,7.426,0,1,1,14.846,0Z" transform="translate(-632.058 -2454.548)" fill="#ffcb70"/>
      <path id="Path_262" data-name="Path 262" d="M681.285,2491.731v-2.017a11.054,11.054,0,0,0-5.776-9.7,7.238,7.238,0,1,0-10.531,0,11.054,11.054,0,0,0-5.776,9.7v2.017a1.81,1.81,0,0,0,1.809,1.809h18.465A1.81,1.81,0,0,0,681.285,2491.731Zm-14.661-16.677a3.619,3.619,0,1,1,3.619,3.619A3.622,3.622,0,0,1,666.623,2475.055Zm11.043,14.865H662.82a7.426,7.426,0,1,1,14.847,0Z" transform="translate(-639.364 -2467.818)" fill="#8c9ad0"/>
      <path id="Path_263" data-name="Path 263" d="M677.029,2496.736a24.039,24.039,0,0,1-14.576.076,1.809,1.809,0,0,0-1.091,3.45,27.646,27.646,0,0,0,16.8-.089,1.809,1.809,0,1,0-1.129-3.437Z" transform="translate(-638.841 -2451.014)"/>
      <path id="Path_264" data-name="Path 264" d="M658.573,2477.476a27.651,27.651,0,0,0-7.935,14.8,1.809,1.809,0,1,0,3.56.647,24.043,24.043,0,0,1,6.886-12.845,1.809,1.809,0,1,0-2.511-2.605Z" transform="translate(-644.373 -2462.483)"/>
      <path id="Path_265" data-name="Path 265" d="M677.842,2477.476a1.81,1.81,0,1,0-2.512,2.605,24.06,24.06,0,0,1,6.887,12.845,1.809,1.809,0,0,0,3.56-.647,27.682,27.682,0,0,0-7.935-14.8Z" transform="translate(-630.284 -2462.483)"/>
    </g>
  </g>
</svg>
