<svg xmlns="http://www.w3.org/2000/svg" width="249.741" height="158.295" viewBox="0 0 249.741 158.295">
  <g id="ui_ux" transform="translate(0 0)">
    <path id="Path_85" data-name="Path 85" d="M955.363,2594.9l1.4-.014,70.479-.688c20.626-.2,40.96,1.823,58.95-10.109a57.325,57.325,0,0,0,18.011-18.927c5.762-9.977,8.2-22.337,2.335-32.846-2.406-4.311-5.955-7.97-7.837-12.535-4.192-10.171.5-21.345,3.134-31.278,1.725-6.517,2.778-13.521.674-19.926a26.645,26.645,0,0,0-10.185-13.058,51.924,51.924,0,0,0-15.261-6.949c-9.658-2.893-20.029-4.311-30.035-2.531-10.067,1.789-18.645,7.682-28.192,11.008-13.707,4.778-28.71,4.052-43.077,1.98s-28.613-5.44-43.124-5.777c-12.874-.3-24.843,3.125-32.045,14.552a30.8,30.8,0,0,0-4.871,18.01c.584,10.09,7.8,17.012,9.813,26.29a25.99,25.99,0,0,1-1.276,13.751c-2.612,7.665-7.375,14.43-10.273,21.992a33.858,33.858,0,0,0-2.485,13.9c.668,12.111,10.463,23.243,21.368,27.776C926.2,2595.06,941.142,2595.041,955.363,2594.9Z" transform="translate(-870.739 -2445.258)" fill="#dbdbdb"/>
    <path id="Rectangle_68" data-name="Rectangle 68" d="M1.484,0H248.257a1.484,1.484,0,0,1,1.484,1.484V4.876a1.484,1.484,0,0,1-1.484,1.484H1.485A1.485,1.485,0,0,1,0,4.876V1.484A1.484,1.484,0,0,1,1.484,0Z" transform="translate(0 151.934)" fill="#e5e7e8"/>
    <g id="Group_149" data-name="Group 149" transform="translate(51.71 41.889)">
      <g id="Group_129" data-name="Group 129">
        <g id="Group_128" data-name="Group 128">
          <rect id="Rectangle_69" data-name="Rectangle 69" width="39.332" height="19.991" transform="translate(53.494 88.336)" fill="#c4c5c7"/>
          <rect id="Rectangle_70" data-name="Rectangle 70" width="39.332" height="3.666" transform="translate(53.494 88.336)" fill="#adb2b6"/>
          <rect id="Rectangle_71" data-name="Rectangle 71" width="58.497" height="4.423" transform="translate(43.912 108.327)" fill="#d4d5d6"/>
          <rect id="Rectangle_72" data-name="Rectangle 72" width="146.32" height="88.336" rx="3.268" fill="#112129" stroke="#c4c5c7" stroke-miterlimit="10" stroke-width="0.385"/>
          <rect id="Rectangle_73" data-name="Rectangle 73" width="80.338" height="138.323" transform="translate(142.322 3.999) rotate(90)" fill="#1e2d6a"/>
          <path id="Path_86" data-name="Path 86" d="M1046.147,2506.639a207.694,207.694,0,0,1-19.7,14.121c-6.17,3.943-12.578,7.492-19.041,10.932-1.23.652-2.466,1.29-3.7,1.926q2.139-1.171,4.268-2.363c6.435-3.6,12.741-7.459,18.817-11.646a190.918,190.918,0,0,0,19.363-15.172v-.347a190.45,190.45,0,0,1-19.692,15.033c-6.115,4.1-12.447,7.851-18.916,11.361q-2.173,1.182-4.361,2.341,2.524-1.417,5.026-2.874,9.619-5.622,18.652-12.173a181.364,181.364,0,0,0,19.291-16.188v-.354a180.725,180.725,0,0,1-19.635,16.063q-9.07,6.411-18.748,11.886c-2.33,1.32-4.681,2.6-7.041,3.867a215.138,215.138,0,0,0,26.263-17.362,164.849,164.849,0,0,0,16.779-14.887c.806-.817,1.6-1.648,2.382-2.485v-.361q-1.28,1.337-2.591,2.641a164.257,164.257,0,0,1-16.928,14.626,219.448,219.448,0,0,1-28.42,18.082c3.634-2.11,7.231-4.286,10.756-6.582a192.4,192.4,0,0,0,18.25-13.439,152.089,152.089,0,0,0,18.934-18.8v-.371a151.4,151.4,0,0,1-19.307,18.715,192.338,192.338,0,0,1-18.354,13.151c-3.78,2.392-7.646,4.649-11.551,6.836,4.3-2.57,8.545-5.244,12.657-8.114a176.1,176.1,0,0,0,17.971-14.271,145.085,145.085,0,0,0,15.723-16.685c.98-1.236,1.93-2.5,2.86-3.772v-.386q-1.505,2.019-3.088,3.975A144.528,144.528,0,0,1,1027.171,2510a175.054,175.054,0,0,1-18.077,13.979c-4.2,2.853-8.531,5.5-12.925,8.046a176.178,176.178,0,0,0,31.974-25.038,124.146,124.146,0,0,0,18-22.56v-.417a123.469,123.469,0,0,1-18.419,22.559,177.652,177.652,0,0,1-34.768,26.084c13.289-8.39,25.7-18.3,36.1-30.1a117.676,117.676,0,0,0,13.921-19.338q1.683-2.949,3.163-6.01v-.476q-1.6,3.229-3.418,6.34a117.221,117.221,0,0,1-14.105,19.093c-10.633,11.776-23.285,21.579-36.791,29.821-.182.109-.367.214-.549.323,1.176-.766,2.348-1.541,3.506-2.335a172.964,172.964,0,0,0,19.383-15.347,130.8,130.8,0,0,0,16.537-18.35,106.094,106.094,0,0,0,12.361-21.338c.1-.228.184-.457.279-.685h-.309c-.082.188-.157.38-.241.568a105.546,105.546,0,0,1-12.561,21.1,130.059,130.059,0,0,1-16.662,18.053,172.135,172.135,0,0,1-19.443,15.021q-2.785,1.857-5.637,3.614.523-.353,1.046-.7c1.714-1.17,3.47-2.276,5.11-3.55l4.989-3.72,4.809-3.948c.4-.333.807-.651,1.2-1l1.152-1.046,2.3-2.093c.761-.7,1.55-1.378,2.287-2.107l2.189-2.21a125.948,125.948,0,0,0,15.771-19.188,101.8,101.8,0,0,0,9.773-18.8h-.364a101.476,101.476,0,0,1-9.9,18.471,125.282,125.282,0,0,1-15.9,18.889l-2.2,2.168c-.742.715-1.534,1.377-2.3,2.067l-2.311,2.053-1.156,1.024c-.388.339-.8.649-1.2.975l-4.823,3.866-5,3.634c-1.641,1.246-3.4,2.323-5.116,3.465-.975.636-1.947,1.276-2.927,1.908q.589-.407,1.181-.806l2.5-1.713,2.425-1.829,2.42-1.832c.809-.608,1.621-1.21,2.384-1.876l4.657-3.894c2.987-2.73,5.995-5.44,8.757-8.4a123.055,123.055,0,0,0,15.041-18.99,97.182,97.182,0,0,0,9.531-19.18h-.348a97.364,97.364,0,0,1-9.677,18.862,122.416,122.416,0,0,1-15.179,18.694c-2.778,2.908-5.8,5.564-8.8,8.238l-4.671,3.812c-.766.651-1.58,1.24-2.39,1.835l-2.425,1.789-2.428,1.784-2.507,1.671c-1.349.88-2.678,1.789-4.032,2.66,2.389-1.65,4.774-3.3,7.039-5.123,1.562-1.2,3.147-2.381,4.624-3.693,1.491-1.29,3.025-2.532,4.483-3.862l4.3-4.064c1.412-1.377,2.737-2.843,4.108-4.26a120.213,120.213,0,0,0,14.315-18.785,98.153,98.153,0,0,0,9.236-19.559h-.337a97.712,97.712,0,0,1-9.4,19.25,119.4,119.4,0,0,1-14.457,18.49c-1.38,1.391-2.712,2.828-4.13,4.179l-4.323,3.981c-1.463,1.3-3,2.517-4.5,3.779-1.48,1.283-3.068,2.433-4.635,3.607-3.083,2.418-6.39,4.528-9.623,6.736-.147.095-.3.185-.446.28l3.581-2.53c1.566-1.116,3.044-2.351,4.568-3.52.754-.6,1.524-1.173,2.262-1.789l2.178-1.89c1.437-1.278,2.944-2.475,4.3-3.844,1.38-1.339,2.783-2.654,4.143-4.013l3.934-4.215a117.447,117.447,0,0,0,13.586-18.574,97.263,97.263,0,0,0,8.9-19.927h-.324a96.831,96.831,0,0,1-9.08,19.628,116.622,116.622,0,0,1-13.734,18.282l-3.959,4.135c-1.366,1.331-2.777,2.62-4.162,3.93-1.358,1.341-2.871,2.51-4.313,3.76l-2.184,1.847c-.741.6-1.513,1.162-2.267,1.746-1.529,1.141-3.009,2.346-4.576,3.433l-4.717,3.242c-.431.3-.874.578-1.314.863q4.443-3.16,8.69-6.6a139.039,139.039,0,0,0,16.1-15.63,113.861,113.861,0,0,0,12.861-18.351,96.674,96.674,0,0,0,8.546-20.285h-.312a96.368,96.368,0,0,1-8.744,19.994,113.123,113.123,0,0,1-13.016,18.063,138.058,138.058,0,0,1-16.171,15.3c-3.438,2.726-7,5.286-10.637,7.736q4.476-3.265,8.74-6.824a134.32,134.32,0,0,0,15.337-15.54,105.562,105.562,0,0,0,12.173-18.092,95.9,95.9,0,0,0,8.16-20.634h-.3a95.316,95.316,0,0,1-8.377,20.353,104.806,104.806,0,0,1-12.333,17.807,133.11,133.11,0,0,1-15.42,15.206c-3.7,3.017-7.541,5.838-11.484,8.526.437-.326.875-.65,1.311-.979l2.131-1.591,2.05-1.692,2.047-1.7c.679-.57,1.377-1.116,2.015-1.732l3.908-3.6c1.281-1.225,2.485-2.528,3.729-3.787,1.266-1.241,2.406-2.6,3.571-3.934l1.746-2c.586-.665,1.1-1.39,1.652-2.08l1.632-2.1c.546-.7,1.094-1.393,1.58-2.133l3.011-4.375,2.754-4.542c.481-.744.855-1.548,1.279-2.325l1.24-2.348a95.871,95.871,0,0,0,7.753-20.971h-.286a95.336,95.336,0,0,1-7.989,20.7l-1.265,2.316c-.432.764-.814,1.559-1.3,2.292l-2.8,4.472-3.049,4.3c-.494.728-1.047,1.412-1.6,2.1l-1.648,2.058c-.557.677-1.077,1.388-1.667,2.04l-1.76,1.961c-1.175,1.308-2.322,2.64-3.595,3.853-1.254,1.232-2.465,2.506-3.75,3.7l-3.922,3.519c-.64.6-1.341,1.133-2.021,1.689l-2.05,1.655-2.053,1.648-2.134,1.546q-2.03,1.5-4.114,2.938c3.615-2.724,7.106-5.623,10.438-8.68a111.646,111.646,0,0,0,13.884-15.259,102.486,102.486,0,0,0,10.81-17.544,96.025,96.025,0,0,0,7.326-21.306h-.272a95.716,95.716,0,0,1-7.581,21.047,101.66,101.66,0,0,1-10.982,17.265,110.539,110.539,0,0,1-13.976,14.929,139.362,139.362,0,0,1-13.206,10.389c1.271-.979,2.533-1.971,3.8-2.951,2.53-2.192,5.124-4.309,7.481-6.688,2.458-2.272,4.681-4.779,6.94-7.243l3.2-3.859c.549-.63,1.024-1.32,1.526-1.99l1.488-2.018a106,106,0,0,0,10.125-17.261,96.183,96.183,0,0,0,6.891-21.619h-.258a95.764,95.764,0,0,1-7.164,21.371,105.3,105.3,0,0,1-10.3,16.988l-1.505,1.979c-.507.657-.986,1.333-1.542,1.95l-3.229,3.779c-2.275,2.407-4.51,4.858-6.978,7.072-2.367,2.321-4.97,4.379-7.5,6.51-2.223,1.665-4.42,3.356-6.691,4.956a112.028,112.028,0,0,0,12.257-10.759c.57-.58,1.174-1.121,1.713-1.73l1.634-1.8c1.08-1.211,2.21-2.377,3.2-3.668,1.011-1.266,2.053-2.512,3.042-3.8l2.835-3.954a105.051,105.051,0,0,0,9.406-16.985,93.93,93.93,0,0,0,6.465-21.907h-.245a93.434,93.434,0,0,1-6.758,21.67,104.245,104.245,0,0,1-9.591,16.717l-2.87,3.877c-1,1.258-2.05,2.477-3.071,3.716-1,1.262-2.137,2.4-3.223,3.583l-1.645,1.761c-.54.6-1.149,1.122-1.719,1.688a118.136,118.136,0,0,1-14.12,11.818,118.564,118.564,0,0,0,12.2-11.148,113.283,113.283,0,0,0,11.673-14.8,101.984,101.984,0,0,0,8.7-16.691l.863-2.19c.285-.732.594-1.455.818-2.208l1.464-4.474,1.2-4.55c.1-.38.206-.756.291-1.138l.231-1.154.462-2.306q.394-2.078.692-4.17h-.231q-.332,2.063-.749,4.112l-.5,2.291-.249,1.144c-.092.38-.207.754-.309,1.131l-1.27,4.511-1.526,4.429c-.236.744-.556,1.458-.849,2.181l-.893,2.164a101.3,101.3,0,0,1-8.9,16.43,112.432,112.432,0,0,1-11.786,14.475,121.864,121.864,0,0,1-14.076,12.244c-.277.2-.56.4-.839.6a114.981,114.981,0,0,0,12.958-12.254,99.7,99.7,0,0,0,18.953-31,92.878,92.878,0,0,0,5.566-22.461h-.215a92.511,92.511,0,0,1-5.9,22.249,98.874,98.874,0,0,1-19.274,30.422,113.366,113.366,0,0,1-13.338,12.172c-.771.6-1.558,1.173-2.34,1.756.383-.318.776-.624,1.154-.947a99.513,99.513,0,0,0,12.546-12.469c.931-1.144,1.92-2.241,2.8-3.425l2.629-3.558c.863-1.2,1.63-2.457,2.449-3.682.4-.622.825-1.222,1.192-1.862l1.1-1.917c1.528-2.523,2.789-5.191,4.1-7.828l1.743-4.057c.305-.67.56-1.362.806-2.054l.753-2.075c.247-.692.508-1.38.746-2.077l.633-2.113c.4-1.415.9-2.8,1.2-4.244l1.015-4.291.776-4.339q.439-2.821.717-5.66h-.2c-.218,1.877-.483,3.75-.806,5.612l-.844,4.31-1.083,4.257c-.324,1.428-.842,2.8-1.263,4.2l-.665,2.091c-.247.687-.518,1.368-.776,2.052l-.784,2.048c-.255.685-.518,1.368-.833,2.028l-1.8,4c-1.342,2.6-2.634,5.219-4.192,7.693l-1.122,1.883c-.374.625-.809,1.214-1.211,1.823-.831,1.2-1.61,2.436-2.484,3.6l-2.661,3.474c-.888,1.157-1.885,2.226-2.822,3.342a98.566,98.566,0,0,1-12.592,12.1q-1.655,1.366-3.367,2.667c.734-.635,1.463-1.279,2.2-1.912l1.613-1.409,1.531-1.5c1.01-1.01,2.063-1.977,3.033-3.023l2.878-3.169c.492-.518.935-1.077,1.382-1.634l1.344-1.665a92.183,92.183,0,0,0,9.43-14.239c.339-.627.706-1.238,1.019-1.877l.926-1.925c.6-1.292,1.277-2.547,1.785-3.878l1.626-3.946,1.4-4.032a100.964,100.964,0,0,0,3.9-16.577q.442-3.193.69-6.4h-.184q-.3,3.191-.8,6.36A100.517,100.517,0,0,1,975,2497.04l-1.459,3.979-1.683,3.891c-.526,1.313-1.22,2.546-1.838,3.815l-.95,1.891c-.32.63-.7,1.229-1.042,1.844a91.473,91.473,0,0,1-9.57,13.925l-1.357,1.621c-.45.541-.9,1.086-1.391,1.589l-2.894,3.079c-.975,1.015-2.032,1.95-3.044,2.929l-1.534,1.45-1.615,1.363c-1.083.9-2.135,1.833-3.242,2.705s-2.224,1.737-3.357,2.576c-2.264,1.684-4.564,3.317-6.916,4.875-3.166,2.112-6.406,4.108-9.7,6.014h37.859q13.636-5.682,26.961-12.073c6.6-3.207,13.153-6.519,19.587-10.045s12.809-7.177,18.942-11.214a207.923,207.923,0,0,0,19.386-14.272Z" transform="translate(-903.825 -2470.248)" fill="#32a9d6"/>
          <rect id="Rectangle_74" data-name="Rectangle 74" width="138.323" height="3.322" transform="translate(3.999 3.999)" fill="#6dc8ef"/>
        </g>
      </g>
      <g id="Group_133" data-name="Group 133" transform="translate(9.622 11.703)">
        <rect id="Rectangle_75" data-name="Rectangle 75" width="101.342" height="66.844" rx="1.493" transform="translate(14.422)" fill="#d7e8ef"/>
        <path id="Path_87" data-name="Path 87" d="M930.833,2481.7a1.361,1.361,0,1,1-1.361-1.362A1.361,1.361,0,0,1,930.833,2481.7Z" transform="translate(-910.707 -2478.398)" fill="#ff5400"/>
        <path id="Path_88" data-name="Path 88" d="M934.559,2481.7a1.36,1.36,0,1,1-1.36-1.362A1.359,1.359,0,0,1,934.559,2481.7Z" transform="translate(-908.533 -2478.398)" fill="#0087ff"/>
        <path id="Path_89" data-name="Path 89" d="M938.288,2481.7a1.36,1.36,0,1,1-1.36-1.362A1.36,1.36,0,0,1,938.288,2481.7Z" transform="translate(-906.361 -2478.398)" fill="#ffbf00"/>
        <rect id="Rectangle_76" data-name="Rectangle 76" width="66.609" height="58.804" transform="translate(47.398 6.299)" fill="#9eb7c7"/>
        <g id="Group_130" data-name="Group 130" transform="translate(17.405 9.536)">
          <rect id="Rectangle_77" data-name="Rectangle 77" width="17.788" height="1.015" fill="#9eb7c7"/>
          <rect id="Rectangle_78" data-name="Rectangle 78" width="26.628" height="1.015" transform="translate(0 5.06)" fill="#9eb7c7"/>
          <rect id="Rectangle_79" data-name="Rectangle 79" width="26.628" height="1.015" transform="translate(0 8.36)" fill="#9eb7c7"/>
          <rect id="Rectangle_80" data-name="Rectangle 80" width="26.628" height="1.015" transform="translate(0 11.66)" fill="#9eb7c7"/>
          <rect id="Rectangle_81" data-name="Rectangle 81" width="26.628" height="1.015" transform="translate(0 14.96)" fill="#9eb7c7"/>
          <rect id="Rectangle_82" data-name="Rectangle 82" width="26.628" height="1.015" transform="translate(0 18.259)" fill="#9eb7c7"/>
          <rect id="Rectangle_83" data-name="Rectangle 83" width="26.628" height="1.015" transform="translate(0 21.559)" fill="#9eb7c7"/>
          <rect id="Rectangle_84" data-name="Rectangle 84" width="26.628" height="1.015" transform="translate(0 24.859)" fill="#9eb7c7"/>
          <rect id="Rectangle_85" data-name="Rectangle 85" width="17.512" height="1.015" transform="translate(0 28.159)" fill="#9eb7c7"/>
        </g>
        <g id="Group_132" data-name="Group 132">
          <rect id="Rectangle_86" data-name="Rectangle 86" width="11.245" height="66.844" rx="1.789" fill="#d7e8ef"/>
          <rect id="Rectangle_87" data-name="Rectangle 87" width="6.74" height="6.74" transform="translate(2.252 3.303)" fill="none" stroke="#9eb7c7" stroke-miterlimit="10" stroke-width="0.22"/>
          <rect id="Rectangle_88" data-name="Rectangle 88" width="6.74" height="6.74" transform="translate(2.252 12.616)" fill="none" stroke="#9eb7c7" stroke-miterlimit="10" stroke-width="0.22"/>
          <rect id="Rectangle_89" data-name="Rectangle 89" width="6.74" height="6.74" transform="translate(2.252 21.928)" fill="none" stroke="#9eb7c7" stroke-miterlimit="10" stroke-width="0.22"/>
          <rect id="Rectangle_90" data-name="Rectangle 90" width="6.74" height="6.74" transform="translate(2.252 31.241)" fill="none" stroke="#9eb7c7" stroke-miterlimit="10" stroke-width="0.22"/>
          <rect id="Rectangle_91" data-name="Rectangle 91" width="6.74" height="6.74" transform="translate(2.252 40.554)" fill="none" stroke="#9eb7c7" stroke-miterlimit="10" stroke-width="0.22"/>
          <rect id="Rectangle_92" data-name="Rectangle 92" width="6.74" height="6.74" transform="translate(2.252 49.866)" fill="none" stroke="#9eb7c7" stroke-miterlimit="10" stroke-width="0.22"/>
          <path id="Path_90" data-name="Path 90" d="M922.752,2483.891a1.523,1.523,0,1,1-1.523-1.523A1.522,1.522,0,0,1,922.752,2483.891Z" transform="translate(-915.607 -2477.217)" fill="#9eb7c7"/>
          <g id="Group_131" data-name="Group 131" transform="translate(2.426 62.327)">
            <path id="Path_91" data-name="Path 91" d="M920.005,2519.167a.678.678,0,1,1-.679-.679A.678.678,0,0,1,920.005,2519.167Z" transform="translate(-918.649 -2518.488)" fill="#9eb7c7"/>
            <path id="Path_92" data-name="Path 92" d="M921.6,2519.167a.678.678,0,1,1-.679-.679A.678.678,0,0,1,921.6,2519.167Z" transform="translate(-917.722 -2518.488)" fill="#9eb7c7"/>
            <path id="Path_93" data-name="Path 93" d="M923.188,2519.167a.678.678,0,1,1-.679-.679A.678.678,0,0,1,923.188,2519.167Z" transform="translate(-916.794 -2518.488)" fill="#9eb7c7"/>
          </g>
          <rect id="Rectangle_93" data-name="Rectangle 93" width="2.782" height="2.782" transform="translate(4.232 14.595)" fill="#9eb7c7"/>
          <path id="Path_94" data-name="Path 94" d="M921.326,2494.119l-1.786,3.094h3.573Z" transform="translate(-915.704 -2470.367)" fill="#9eb7c7"/>
          <path id="Path_95" data-name="Path 95" d="M922.752,2501.531a1.523,1.523,0,1,1-1.523-1.523A1.522,1.522,0,0,1,922.752,2501.531Z" transform="translate(-915.607 -2466.933)" fill="#9eb7c7"/>
          <rect id="Rectangle_94" data-name="Rectangle 94" width="2.782" height="2.782" transform="translate(4.232 42.52)" fill="#9eb7c7"/>
          <path id="Path_96" data-name="Path 96" d="M921.326,2511.76l-1.786,3.094h3.573Z" transform="translate(-915.704 -2460.083)" fill="#9eb7c7"/>
        </g>
      </g>
      <g id="Group_134" data-name="Group 134" transform="translate(62.379 22.026)">
        <rect id="Rectangle_95" data-name="Rectangle 95" width="52.894" height="47.759" transform="translate(1.498 1.498)" fill="none" stroke="#f7fafb" stroke-miterlimit="10" stroke-width="0.44"/>
        <rect id="Rectangle_96" data-name="Rectangle 96" width="2.996" height="2.996" fill="#f7fafb"/>
        <rect id="Rectangle_97" data-name="Rectangle 97" width="2.996" height="2.996" transform="translate(0 47.759)" fill="#f7fafb"/>
        <rect id="Rectangle_98" data-name="Rectangle 98" width="2.996" height="2.996" transform="translate(52.894)" fill="#f7fafb"/>
        <rect id="Rectangle_99" data-name="Rectangle 99" width="2.996" height="2.996" transform="translate(26.448)" fill="#f7fafb"/>
        <rect id="Rectangle_100" data-name="Rectangle 100" width="2.996" height="2.996" transform="translate(26.448 47.759)" fill="#f7fafb"/>
        <rect id="Rectangle_101" data-name="Rectangle 101" width="2.996" height="2.996" transform="translate(0 26.875) rotate(-90)" fill="#f7fafb"/>
        <rect id="Rectangle_102" data-name="Rectangle 102" width="2.996" height="2.996" transform="translate(52.894 26.875) rotate(-90)" fill="#f7fafb"/>
        <rect id="Rectangle_103" data-name="Rectangle 103" width="2.996" height="2.996" transform="translate(52.894 47.759)" fill="#f7fafb"/>
      </g>
      <g id="Group_148" data-name="Group 148" transform="translate(78.24 28.501)">
        <g id="Group_135" data-name="Group 135">
          <path id="Path_97" data-name="Path 97" d="M984.633,2501.812a12.085,12.085,0,1,0-20.534,8.636,13.659,13.659,0,0,1,4.228,9.737v1.534h8.442v-1.268a14.22,14.22,0,0,1,4.3-10.068A12.043,12.043,0,0,0,984.633,2501.812Z" transform="translate(-960.465 -2489.726)" fill="#ffbf00"/>
        </g>
        <g id="Group_137" data-name="Group 137" transform="translate(9.383 35.763)">
          <g id="Group_136" data-name="Group 136">
            <path id="Path_98" data-name="Path 98" d="M971.11,2514.36h-4.035l-.683-2.041h5.4Z" transform="translate(-966.392 -2512.319)" fill="#3b4e80"/>
          </g>
        </g>
        <g id="Group_140" data-name="Group 140" transform="translate(9.582 13.266)">
          <g id="Group_138" data-name="Group 138">
            <path id="Path_99" data-name="Path 99" d="M967.629,2508.122a1.9,1.9,0,0,1-.6-.232.937.937,0,0,1-.508-.782v-7.453a.992.992,0,0,1,.629-.846v-.021a.611.611,0,0,1,.324-.51,1.266,1.266,0,0,1,.659-.171c.552,0,.983.3.983.681v.021a.99.99,0,0,1,.627.846v7.451c0,.6-.707,1.067-1.61,1.067A2.435,2.435,0,0,1,967.629,2508.122Zm.714-9.6a1.109,1.109,0,0,0-.214-.021.877.877,0,0,0-.45.111c-.086.052-.136.115-.135.171a.1.1,0,0,0,.014.049l.092.194-.2.078c-.331.127-.535.337-.535.546v7.451a.585.585,0,0,0,.318.445,1.718,1.718,0,0,0,.893.223c.658,0,1.213-.306,1.213-.667v-7.453c0-.209-.2-.419-.534-.546l-.2-.078.09-.193a.157.157,0,0,0,.016-.051C968.714,2498.7,968.574,2498.575,968.343,2498.526Z" transform="translate(-966.518 -2498.107)" fill="#edf3f5"/>
          </g>
          <g id="Group_139" data-name="Group 139" transform="translate(1.782)">
            <path id="Path_100" data-name="Path 100" d="M968.755,2508.122a1.9,1.9,0,0,1-.6-.232.937.937,0,0,1-.508-.782v-7.453a.989.989,0,0,1,.628-.846v-.019c0-.383.432-.682.983-.682a1.282,1.282,0,0,1,.659.171.614.614,0,0,1,.325.51v.021a.99.99,0,0,1,.627.846v7.451c0,.6-.708,1.067-1.61,1.069A2.539,2.539,0,0,1,968.755,2508.122Zm.714-9.594a.963.963,0,0,0-.214-.022c-.358,0-.586.167-.586.282a.129.129,0,0,0,.016.049l.092.194-.2.078c-.331.128-.535.337-.535.546v7.451a.585.585,0,0,0,.318.445,1.737,1.737,0,0,0,.893.223c.659,0,1.212-.306,1.212-.667v-7.453c0-.209-.2-.418-.535-.546l-.2-.078.094-.194a.135.135,0,0,0,.016-.048c0-.057-.051-.12-.135-.173A.735.735,0,0,0,969.469,2498.528Z" transform="translate(-967.644 -2498.107)" fill="#edf3f5"/>
          </g>
        </g>
        <g id="Group_141" data-name="Group 141" transform="translate(11.884 22.939)">
          <rect id="Rectangle_104" data-name="Rectangle 104" width="0.399" height="9.054" fill="#edf3f5"/>
        </g>
        <g id="Group_142" data-name="Group 142" transform="translate(6.394 0.432)" style="mix-blend-mode: multiply;isolation: isolate">
          <path id="Path_101" data-name="Path 101" d="M973.391,2490a14.253,14.253,0,0,1-8.886,24.024,13.163,13.163,0,0,1,1.469,6v1.534h8.442v-1.268a14.22,14.22,0,0,1,4.3-10.068,12.082,12.082,0,0,0-5.32-20.225Z" transform="translate(-964.504 -2489.999)" fill="#eff0f0"/>
        </g>
        <g id="Group_143" data-name="Group 143" transform="translate(7.509 28.851)">
          <path id="Rectangle_105" data-name="Rectangle 105" d="M0,0H9.15a0,0,0,0,1,0,0V4.777A2.135,2.135,0,0,1,7.015,6.913H2.135A2.135,2.135,0,0,1,0,4.777V0A0,0,0,0,1,0,0Z" fill="#455b93"/>
        </g>
        <g id="Group_144" data-name="Group 144" transform="translate(7.333 29.866)">
          <rect id="Rectangle_106" data-name="Rectangle 106" width="9.501" height="1.084" fill="#3b4e80"/>
        </g>
        <g id="Group_145" data-name="Group 145" transform="translate(7.333 31.765)">
          <rect id="Rectangle_107" data-name="Rectangle 107" width="9.501" height="1.084" fill="#3b4e80"/>
        </g>
        <g id="Group_146" data-name="Group 146" transform="translate(7.333 33.665)">
          <rect id="Rectangle_108" data-name="Rectangle 108" width="9.501" height="1.084" fill="#3b4e80"/>
        </g>
        <g id="Group_147" data-name="Group 147" transform="translate(3.918 3.178)">
          <path id="Path_102" data-name="Path 102" d="M969.508,2495.019a3.284,3.284,0,1,1-3.283-3.285A3.284,3.284,0,0,1,969.508,2495.019Z" transform="translate(-962.94 -2491.734)" fill="#ffe37f"/>
        </g>
      </g>
      <path id="Path_103" data-name="Path 103" d="M916.787,2526.548a.678.678,0,1,1-.678-.677A.679.679,0,0,1,916.787,2526.548Z" transform="translate(-908.478 -2440.155)" fill="#ff5400"/>
    </g>
    <g id="Group_151" data-name="Group 151" transform="translate(201.52 39.104)">
      <g id="Group_150" data-name="Group 150">
        <path id="Path_104" data-name="Path 104" d="M1025.272,2470.451a1.67,1.67,0,0,0-2.362,0l-16.743,16.754a1.67,1.67,0,0,0,0,2.363l4.076,4.073,19.1-19.116Z" transform="translate(-1005.678 -2469.962)" fill="#9eb7c7"/>
        <path id="Path_105" data-name="Path 105" d="M1008.563,2491.96l.631.632a1.669,1.669,0,0,0,2.362,0l16.743-16.754a1.67,1.67,0,0,0,0-2.362l-.632-.63Z" transform="translate(-1003.996 -2468.281)" fill="#6a8d9f"/>
        <rect id="Rectangle_109" data-name="Rectangle 109" width="18.201" height="8.16" transform="matrix(0.707, -0.707, 0.707, 0.707, 1.914, 14.791)" fill="#ff7900"/>
        <rect id="Rectangle_110" data-name="Rectangle 110" width="9.993" height="4.48" transform="translate(6.116 13.188) rotate(-45.021)" fill="#ff5400"/>
        <rect id="Rectangle_111" data-name="Rectangle 111" width="18.201" height="3.289" transform="matrix(0.707, -0.707, 0.707, 0.707, 7.686, 20.559)" fill="#ff5400"/>
      </g>
    </g>
    <g id="Group_152" data-name="Group 152" transform="translate(34.087 41.832)">
      <path id="Path_106" data-name="Path 106" d="M908.226,2471.685V2482.1a1.6,1.6,0,1,1-.758,0v-10.414l-7.563,11.969,7.943,12.568,7.942-12.568Z" transform="translate(-899.905 -2471.685)" fill="#9eb7c7"/>
      <rect id="Rectangle_112" data-name="Rectangle 112" width="2.345" height="10.569" transform="translate(11.441 19.594)" fill="#0071ed"/>
      <rect id="Rectangle_113" data-name="Rectangle 113" width="9.343" height="10.569" transform="translate(2.099 19.594)" fill="#0087ff"/>
      <rect id="Rectangle_114" data-name="Rectangle 114" width="14.635" height="2.812" rx="0.656" transform="translate(0.625 16.782)" fill="#5d60f7"/>
    </g>
    <g id="Group_159" data-name="Group 159" transform="translate(178.508 71.199)">
      <g id="Group_155" data-name="Group 155" transform="translate(16.213)">
        <g id="Group_153" data-name="Group 153" transform="translate(3.509)">
          <path id="Path_107" data-name="Path 107" d="M1008.495,2521.487l-4.895-1.98,13.825-27.689a2.857,2.857,0,0,1,3.625-1.373h0Z" transform="translate(-1003.6 -2490.237)" fill="#b0b5bb"/>
        </g>
        <g id="Group_154" data-name="Group 154" transform="translate(0 29.27)">
          <path id="Path_108" data-name="Path 108" d="M1010.3,2519.686a6.434,6.434,0,0,0-4.043-.262l3.525-8.716-4.895-1.98,1.233,3.992-4.268,10.547a6.488,6.488,0,1,0,8.447-3.581Zm-4.116,10.177a4.491,4.491,0,1,1,5.846-2.479A4.49,4.49,0,0,1,1006.189,2529.864Z" transform="translate(-1001.383 -2508.728)" fill="#7020c3"/>
        </g>
      </g>
      <g id="Group_158" data-name="Group 158" transform="translate(0 9.811)">
        <g id="Group_156" data-name="Group 156" transform="translate(20.826)">
          <path id="Path_109" data-name="Path 109" d="M1004.3,2514.757l2.889,4.42,24.493-18.919a2.856,2.856,0,0,0,.644-3.823h0Z" transform="translate(-1004.297 -2496.435)" fill="#c4c5c7"/>
        </g>
        <g id="Group_157" data-name="Group 157" transform="translate(0 16.612)">
          <path id="Path_110" data-name="Path 110" d="M994.079,2507.987a6.488,6.488,0,1,0,7.1,10.861l9.521-6.228,4.155.439-2.889-4.419-7.869,5.144a6.478,6.478,0,0,0-10.018-5.8Zm1.092,1.672a4.49,4.49,0,1,1-1.3,6.216A4.492,4.492,0,0,1,995.171,2509.659Z" transform="translate(-991.141 -2506.93)" fill="#9635ee"/>
        </g>
      </g>
    </g>
    <g id="Group_162" data-name="Group 162" transform="translate(15.346 60.478)">
      <g id="Group_161" data-name="Group 161">
        <path id="Path_111" data-name="Path 111" d="M910.3,2508.5A13.226,13.226,0,1,1,913.1,2490,13.226,13.226,0,0,1,910.3,2508.5Z" transform="translate(-887.389 -2482.789)" fill="#38baeb"/>
        <path id="Path_112" data-name="Path 112" d="M896.75,2497.533a3.875,3.875,0,1,1,.818-5.419A3.876,3.876,0,0,1,896.75,2497.533Z" transform="translate(-886.603 -2479.341)" fill="#edf4f6" opacity="0.2"/>
        <path id="Path_113" data-name="Path 113" d="M894.191,2486.4a15.061,15.061,0,1,0,21.06,3.185A15.058,15.058,0,0,0,894.191,2486.4Zm16.786,22.768a13.226,13.226,0,1,1,2.8-18.494A13.226,13.226,0,0,1,910.976,2509.172Z" transform="translate(-888.065 -2483.464)" fill="#112129"/>
        <g id="Group_160" data-name="Group 160" transform="translate(23.159 26.564)">
          <rect id="Rectangle_115" data-name="Rectangle 115" width="2.089" height="14.252" transform="translate(0 1.24) rotate(-36.401)" fill="#9eb7c7"/>
        </g>
        <rect id="Rectangle_116" data-name="Rectangle 116" width="4.641" height="17.03" transform="translate(25.789 33.368) rotate(-36.401)" fill="#112129"/>
        <path id="Path_114" data-name="Path 114" d="M910.742,2514.218l3.723,5.051a2.321,2.321,0,1,0,3.736-2.754l-3.725-5.051Z" transform="translate(-874.846 -2467.142)" fill="#9eb7c7"/>
      </g>
    </g>
    <g id="Group_163" data-name="Group 163" transform="translate(200.902 125.269)">
      <path id="Path_115" data-name="Path 115" d="M1020.071,2543.549a4.693,4.693,0,0,0,4.676-4.674l-.014-9.66h-4.541v-2.853h5.246a2.164,2.164,0,0,1,2.161,2.162v10.351a7.537,7.537,0,0,1-7.525,7.527h-.576v-2.851Z" transform="translate(-997.004 -2523.248)" fill="#c4c5c7"/>
      <path id="Rectangle_117" data-name="Rectangle 117" d="M4.353,0H19.794a4.353,4.353,0,0,1,4.353,4.353V29.9a0,0,0,0,1,0,0H0a0,0,0,0,1,0,0V4.353A4.353,4.353,0,0,1,4.353,0Z" transform="translate(24.147 29.903) rotate(180)" fill="#c4c5c7"/>
      <path id="Path_116" data-name="Path 116" d="M1017.857,2524.78v26.644a2.042,2.042,0,0,1-2.04,2.04h4.829a2.042,2.042,0,0,0,2.04-2.04V2524.78Z" transform="translate(-999.149 -2524.17)" fill="#b5b7bb"/>
      <rect id="Rectangle_118" data-name="Rectangle 118" width="3.474" height="25.152" transform="translate(2.092 1.895)" fill="#dbdee2"/>
    </g>
    <g id="Group_166" data-name="Group 166" transform="translate(195.315 81.716)">
      <g id="Group_164" data-name="Group 164">
        <path id="Path_117" data-name="Path 117" d="M1045.908,2496.884s-24.094,25.611-33.006,36.522l2.846,2.351,0,.007,2.851,2.346c9.035-10.809,29.647-39.3,29.647-39.3a2.5,2.5,0,0,0-2.333-1.928Z" transform="translate(-995.262 -2496.881)" fill="#9635ee"/>
        <path id="Path_118" data-name="Path 118" d="M1020.241,2522.305l-2.846-2.351c-.9,1.086-1.641,2.036-2.191,2.789-6.036,8.322-10.009,14.49-10.009,14.49l1.585,1.361,1.61,1.331.025-.032s5.311-5.065,12.344-12.561c.638-.681,1.431-1.591,2.328-2.677l-2.851-2.346Z" transform="translate(-999.754 -2483.43)" fill="#ffbf00"/>
        <path id="Path_119" data-name="Path 119" d="M1007.173,2530.89s-5.428.505-5.415,9.833c9.162-1.746,8.635-7.169,8.635-7.169l-1.61-1.332Z" transform="translate(-1001.758 -2477.056)" fill="#5d60f7"/>
      </g>
      <g id="Group_165" data-name="Group 165" transform="translate(5.441)" style="mix-blend-mode: multiply;isolation: isolate">
        <path id="Path_120" data-name="Path 120" d="M1005.195,2550.685s3.973-6.169,10.009-14.49c.549-.753,1.293-1.7,2.191-2.789,8.912-10.911,33.006-36.522,33.006-36.522a2.182,2.182,0,0,1,1.491.571l-45.112,54.591Z" transform="translate(-1005.195 -2496.881)" fill="#eae5d8"/>
      </g>
    </g>
    <g id="Group_170" data-name="Group 170" transform="translate(20.591 130.898)">
      <g id="Group_167" data-name="Group 167" transform="translate(0 15.868)">
        <path id="Path_121" data-name="Path 121" d="M940.771,2537.975H891.379v.73h2.737v6.476h-2.737v.729h49.392a3.968,3.968,0,1,0,0-7.935Z" transform="translate(-891.379 -2537.975)" fill="#ff006f"/>
        <path id="Path_122" data-name="Path 122" d="M915.341,2538.436a3.238,3.238,0,0,1,0,6.476H892.385a7.846,7.846,0,0,0,0-6.476Z" transform="translate(-890.792 -2537.707)" fill="#ced9e0"/>
        <path id="Path_123" data-name="Path 123" d="M892.647,2543.3h25.034c.062-.074.119-.152.174-.231l0,0H892.706C892.687,2543.149,892.667,2543.227,892.647,2543.3Zm.282-1.946H918.42c0-.039,0-.079,0-.117s0-.079,0-.119H892.929Zm-.079.972h25.382a2.25,2.25,0,0,0,.074-.235H892.881C892.872,2542.176,892.861,2542.254,892.85,2542.331Zm25.007-2.919c-.055-.08-.114-.159-.176-.234H892.647c.021.078.04.157.059.234Zm-24.976.974h25.425a2.394,2.394,0,0,0-.074-.236H892.85C892.861,2540.229,892.872,2540.307,892.881,2540.386Z" transform="translate(-890.64 -2537.274)" fill="#a1b6c2"/>
      </g>
      <g id="Group_168" data-name="Group 168" transform="translate(5.285 7.934)">
        <path id="Path_124" data-name="Path 124" d="M944.111,2532.963H894.718v.73h2.737v6.475h-2.737v.729h49.393a3.967,3.967,0,1,0,0-7.934Z" transform="translate(-894.718 -2532.963)" fill="#ff7900"/>
        <path id="Path_125" data-name="Path 125" d="M918.68,2533.423a3.239,3.239,0,0,1,0,6.477H895.724a7.849,7.849,0,0,0,0-6.477Z" transform="translate(-894.131 -2532.695)" fill="#ced9e0"/>
        <path id="Path_126" data-name="Path 126" d="M895.986,2538.293H921.02c.062-.074.119-.152.174-.231l0,0H896.044C896.026,2538.137,896.007,2538.216,895.986,2538.293Zm.282-1.947h25.492c0-.038,0-.078,0-.117s0-.078,0-.117H896.268Zm-.079.974h25.382a2.346,2.346,0,0,0,.074-.234H896.22C896.211,2537.163,896.2,2537.242,896.189,2537.32ZM921.2,2534.4c-.055-.081-.114-.16-.176-.236H895.986c.021.079.04.157.059.236Zm-24.976.972h25.425c-.021-.079-.046-.157-.074-.234H896.189C896.2,2535.218,896.211,2535.295,896.22,2535.373Z" transform="translate(-893.979 -2532.262)" fill="#a1b6c2"/>
      </g>
      <g id="Group_169" data-name="Group 169" transform="translate(2.007)">
        <path id="Path_127" data-name="Path 127" d="M942.039,2527.951H892.647v.728h2.735v6.477h-2.735v.728h49.393a3.967,3.967,0,1,0,0-7.934Z" transform="translate(-892.647 -2527.951)" fill="#0087ff"/>
        <path id="Path_128" data-name="Path 128" d="M916.608,2528.411a3.239,3.239,0,1,1,0,6.477H893.652a7.848,7.848,0,0,0,0-6.477Z" transform="translate(-892.061 -2527.683)" fill="#ced9e0"/>
        <path id="Path_129" data-name="Path 129" d="M893.914,2533.281h25.034c.062-.074.119-.152.174-.232l0,0H893.973C893.954,2533.124,893.936,2533.2,893.914,2533.281Zm.282-1.947h25.492c0-.039.006-.077.006-.117s0-.078-.006-.117H894.2C894.2,2531.177,894.2,2531.257,894.2,2531.334Zm-.079.974H919.5c.027-.078.052-.155.074-.234H894.148C894.14,2532.151,894.129,2532.228,894.117,2532.308Zm25.007-2.92c-.055-.081-.114-.159-.176-.234H893.914c.022.077.04.156.059.234Zm-24.976.973h25.427c-.022-.079-.048-.157-.074-.234H894.117C894.128,2530.2,894.14,2530.283,894.148,2530.361Z" transform="translate(-891.908 -2527.25)" fill="#a1b6c2"/>
      </g>
    </g>
    <g id="Group_171" data-name="Group 171" transform="translate(3.932 89.289)">
      <path id="Path_130" data-name="Path 130" d="M881.771,2503.5a3.115,3.115,0,0,0,0,4.413l2.161,2.159,5.509,5.523,38.154,38.154,7.063,3.4,1.675-1.675-3.4-7.064-38.154-38.152-5.521-5.523-2.161-2.159a3.136,3.136,0,0,0-4.412,0Z" transform="translate(-880.855 -2501.665)" fill="#f2e2d1"/>
      <path id="Path_131" data-name="Path 131" d="M881.771,2507.914a3.115,3.115,0,0,1,0-4.413l.918-.929a3.137,3.137,0,0,1,4.413,0l2.159,2.159-.785.8L887.2,2506.8l-1.276,1.276-1.276,1.261-.717.732Z" transform="translate(-880.855 -2501.665)" fill="#ff006f"/>
      <rect id="Rectangle_119" data-name="Rectangle 119" width="1.029" height="7.805" transform="matrix(0.708, -0.706, 0.706, 0.708, 3.073, 8.405)" fill="#ffd005"/>
      <path id="Path_132" data-name="Path 132" d="M884.058,2506.188l1.276-1.276,5.509,5.509-.6.612-.664.664Z" transform="translate(-878.988 -2499.772)" fill="#ffd005"/>
      <path id="Path_133" data-name="Path 133" d="M885.67,2504.4l.784-.8,5.522,5.522-.8.784Z" transform="translate(-878.048 -2500.536)" fill="#ffd005"/>
      <rect id="Rectangle_120" data-name="Rectangle 120" width="1.804" height="7.791" transform="translate(6.346 5.139) rotate(-45)" fill="#eabc03"/>
      <rect id="Rectangle_121" data-name="Rectangle 121" width="1.8" height="7.805" transform="translate(3.809 7.664) rotate(-44.7)" fill="#eabc03"/>
      <path id="Path_134" data-name="Path 134" d="M886.279,2511.45l.731-.731,1.276-1.277.665-.664,38.153,38.153-2.672,2.671Z" transform="translate(-877.693 -2497.518)" fill="#ffbf00"/>
      <path id="Path_135" data-name="Path 135" d="M887.967,2509.762l.6-.612,1.276-1.275.8-.784,38.153,38.153-2.672,2.672Z" transform="translate(-876.709 -2498.502)" fill="#ff9c00"/>
      <path id="Path_136" data-name="Path 136" d="M916.975,2538.33l-2.131-1,1.675-1.675,1,2.131A.408.408,0,0,1,916.975,2538.33Z" transform="translate(-861.041 -2481.85)" fill="#5d60f7"/>
      <path id="Path_137" data-name="Path 137" d="M910.382,2536.536l2.672-2.672,2.671-2.672,3.4,7.064-1.675,1.675Z" transform="translate(-863.643 -2484.452)" fill="#fab389"/>
    </g>
    <g id="Group_172" data-name="Group 172" transform="translate(66.051 103.267)">
      <path id="Path_138" data-name="Path 138" d="M971.077,2535.488c-.44-11.147-10.414-18.959-18.278-21.965-10.374-3.966-24.048-2.5-30.657,7.349-3.137,4.676-2.868,10.623,2.237,13.744a7.981,7.981,0,0,0,2.126.9c1.493.4,3.015.432,4.632.748a18.575,18.575,0,0,1,6.707,2.812,19.427,19.427,0,0,1,5.86,6.226c1.336,2.26,1.9,4.768,3.837,6.669a10.513,10.513,0,0,0,7.793,2.7C965.578,2554.243,971.457,2545.115,971.077,2535.488Zm-32.8-3.951a3.25,3.25,0,1,1,4.242,1.77A3.252,3.252,0,0,1,938.278,2531.537Z" transform="translate(-920.097 -2509.923)" fill="#9eb7c7"/>
      <path id="Path_139" data-name="Path 139" d="M971.519,2534.506c-.44-11.146-10.416-18.959-18.28-21.965-10.375-3.966-24.048-2.5-30.655,7.349-3.137,4.677-2.868,10.623,2.235,13.745a7.989,7.989,0,0,0,2.126.9c1.494.4,3.016.431,4.632.747a18.585,18.585,0,0,1,6.707,2.811,19.474,19.474,0,0,1,5.862,6.226c1.336,2.261,1.9,4.768,3.835,6.669a10.5,10.5,0,0,0,7.793,2.7C966.02,2553.261,971.9,2544.134,971.519,2534.506Zm-32.8-3.951a3.249,3.249,0,1,1,4.241,1.77A3.249,3.249,0,0,1,938.72,2530.555Z" transform="translate(-919.84 -2510.496)" fill="#ced9e0"/>
      <path id="Path_140" data-name="Path 140" d="M929.92,2525.433a4.606,4.606,0,1,1,.393-6.5A4.606,4.606,0,0,1,929.92,2525.433Z" transform="translate(-918.838 -2506.483)" fill="#ff006f"/>
      <path id="Path_141" data-name="Path 141" d="M935.789,2520.51a4.606,4.606,0,1,1,.391-6.5A4.609,4.609,0,0,1,935.789,2520.51Z" transform="translate(-915.417 -2509.353)" fill="#9635ee"/>
      <path id="Path_142" data-name="Path 142" d="M944.278,2521.313a4.606,4.606,0,1,1,.391-6.5A4.607,4.607,0,0,1,944.278,2521.313Z" transform="translate(-910.468 -2508.884)" fill="#0087ff"/>
      <path id="Path_143" data-name="Path 143" d="M950.912,2526.113a4.607,4.607,0,1,1,.391-6.5A4.607,4.607,0,0,1,950.912,2526.113Z" transform="translate(-906.601 -2506.087)" fill="#ff9c00"/>
      <path id="Path_144" data-name="Path 144" d="M952.5,2533.262a4.607,4.607,0,1,1,.391-6.5A4.607,4.607,0,0,1,952.5,2533.262Z" transform="translate(-905.676 -2501.919)" fill="#ffbf00"/>
      <path id="Path_145" data-name="Path 145" d="M947.7,2538.539a4.606,4.606,0,1,1,.393-6.5A4.606,4.606,0,0,1,947.7,2538.539Z" transform="translate(-908.474 -2498.843)" fill="#ff5400"/>
    </g>
  </g>
</svg>
