<svg xmlns="http://www.w3.org/2000/svg" xmlns:xlink="http://www.w3.org/1999/xlink" width="684.328" height="590.065" viewBox="0 0 684.328 590.065">
  <defs>
    <linearGradient id="linear-gradient" y1="0.63" x2="1" y2="0.5" gradientUnits="objectBoundingBox">
      <stop offset="0" stop-color="#261b8f"/>
      <stop offset="0.259" stop-color="#252094"/>
      <stop offset="0.686" stop-color="#251f93"/>
      <stop offset="1" stop-color="#104ebd"/>
    </linearGradient>
  </defs>
  <g id="Group_290" data-name="Group 290" transform="translate(-297.949 -4109.907)">
    <path id="Path_1" data-name="Path 1" d="M318.848,466.884s38.915,13.451,85.927,34.164,99.386,50.728,99.386,50.728,86.764,39.522,136.655-84.892c0,0,22.61-77.347,3.106-127.338S325.06,6.19,325.06,6.19,227.24-32.13,98.336,92.117,3.477,334.552,7.232,338.511,318.848,466.884,318.848,466.884Z" transform="translate(303.258 4129.168)" fill="#ddd" fill-rule="evenodd"/>
    <path id="Path_3" data-name="Path 3" d="M592.189,1085.552c147.4-173.949,358.859-193.617,474.878-50.824s124.943,281.123,53.547,339.132-303.434,8.925-455.152,129.406S379.19,1310.149,592.189,1085.552Z" transform="translate(-183.812 3170.014)" fill="url(#linear-gradient)"/>
    <g id="Group_1" data-name="Group 1" transform="translate(-73.235 3213.27)">
      <g id="Ellipse_1" data-name="Ellipse 1" transform="translate(775 971)" fill="none" stroke="#2fcce8" stroke-width="5">
        <circle cx="15" cy="15" r="15" stroke="none"/>
        <circle cx="15" cy="15" r="12.5" fill="none"/>
      </g>
      <circle id="Ellipse_6" data-name="Ellipse 6" cx="6" cy="6" r="6" transform="translate(453 1390)" fill="#29e6c0"/>
    </g>
  </g>
</svg>
