<svg xmlns="http://www.w3.org/2000/svg" width="46.866" height="46.771" viewBox="0 0 46.866 46.771">
  <g id="bpo_services" transform="translate(0.75 0.75)">
    <path id="Path_31" data-name="Path 31" d="M449.084,604.86a1.305,1.305,0,0,0-1.156-1.415H441.94a1.306,1.306,0,0,0-1.157,1.415v19.824h8.3Z" transform="translate(-440.783 -579.413)" fill="none" stroke="#fff" stroke-linecap="round" stroke-linejoin="round" stroke-width="1.5"/>
    <path id="Path_32" data-name="Path 32" d="M468.345,598.622a1.306,1.306,0,0,0-1.157-1.415H461.2a1.305,1.305,0,0,0-1.156,1.415v27.827h8.3Z" transform="translate(-435.333 -581.178)" fill="none" stroke="#fff" stroke-linecap="round" stroke-linejoin="round" stroke-width="1.5"/>
    <path id="Path_33" data-name="Path 33" d="M477.975,586.129a1.306,1.306,0,0,0-1.156-1.416H470.83a1.306,1.306,0,0,0-1.156,1.416v43.855h8.3Z" transform="translate(-432.608 -584.713)" fill="none" stroke="#fff" stroke-linecap="round" stroke-linejoin="round" stroke-width="1.5"/>
    <path id="Path_34" data-name="Path 34" d="M458.713,606.888a1.306,1.306,0,0,0-1.156-1.416H451.57a1.306,1.306,0,0,0-1.156,1.416v17.222h8.3Z" transform="translate(-438.058 -578.839)" fill="none" stroke="#fff" stroke-linecap="round" stroke-linejoin="round" stroke-width="1.5"/>
  </g>
</svg>
