<svg id="customer_support" xmlns="http://www.w3.org/2000/svg" width="39.254" height="44.903" viewBox="0 0 39.254 44.903">
  <g id="Group_68" data-name="Group 68" transform="translate(0 0)">
    <path id="Path_37" data-name="Path 37" d="M1246.032,731.62a15.36,15.36,0,1,0-30.72,0,4.633,4.633,0,0,0-4.267,5.034v8.021c0,3.755,2.629,5.12,5.12,5.12h2.475a.852.852,0,0,0,.853-.853V732.422a.853.853,0,0,0-.853-.853h-1.622a13.654,13.654,0,0,1,27.307,0H1242.7a.853.853,0,0,0-.853.853v16.495a.853.853,0,0,0,.853.853h1.622c-.239,5.863-3.055,7.237-8.678,7.485v-.572a1.707,1.707,0,0,0-1.708-1.706h-5.367a1.707,1.707,0,0,0-1.708,1.706v2.774a1.707,1.707,0,0,0,1.708,1.706h5.385a1.706,1.706,0,0,0,1.706-1.706v-.5c5.41-.248,10.087-1.365,10.368-9.241a4.634,4.634,0,0,0,4.267-5.036v-8.021C1250.3,733.317,1248.234,731.893,1246.032,731.62Zm-28.246,1.6v14.848h-1.664a3.1,3.1,0,0,1-3.413-3.413v-8.022a3.1,3.1,0,0,1,3.413-3.413Zm16.172,24.951v1.3h-5.385v-2.772h5.385Zm14.635-13.492a3.1,3.1,0,0,1-3.414,3.414h-1.62V733.275h1.663a3.1,3.1,0,0,1,3.414,3.414Z" transform="translate(-1211.045 -716.259)" fill="#fff"/>
  </g>
</svg>
