<svg xmlns="http://www.w3.org/2000/svg" width="44.903" height="44.903" viewBox="0 0 44.903 44.903">
  <path id="kpo" d="M1251.229,456.011a4.9,4.9,0,0,0-4.306,7.233l-8.025,8.025a6.488,6.488,0,0,0-8,0l-6.261-6.261a3.225,3.225,0,0,0,.463-1.649,3.266,3.266,0,1,0-3.266,3.266,3.224,3.224,0,0,0,1.649-.463l6.261,6.261a6.49,6.49,0,0,0,0,8l-10.339,10.341a4.843,4.843,0,1,0,1.021,1.288l10.474-10.474a6.483,6.483,0,0,0,3.182,1.321v8.3a4.9,4.9,0,1,0,1.633,0v-8.3a6.492,6.492,0,0,0,3.183-1.321l6.261,6.261a3.223,3.223,0,0,0-.464,1.65,3.266,3.266,0,1,0,3.266-3.266,3.224,3.224,0,0,0-1.648.463l-6.261-6.261a6.49,6.49,0,0,0,0-8l7.89-7.891a4.895,4.895,0,1,0,3.284-8.521Zm-31.024,7.347a1.633,1.633,0,1,1,1.633,1.633A1.635,1.635,0,0,1,1220.2,463.358Zm-4.081,34.289a3.266,3.266,0,1,1,3.265-3.265A3.269,3.269,0,0,1,1216.123,497.648Zm22.043-1.632a3.265,3.265,0,1,1-3.265-3.266A3.269,3.269,0,0,1,1238.166,496.016Zm-3.265-14.7a4.9,4.9,0,1,1,4.9-4.9A4.9,4.9,0,0,1,1234.9,481.32Zm14.7,8.165a1.633,1.633,0,1,1-1.633-1.633A1.634,1.634,0,0,1,1249.6,489.484Zm1.632-25.31a3.265,3.265,0,1,1,3.266-3.265A3.268,3.268,0,0,1,1251.229,464.174Z" transform="translate(-1211.224 -456.011)" fill="#fff"/>
</svg>
