<svg id="quality_assurance" xmlns="http://www.w3.org/2000/svg" width="45.484" height="44.903" viewBox="0 0 45.484 44.903">
  <path id="Path_38" data-name="Path 38" d="M1284.569,611.646h-4.893a.641.641,0,1,1,0-1.283h4.893a3,3,0,0,0,0-5.99h-4.089a.641.641,0,0,1,0-1.283h4.086a4.278,4.278,0,1,1,0,8.556Z" transform="translate(-1243.363 -580.708)" fill="#fff"/>
  <path id="Path_39" data-name="Path 39" d="M1283.834,617.148h-4.844a.642.642,0,1,1,0-1.284h4.844a2.911,2.911,0,0,0,0-5.822h-3.967a.641.641,0,0,1,0-1.283h3.964a4.195,4.195,0,1,1,0,8.389Z" transform="translate(-1243.557 -579.104)" fill="#fff"/>
  <path id="Path_40" data-name="Path 40" d="M1283.034,622.44H1279.1a.641.641,0,0,1,0-1.283h3.933a2.788,2.788,0,0,0,0-5.577h-4.043a.641.641,0,1,1,0-1.283h4.043a4.071,4.071,0,0,1,0,8.143Z" transform="translate(-1243.556 -577.537)" fill="#fff"/>
  <path id="Path_41" data-name="Path 41" d="M1271.658,620.927h-2.535a.641.641,0,0,1,0-1.283h2.535a.641.641,0,0,1,0,1.283Z" transform="translate(-1246.349 -576.024)" fill="#fff"/>
  <path id="Path_42" data-name="Path 42" d="M1276.634,620.927H1274.1a.641.641,0,1,1,0-1.283h2.535a.641.641,0,1,1,0,1.283Z" transform="translate(-1244.94 -576.024)" fill="#fff"/>
  <path id="Path_43" data-name="Path 43" d="M1267.971,630.406a.676.676,0,0,1-.113-.01c-2.493-.446-6.961-2.131-8.888-8.407a.662.662,0,0,1-.028-.189V607.208a.643.643,0,0,1,.374-.584,21.5,21.5,0,0,0,11.314-17.575,3.665,3.665,0,0,1,.094-.589,3.4,3.4,0,0,1,3.053-2.814,3.525,3.525,0,0,1,2.209.675c1.693,1.2,6.713,5.753,2.339,14.918H1290.5a4.037,4.037,0,0,1,0,8.074h-4.331a.642.642,0,0,1,0-1.284h4.331a2.753,2.753,0,0,0,0-5.506h-13.213a.644.644,0,0,1-.643-.641.632.632,0,0,1,.076-.3c4.575-8.632.494-12.814-1.477-14.212a2.216,2.216,0,0,0-1.387-.44,2.171,2.171,0,0,0-1.886,1.84,2.475,2.475,0,0,0-.061.375,22.82,22.82,0,0,1-11.68,18.457v14.1c1.653,5.272,5.182,6.95,7.858,7.43a.642.642,0,0,1-.113,1.274Z" transform="translate(-1249.048 -585.644)" fill="#fff"/>
  <path id="Path_44" data-name="Path 44" d="M1259.37,626.727h-5.1a3.045,3.045,0,0,1-3.041-3.041v-21.5a3.043,3.043,0,0,1,3.041-3.042h5.1a3.041,3.041,0,0,1,3.039,3.039v21.5A3.043,3.043,0,0,1,1259.37,626.727Zm-5.1-26.3a1.759,1.759,0,0,0-1.758,1.756v21.5a1.76,1.76,0,0,0,1.758,1.76h5.1a1.759,1.759,0,0,0,1.756-1.758v-21.5a1.758,1.758,0,0,0-1.756-1.759Z" transform="translate(-1251.23 -581.824)" fill="#fff"/>
</svg>
